<mxfile host="app.diagrams.net" agent="Mozilla/5.0 (Windows NT 10.0; Win64; x64) AppleWebKit/537.36 (KHTML, like Gecko) Chrome/130.0.0.0 Safari/537.36" version="24.8.3">
  <diagram name="Page-1" id="3VGoVNaAqIMBANpXydMK">
    <mxGraphModel dx="1434" dy="738" grid="1" gridSize="10" guides="1" tooltips="1" connect="1" arrows="1" fold="1" page="1" pageScale="1" pageWidth="827" pageHeight="1169" math="0" shadow="0">
      <root>
        <mxCell id="0" />
        <mxCell id="1" parent="0" />
        <mxCell id="BnPgklOCdzFr4PZ2rw3d-1" value="" style="outlineConnect=0;dashed=0;verticalLabelPosition=bottom;verticalAlign=top;align=center;html=1;shape=mxgraph.aws3.android;fillColor=#115193;gradientColor=none;" vertex="1" parent="1">
          <mxGeometry x="80" y="220" width="80" height="90" as="geometry" />
        </mxCell>
        <mxCell id="BnPgklOCdzFr4PZ2rw3d-2" value="" style="whiteSpace=wrap;html=1;aspect=fixed;gradientColor=none;fillColor=none;" vertex="1" parent="1">
          <mxGeometry x="35" y="190" width="170" height="170" as="geometry" />
        </mxCell>
        <mxCell id="BnPgklOCdzFr4PZ2rw3d-3" value="&lt;font style=&quot;font-size: 14px;&quot;&gt;.Net 472, .Net Core 6 or 8 solutions with Test cases&lt;/font&gt;" style="text;html=1;align=center;verticalAlign=middle;whiteSpace=wrap;rounded=0;" vertex="1" parent="1">
          <mxGeometry x="45" y="320" width="155" height="30" as="geometry" />
        </mxCell>
        <mxCell id="BnPgklOCdzFr4PZ2rw3d-7" value="" style="shape=image;verticalLabelPosition=bottom;labelBackgroundColor=default;verticalAlign=top;aspect=fixed;imageAspect=0;image=data:image/png,iVBORw0KGgoAAAANSUhEUgAAAlgAAAJYCAYAAAC+ZpjcAAAABGdBTUEAALGPC/xhBQAAAAlwSFlzAAAOwgAADsIBFShKgAAAABh0RVh0U29mdHdhcmUAcGFpbnQubmV0IDQuMS40E0BoxAAAKw1JREFUeF7t3UF260aaNFAvp3fS7VM9rX38S7Dr9LC25bV4GfUTlPSMR4ckEiTByMQd3MnXtqsVIsFgZgL65T//+Q8AAA8UhwAAbBeHAABsF4cAAGwXhwAAbBeHAABsF4cAAGwXhwAAbBeHAABsF4cAAGwXhwAAbBeHAABsF4cAAGwXhwAAbBeHAABsF4cAAGwXhwAAbBeHAABsF4cAAGwXhwAAbBeHAABsF4cAAGwXhwAAbBeHAABsF4cAAGwXhwAAbBeHAABsF4cAAGwXhwAAbBeHAABsF4cAAGwXhwAAbBeHAABsF4cAAGwXhwAAbBeHAABsF4cAAGwXhwAAbBeHAABsF4cAAGwXhwAAbBeHAABsF4cAAGwXhwAAbBeHzf77//0vAHAwqRM0i8NmKXQAYG6pEzSLw2YpdABgbqkTNIvDZil0AGBuqRM0i8NmKXQAYG6pEzSLw2YpdABgbqkTNIvDZil0AGBuqRM0i8NmKXQAYG6pEzSLw2YpdABgbqkTNIvDZil0AGBuqRM0i8NmKXQAYG6pEzSLw2Yp9Ca//OP//itJ/ywAcJ3UCZrFYbMU+p7OhenXf/3zl19/+/fJH7/8z2//uc3vf57/vfO/f/rvKF8A8K3UCZrFYbMU+rO9F6pTmTqVo1ia7rQqXOl/HwCOLnWCZnHYLIX+DD9WqVIheqrzCte/rWwBwF9SJ2gWh81S6I90LlbPWqm61Xlly6oWAKRO0CwOm6XQH+FttaqkWF1StAA4uNQJmsVhsxT6PapWrL6zFC1bhwAcUOoEzeKwWQp9i7e7AZeD66HIVHs7o5V+JgCYVeoEzeKwWQr9VkOtWn3GahYAB5I6QbM4bJZCv8Wy+hMLy5CW1SxnswCYX+oEzeKwWQr9GuNuCV7BliEAk0udoFkcNkuhf+dcrkbfEvyOkgXAxFInaBaHzVLoXzlEufrw629/pAwAYHSpEzSLw2Yp9M8cqlx9ULIAmFDqBM3isFkKPTlkufqgZAEwmdQJmsVhsxT6pUOXqw/OZAEwkdQJmsVhsxT6pWUFJ5aOo/EIBwAmkTpBszhslkJfW1ZuYtk4qn94GCkA40udoFkcNkuhf3h7QnsoGYf2+58pKwAYSeoEzeKwWQr9w+HPXX3GoXcABpc6QbM4bJZCX9ga/IbzWAAMLHWCZnHYLIX+dtdgKBX8xSoWAANLnaBZHDZLobtr8Eoe3QDAoFInaBaHzS4Dd7D9Fg68AzCm1AmaxWGzy8CtXt3IKhYAA0qdoFkcNluHbfVqC6tYAIwndYJmcdhsHbbVq43cUQjAYFInaBaHzT6CdufgHdxRCMBgUidoFofNPoJezhLF8sB1/AkdAAaSOkGzOGz2EbSntt/JYXcABpI6QbM4bLaEbHvwERx2B2AcqRM0i8NmS8i2Bx/ENiEAg0idoFkcNltCdvfgg7ibEIBBpE7QLA6bLSHHssDt3E0IwCBSJ2gWh82cv3ok57AAGEPqBM3isJmntz9WehEDQJvUCZrFYTMH3B/MQXcABpA6QbM4bOaA+4MpWAAMIHWCZnHYTMF6MHcSAjCA1AmaxWEzT3B/MAULgAGkTtAsDpspWA+mYAEwgNQJmsVhs1gS2E7BAmAAqRM0i8NmsSSwnT/6DMAAUidoFofNYklgOytYAAwgdYJmcdjMGawHU7AAGEDqBM3isJmC9WAKFgADSJ2gWRw28xysB1OwABhA6gTN4rCZgvVgnuQOwABSJ2gWh82Wu95iUWAbBQuAAaRO0CwOmy1bWrEosEl6EQNAm9QJmsVhs2XFJRUFtvj9z/QiBoA2qRM0i8NmS8i5LHCzX3/74/IFDACNUidoFofNlpAddH8QdxACMIjUCZrFYbMlZAfdH8QBdwAGkTpBszhstoTsoPsjOH8FwDhSJ2gWh80+gvZE9zv5I88ADCR1gmZx2OwjaNuEd7I9CMBAUidoFofNPoL2uIY7uHsQgMGkTtAsDputw3Y34Ua2BwEYTOoEzeKw2Tpsh923cLgdgPGkTtAsDptdBu6w+42sXgEwoNQJmsVhs8vArWLd5jI/ABhB6gTN4rBZCt0q1pWsXgEwqNQJmsVhsxS6VaxrOHsFwLhSJ2gWh81S6At3FH7D3x0EYGCpEzSLw2Yp9IXnYn3Bc68AGFzqBM3isFkK/YOtwuT3Pz21HYDRpU7QLA6bpdDXloPcuWgclK1BACaQOkGzOGyWQr/kPNY7dw0CMInUCZrFYbMU+qW381gHf3SDc1cATCR1gmZx2CyFnhz60LtyBcBkUidoFofNUuifOeShd+UKgAmlTtAsDpul0L9yqJK1nD1zxyAAE0qdoFkcNkuhf+cQZ7KsXAEwsdQJmsVhsxT6NaYuWe4WBGByqRM0i8NmKfRbnLfRUkkZlXIFwAGkTtAsDpul0G81x7ksT2gH4DhSJ2gWh81S6FuctwxHXc2yagXAwaRO0CwOm6XQ7/G2mjXI2Sx3CQJwUKkTNIvDZin0e72vZhX/DcNTAfQ3BQE4sNQJmsVhsxT6I70VrZIVrWXFSrECgNgJmsVhsxT6M5y3Dl91RmspeYoVAPyQOkGzOGyWQn+mH9uHTy1byxag1SoA+EzqBM3isFkKfU/vK1vvhWvrVuJHoTr9dxxaB4BvpU7QLA6bpdBf7bzKdYX07wIA30udoFkcNkuhAwBzS52gWRw2S6EDAHNLnaBZHDZLoQMAc0udoFkcNkuhAwBzS52gWRw2S6EDAHNLnaBZHDZLoQMAc0udoFkcNkuhA6+THkny9rw4uNPHa+ni9ZVeh8wvdYJmcdgshQ483o8Pt7Pzw3XfHrD74yG7JX+zk4N6fw1+vCZ/vEb/Kmfpdc24UidoFofNUujAdn8VqfcCpTgxlR8l7K18KV7DSp2gWRw2S6ED1/mpTClSHNqqeCldQ0idoFkcNkuhA9nPK1PpQwb4YbXSld5PvFbqBM3isFkKHXjztkKlUMFDWOGqkjpBszhslkKHI7PlB3s4byla3Xqh1AmaxWGzFDocjVIFL6Zs7S51gmZx2CyFDkegVEEjK1t7SZ2gWRw2S6HDrH6cqVKqYADvZcuZradInaBZHDZLocNs3lerHFSHUZ0PyFvVeqTUCZrFYbMUOsziXKysVsFE3la10vud26RO0CwOm6XQYWS2AeEgbB/eJXWCZnHYLIUOI/qrWIULMTCvZftQ0bpZ6gTN4rBZCh1GolgBZ4rWTVInaBaHzVLoMALFCohsHV4ldYJmcdgshQ7tFCvgW4rWl1InaBaHzVLo0OqtWDm8DlzLXYefSZ2gWRw2S6FDG49bAO6zFC3P0VpLnaBZHDZLoUOL93NWHhAKPIaD8D+kTtAsDpul0KHB23ZguEAC3Mu2YewEzeKwWQodXsmqFbCPY28bpk7QLA6bpdDhVaxaAbs76GpW6gTN4rBZCh32dl61cogdeJnjrWalTtAsDpul0GFPVq2AGgdazUqdoFkcNkuhwx6ctQIqHeROw9QJmsVhsxQ6PNvbc63ChQ2gxeRbhqkTNIvDZil0eCZbgsAwJt4yTJ2gWRw2S6HDM9gSBIY06ZZh6gTN4rBZCh0e7W1L0F2CwKjmu8swdYJmcdgshQ6P5LwVMI2JtgxTJ2gWh81S6PAozlsB05mkZKVO0CwOm6XQ4RGUK2Bav/72R7rujSR1gmZx2CyFDvdaLj7xogQwi8FLVuoEzeKwWQod7qFcAYcx8B2GqRM0i8NmKXTY4vwYBncKAodzuu4NWLJSJ2gWh81S6HAr5Qo4tvFKVuoEzeKwWQodbuEZVwDvBnpWVuoEzeKwWQodruUZVwAXBilZqRM0i8NmKXS4xtu2YLi4ABzdACUrdYJmcdgshQ7fceYK4BvlZ7JSJ2gWh81S6PAV5QrgSsUlK3WCZnHYLIUOn1GuAG7Re3dh6gTN4rBZCh0+4yGiALfqLFmpEzSLw2YpdEiUK4CNCv+sTuoEzeKwWQodLilXAHcqK1mpEzSLw2YpdFg7XRT+HS8WANymqGSlTtAsDpul0OGDcgXwYKfrarre7i11gmZx2CyFDgtPaQd4koKSlTpBszhslkKHt8cxhIsCAI/x4qe9p07QLA6bpdA5Ns+6AtjDax/fkDpBszhslkLn2JZDmPliAMBDvfDQe+oEzeKwWQqd43KoHWBnLzqPlTpBszhslkLnmBxqB3iRF5zHSp2gWRw2S6FzPM5dAbzS/uexUidoFofNUugcj3NXAC+283ms1AmaxWGzFDrHYmsQoMSO57FSJ2gWh81S6ByH510BlNlpqzB1gmZx2CyFznHYGgRo8/uf6Xr9aKkTNIvDZil0jmFZis5vbs6W8vnm31d4+2fdKAA8wum6kq7bj5Q6QbM4bJZCZ362BtdOpehckv71z7M7l+fP2S7O/7338hX/dwG+8OStwtQJmsVhsxQ68zv2h/6qUD35Avbhp8JllQu4xuk6na4nj5I6QbM4bJZCZ27nD/r0Zp7de6lKmeztrXApW8A3TteJdA15hNQJmsVhsxQ68zp/sB/pQ/18NqqjVH3mfWXLNiIQnK7XT1ppT52gWRw2S6Ezr7dVk/QmnswAxerS+6qWogX87EmrWKkTNIvDZil05vS2ehXevDNZCsqTvu3t5b1oucMT+MsTrmupEzSLw2YpdOY09+rIcnB9rBWr71jRAn44XQvSdeIeqRM0i8NmKXTmcz7nk960w1uK1X5/WuIV3n53DsPD4T34S2TqBM3isFkKnflM+QE9wXbgtWwbAst1PF0ftkqdoFkcNkuhM5cpV68mX7X6zLwrkcBVHnjtS52gWRw2S6Ezl7lWr04/y0FWrT7jbBYc2eNWsVInaBaHzVLozGOqbaUnHPIc2VS/W+B6D1rFSp2gWRw2S6Ezj2lWr5SrSMmCI3rMKlbqBM3isFkKnTlM8+H7oG9rs1Ky4IAecF1MnaBZHDZLoTOHKVavlKurOPwOx5OuBbdInaBZHDZLoTO+KT5wlaubKFlwMHdeI1MnaBaHzVLojG/41SvlapMlt5gnMKH7zmKlTtAsDpul0Bnb8CsZytVdlCw4kNP1Pl0HrpE6QbM4bJZCZ2ynD9hxn5HkbsGHULLgKLavYqVO0CwOm6XQGdf5IZTxTTgCDxF9pKGLNnC9jatYqRM0i8NmKXTGNfTKhXL1UG9le5LnoAGf27jynzpBszhslkJnXPHNNwLnrp7CnYVwEBu+oKZO0CwOm6XQGdOwq1fOXT3V0KuawHU2fElNnaBZHDZLoTOmpajEN147W4NPZ6sQZnf7YffUCZrFYbMUOuN5O2+T3nTlbA3uwlYhHMCNh91TJ2gWh81S6IxnzG2gx/zBUq4z7AoncJ0bj1ukTtAsDpul0BlPfLO1u+MBedxu2FVO4Eq3fWlNnaBZHDZLoTOWIbd/HGx/iTFXOoGr3fDFNXWCZnHYLIXOWIb80HSw/SWsYsHkbvjymjpBszhslkJnLPFN1szq1UtZxYK5pfd9kjpBszhslkJnHGNuDzp79UpWsWByV15jUydoFofNUuiMY1kNim+wVlavKgz3ugGud+V1NnWCZnHYLIXOOIZ7gKTVqwpDrnwCV0vv+0upEzSLw2YpdMYw5Iekw+01PN0dJnbFl9nUCZrFYbMUOmMY7rCy7cEqw71+gOud3t/pfb+WOkGzOGyWQmcMS2GJb6xWtgerOOwOM/v+oaOpEzSLw2YpdPqN+OGYfg5eyzYhTOybIxmpEzSLw2YpdPoNd/7K9mAl24QwsW+2CVMnaBaHzVLo9Bvug9H2YKUhb5QArvPNF9vUCZrFYbMUOv2G29px92Ct+PsCJvD1OazUCZrFYbMUOt3GO3912194Z1/Lt9z8ewOG98WX29QJmsVhsxQ63Zy/4pGG224GrvfF8YzUCZrFYbMUOt3GO3/1/fNYeB3nsGBiX1x/UydoFofNUuh0W1aE4huplQPu1RQsmNnnRzRSJ2gWh81S6HTLb6JiDrhXG+9MH3CL9L5fpE7QLA6bpdDpNeSHoYJVzwNHYWKf7CKkTtAsDpul0Ok13naOOwhHMNy2M3A9Bes1Uuj0Gu6Au4I1BAULJvbJQffUCZrFYbMUOr3GO+DuEQ0jULBgYp9ch1MnaBaHzVLo9BrurIyCNYTT78mzsGBi6X2fOkGzOGyWQqdXeuNUU7CGoGDB5MLNRqkTNIvDZpeB02vIOwgVrCEoWDA5BWt/l4HTa8gHQn5yuJIuChZMLtxJmDpBszhsdhk4vYb8ELSCNQQFCyYXvuymTtAsDptdBk4vBYtnWX5P8fcHzEHB2t9l4PQa80PQc7BGoGDB5MKX3dQJmsVhs8vA6aVg8SwKFszu79fi1AmaxWGzy8DpNdwzsN6ln4Uuo762gOtdvu9TJ2gWh80uA6dXesMMwR97rhd/b8BULt/3qRM0i8Nml4HTK71hhvDJHxqlw5DPVwNud/FlN3WCZnHYbB02vYb+EFSwqg35fDXgdgrWvtZh02vsguVho82W30/8vQFzufiymzpBszhstg6bXkOvMoTbg+mhYMFBKFj7WodNr9G3cdLPRAd3EMJBKFj7WodNr9EL1uUbmw4OuMOBXBzXSJ2gWRw2W4dNr/ELlnNYjYZ/XQHXU7D2tQ6bXsOfk3EOq9Lye4m/L2A+Cta+1mHTa/iCtbi4RZjXc/4KDkTB2tc6bHpNUbCcw6piexAORsHa1zpses1RsGwTNll+H/H3BMxJwdrXOmx6TVGwFrYJa8TfDzAvBWtf67DpNU3BuniD8xq2B+GAFKx9rcOm1zQF639+/zP9fOzL4XY4IAVrX+uw6TVPwTqxivVSVq/goBSsfa3DptdUBcsq1kudXksOt8MRKVj7WodNr7kK1olHNryE1Ss4MAVrX+uw6TVdwbKK9RJWr+DAFKx9rcOm13wF6+Tizc5zWb2Cg1Ow9rUOm15TFqzlTjbPxdqNOwfh4BSsfa3DptecBevE0913Me3rB7iegrWvddj0mvoD0oH3p1pWCWPuwLEoWPtah02vuVcgbBU+0+m142A7oGDtbR02veYuWCe2Cp9i+tcNcD0Fa1/rsOl1iA/Kizc/93HXIPATBWtf67DpdZiVCOexHsK5K+BvFKx9rcOm12EKlvNYD+GRDMDfKFj7WodNr+MUrIWSdY/Ta8WhduDvFKx9rcOm17EK1olD75soV8CnFKx9rcOm1+EK1kLJuolyBXxJwdrXOmx6HbJgLZSsqyhXwLcUrH2tw6bXYQvWmTNZX1GugKsoWPtah02vYxeshZJ16fwoBuUKuJaCta912PRSsBankuU5WWfncuVRDMAtFKx9rcOml4K1cnGROBqvBWATBWtf67Dp5UP1wrI1drAtQ1uCwF0UrH2tw6aXgvWJg2wZvv1dQVuCwB0UrH2tw6aXgvWFiVezrFoBD6Ng7WsdNr0UrCssGU1UtPzOgYdSsPa1DptePmxvMHjRevtd2w4EHkzB2tc6bHopWBsMVLTetwL9joHnUbD2tQ6bXj5877CcYSo9DH8+vO6MFbAHBWtf67DppWA9yJLji8vWX6tVtgGBHSlY+1qHTS8F6wnOK1unXJ+8jfhWqD5WqpQq4EUUrH2tw6aXgvVsp+LzUbjOToXoxuL1V5E6l6nlv6NQAT0UrH2tw6bX+QM7vWHYyVKU3r0VsffypEABg1Cw9rUOm14KFgB3UbD2tQ6bXgoWAHdRsPa1DpteChYAd1Gw9rUOm14KFgB3UbD2tQ6bXgoWAHdRsPa1DpteChYAd1Gw9rUOm14KFgB3UbD2tQ6bXgoWAHdRsPa1DpteChYAd1Gw9rUOm14KFgB3UbD2tQ6bXgoWAHdRsPa1DpteChYAd1Gw9rUOm14KFgB3UbD2tQ6bXgoWAHdRsPa1DpteChYAd1Gw9rUOm14KFgB3UbD2tQ6bXgoWAHdRsPa1DpteChYAd1Gw9rUOm14KFgB3UbD2tQ6bXgoWAHdRsPa1DpteChYAd1Gw9rUOm14KFgB3UbD2tQ6bXgoWAHdRsPa1DpteChaQ/f7n2a+//RF9/N/P0r/PYShY+1qHTa/ljRHfMMDEfhSnf7/51z9/+cf//dciXSeu9fHfOP/3fvy3P8pY+v+DKZx+z+vXQeoEzeKw2Tpsep0vgOkNA0ziXKZ+lKh0HdjD38qX0jUPBWtf67DppWDBbDoK1TVWhcsq18gUrH2tw6aXggUTOG/39Req7/xcuMLPSScFa1/rsOmlYMGgPs5QDV6qPvNWtpbrk5WtegrWvtZh00vBgpG8b/9NWqo+o2yVU7D2tQ6bXgoWDOB9CzC9h4/GFmIhBWtf67DppWBBsaVIHGy16lqKVhEFa1/rsOmlYEGh5X2pWF3lfftQ0XolBWtf67DppWBBEcVqM0XrhRSsfa3DppeCBQVsBT6MrcMXULD2tQ6bXgoWvNJyV6DD68/wdm1z1+EuFKx9rcOml4IFL3LxocTjvW8busY9m4K1r3XY9HLxgZ3ZDtydbcMnU7D2tQ6bXgoW7Ojig4h9ud49iYK1r3XY9HLBgT38/qdVqw7n1Sxnsx5LwdrXOmx6KVjwZL/+9kd67/E6HunwYArWvtZh00vBgidyh2A1178HUbD2tQ6bXi4w8Ay2BEdhy/ABFKx9rcOml4IFD2ZLcDjnLUMlazsFa1/rsOmlYMEDKVfDci7rDgrWvtZh00vBgge5+JBhTErWBgrWvtZh00vBggdQrqbiungjBWtf67Dp5UICd3Kn4JRcG2+gYO1rHTa9XETgDsrV1Fwfr6Rg7WsdNr1cQGAj5eoQXCOvoGDtax02vVw8YIOLDxTm5jr5DQVrX+uw6eXCATdSrg7p9Ht3d+FnFKx9rcOml4IFN1CuDk3J+oSCta912PRSsOBKHiLKiSe+BwrWvtZh00vBgmv8/md6/3A8/qxOoGDtax02vRQs+I4/3MzP3v5AdHqtHJSCta912PRSsOAbHsdA4Nq5omDtax02vVwk4AsXHxywdnp9OPS+ULD2tQ6bXgoWfMKhdr7hPNY7BWtf67DppWBB4twV13Ee60TB2tc6bHopWBA4d8UNDn8dVbD2tQ6bXgoWXLA1yAbL6ya+no5AwdrXOmx6KViwZmuQbQ69Vahg7WsdNr0ULFi5+KCAWxz2eqpg7WsdNr0ULPjgae3c57B3FSpY+1qHTS8FC97ZGuQBDrlVqGDtax02vRQsOLn4gIB7nF5PxzrwrmDtax02vRQscLCdx3rbKkyvtUkpWPtah00vBYvDs3rFE5xeV8dZxVKw9rUOm14KFkeX3hdwr0OtYilY+1qHTS8Fi0OzesUTnV5fx1jFUrD2tQ6bXgoWh+bsFU90mFUsBWtf67DppWBxWFav2MHpdTb/KpaCta912PRSsDgsq1fs4BCrWArWvtZh00vB4pCsXrGj0+tt7lUsBWtf67DppWBxSFav2NH0T3dXsPa1DpteChaH8+tvf6T3AjzT1H+jUMHa1zpseilYHM7FhwHsYeprrYK1r3XY9FKwOBzbg7zA1NuECta+1mHTS8HiUGwP8kLTbhMqWPtah00vBYtD+fVf/0zvA9jDtNdbBWtf67DppWBxHL//md4DsJdpn4mlYO1rHTa9FCwO4+JDAF7h9Dqc75lYCta+1mHTS8HiMGwPUmDKa66Cta912PRSsDgMdw9SYMptQgVrX+uw6aVgcQjuHqRIfI2OTMHa1zpseilYHMLFBwC80lL44+t0VArWvtZh00vB4hCcv6LIdA8dVbD2tQ6bXgoWR5Be+/Aq053DUrD2tQ6bXgoW03P+ikJTPdVdwdrXOmx6KVhM7+LiDw2W4h9fryNSsPa1DpteChbTc/6KQlNdexWsfa3DppeCxfQ8/4pCUx10V7D2tQ6bXgoWs0uve3i1qQ66K1j7WodNLwWLufkDz/TKr9kBKVj7WodNLwWLqbmDkGLT3EmoYO1rHTa9FCymdnHhhybLF4D4uh2NgrWvddj0UrCYmjsIKTbN9VfB2tc6bHopWExNwaLYNHcSKlj7WodNLwWLqXlEA8UUrA5x2GwdNr0ULKamYFFMweoQh83WYdNLwWJm6TUPLaZ5FpaCta912PRSsJhZes1DCwWrQxw2W4dNLwWLmaXXPLRQsDrEYbN12PRSsJiXp7jTL792B6Ng7WsdNr0ULOalYNEvv3YHo2Dtax02vRQspuXP5DCA+NodjYK1r3XY9JrmNmG4pGAxgCn+HqGCta912PSygsW0FCwGEF+7o1Gw9rUOm15WsJiXM1j0y6/dwZw+R9Y/U+oEzeKw2TpseilYzEvBol9+7Q7GCta+1mHTS8FiZuk1Dy3meQ6WFaxdrcOml4LFzNJrHlooWB3isNk6bHpN8waHIL3mocU019/Tz7H+uVInaBaHzdZh00vBYmoXF35oMs0OgoK1r3XYdItvGJiBgkUxBatDHDZbh023+IaBGVycDYEmsxSsy58rdYJmcdjsMnB6TfEkYUgULIrN8aDnvz8OJXWCZnHY7DJwei1PvM5vHBjcxfN5oMkU197wFxNSJ2gWh80uA6fXHN+iIPDncig2yd8hVLD2dhk4vRQs5uVp7vTKr9nBhFXi1AmaxWGzy8DpNc2dLBCk1zy82jSPyFGw9ncZOL0ULKbmUQ0Umua6G24kSZ2gWRw2uwycXtN8k4LEnYQUmuZoRvgCkzpBszhsdhk43eIbB2YQtjDg1U6vyynu3k4/W+oEzeKwWQqdXrO82eFv3ElIoTmeP5hvIkmdoFkcNkuh02ua5WoI0mseXmWiA+7xy0vqBM3isFkKnV4KFlNzDosi01xvP9l+T52gWRw2S6HTy52ETM05LIosKz/xdTqaT764pE7QLA6bpdDp5U5CpuYcFkXmOH918skjUFInaBaHzVLodJvmTQ/JJx8GsKeZvsymn2+ROkGzOGyWQqfbNMvWkDiHRYFluzq+Pkfzxapw6gTN4rBZCp1uzmExNeewKDDNF9kv3k+pEzSLw2YpdLo5h8Xc/OFnXmuqa+wXK8KpEzSLw2YpdPrFNxLMwjYhLzTN9uBJ+vk+pE7QLA6bpdDpN83yNSTuJuSFprmR6Jv3UeoEzeKwWQqdfjN9w4LI3YS8wFzbg1+fZ0ydoFkcNkuh089Bd6Znm5AXmOrL6zfvodQJmsVhsxQ6Y4hvKJiGw+7sb6bnDKafby11gmZx2CyFzhiW/fX0poJp2CZkR1PtDFxxjjF1gmZx2CyFzhhsEzK9b86QwCNN9aX1ivdO6gTN4rBZCp0xeB4Wh2AVix1Mdz294n2TOkGzOGyWQmcctgmZnlUsdjDXtfS684upEzSLw2YpdMaxfPjkNxhMxCoWTzTd6tWVX0pSJ2gWh81S6IxjugsDJFaxeKK5Vq9OrvxCkjpBszhslkJnLNNdHCBIr32413xfUq9/vEnqBM3isFkKnbHYJuQQrGLxBNN9Qb3hfZI6QbM4bJZCZyy2CTmG3/+8dusDrjHltfOG90jqBM3isFkKnfHYJuQQrGLxQPNdN2/76wepEzSLw2YpdMazfPDkNxxMxt8o5AGmfFDzjV9AUidoFofNUuiMKb7hYDa/fv8nQOArb1uD8/zNwR9u3EJPnaBZHDZLoTMmq1gchq1C7jDltXLDF4/UCZrFYbMUOmPytwk5Dgfe2Wba6+SGrfPUCZrFYbMUOuOactkbEluFbLC8buLraWi3HW7/kDpBszhslkJnXFMufcNnHHjnBtNeHzdumadO0CwOm6XQGVt8A8KUbBVynamPUGx8D6RO0CwOm6XQGZtVLA7FViHfmPauwcXG1atF6gTN4rBZCp2xvV1MwhsRZnXHhwzzW0p4fN3M4I4V3NQJmsVhsxQ647OKxeE4j0Uw9bXwztXb1AmaxWGzFDrjs4rFId3xbZ75TH3uanHnl4rUCZrFYbMUOnOYelkcEuexeDf1uavFA17rqRM0i8NmKXTmYBWLQ1KyOJn+C+YDtsRTJ2gWh81S6MzDKhaH5ND7oc1frh7zJSJ1gmZx2CyFzjysYnFYStYhHeJL5YNu6EidoFkcNkuhM5dDXHAgUbIOZfl9x9fBTB60erVInaBZHDZLoTMXq1gcmsc3HMIhytXigXfKpk7QLA6bpdCZz2EuPpAoWVM7zPXtgatXi9QJmsVhsxQ687GKxeEpWVM61JfHB65eLVInaBaHzVLozMkqFod3eg+k9wZjOtQ17Qmv3dQJmsVhsxQ685r6wXtwDSVrCqff44Fu3vn9z5TBvVInaBaHzVLozGvZJslvYDiQB59lYT/n4w5HuzP6SdvbqRM0i8NmKXTmdriLEyRK1nDezpIebBX+ia/T1AmaxWGzFDpzc+AdPpw+rB98cJjneFt9P+ARhye+PlMnaBaHzVLozM9WIay4w7DaL0e9QefJ5wVTJ2gWh81S6ByDrUJYsWVY55DnrT7s8HpMnaBZHDZLoXMMtgrhki3DFofdEvyww+swdYJmcdgshc5xLEvQ8c0NR2bL8KUOf13a6VEiqRM0i8NmKXSO5bBL8PCV5X1hNWtXh94S/LDD1uCH1AmaxWGzFDrH8rZVeOClePjKTqsJR/ZerKymL3Ys9akTNIvDZil0jsddhfCV0xcQ24ZPcfizVms7v8ZSJ2gWh81S6ByTb5DwDduGD3MuVo4n/GXHrcEPqRM0i8NmKXSOyVYhXGn5MqJobfK+HahY/eR03X3B6yl1gmZx2CyFznG9lax0AQD+RtG6mmL1hRdtP6dO0CwOm6XQOba3MxHhIgBktg4/ZSvwGy8qV4vUCZrFYbMUOpy/maeLAfC5pUi88AOziWJ1hVM+Kbu9pE7QLA6bpdBh4eIIWy13HR5v+/B9G/D05cxZzm+9uFwtUidoFofNUuiwOF8sXSjhPudVrXnLllK1xWsOtV9KnaBZHDZLocMHJQse6Fy2/vXP0cvWW6myBbhZye8/dYJmcdgshQ5rbyUrXCSAO5y+uCwrPwMUrp8LlS9cdznlmDJ+hdQJmsVhsxQ6XDpfXNPFAniQjsJ1LlN/FSpbf49UVK4WqRM0i8NmKXRIlCzY27l0vZ3hemD5+luJemN16pnKytUidYJmcdgshQ6fOV+I08UDeJGlFP0oYtnHPxP/fZ7udN1M19NXS52gWRw2S6HDV5aLRbyIAPCz0nK1SJ2gWRw2S6HDd5QsgG/8+vpnXX0ldYJmcdgshQ7XWC4e8aICcHTl5WqROkGzOGyWQodrKVkAFwYoV4vUCZrFYbMUOtxCyQJ4N0i5WqRO0CwOm6XQ4Vani4ozWcCxDVSuFqkTNIvDZil02ELJAg6r+G7Bz6RO0CwOm6XQYSsPIwUOZ8BytUidoFkcNkuhwz2ULOAwCp/Qfq3UCZrFYbMUOtzrrWR5cjQwsYHL1SJ1gmZx2CyFDo9w/ltnShYwndN17QF/E/LVUidoFofNUujwKEoWMJc5ytUidYJmcdgshQ6Ptty+nC9WAINYrmOTlKtF6gTN4rBZCh2ewWMcgGENeqfgV1InaBaHzVLo8CwOvwPDGfww+2dSJ2gWh81S6PBM53NZtgyBevOct0pSJ2gWh81S6LAHW4ZArcH+7M0WqRM0i8NmKXTYiy1DoMvpejTpluCl1AmaxWGzFDrsyZYhUGGyuwS/kzpBszhslkKHV3hbzQoXPYBnm/Auwe+kTtAsDpul0OFVrGYBuzrYqtVa6gTN4rBZCh1ezdks4LmOc9bqM6kTNIvDZil0aPC+muVOQ+CxDrxqtZY6QbM4bJZChybn1SzbhsDdrFqtpU7QLA6bpdChkW1DYBvFKkmdoFkcNkuhQzPbhsDVDnh34LVSJ2gWh81S6NDO+SzgS8v1wTmrL6VO0CwOm6XQYRSKFvATB9ivljpBszhslkKH0ShacHCK1c1SJ2gWh81S6DAqRQsOxlbgZqkTNIvDZil0mMFb0XLXIcxnuStQsbpX6gTN4rBZCh1m4jlaMInlfexxCw+TOkGzOGyWQocZ/bV9aFULhmK16ilSJ2gWh81S6DA7q1pQzmrV06VO0CwOm6XQ4Sh+rGopW/B651JltWovqRM0i8NmKXQ4ImULXkCpepnUCZrFYbMUOhzdW9n62EZ0Zgse53wH4Hn7T6l6rdQJmsVhsxQ68LP3smV1C7b4WKVypqpK6gTN4rBZCh342s/biVa44C8fK1QKVbvUCZrFYbMUOnCb1Zai0sWB/FymbPmNJXWCZnHYLIUOPMZb6fpRvJQvBrQuUYrUTFInaBaHzVLowPOdV71+rHz9VMI+LB9q8Cwfr7HVa+79tfj+2kyvW+aROkGzOGyWQgcA5pY6QbM4bJZCBwDmljpBszhslkIHAOaWOkGzOGyWQgcA5pY6QbM4bJZCBwDmljpBszhslkIHAOaWOkGzOGyWQgcA5pY6QbM4bJZCBwDmljpBszhslkIHAOaWOkGzOGyWQgcA5pY6QbM4bJZCBwDmljpBszgEAGC7OAQAYLs4BABguzgEAGC7OAQAYLs4BABguzgEAGC7OAQAYLs4BABguzgEAGC7OAQAYLs4BABguzgEAGC7OAQAYLs4BABguzgEAGC7OAQAYLs4BABguzgEAGC7OAQAYLs4BABguzgEAGC7OAQAYLs4BABguzgEAGC7OAQAYLs4BABguzgEAGC7OAQAYLs4BABguzgEAGC7OAQAYLs4BABguzgEAGC7OAQAYLs4BABguzgEAGC7OAQAYLs4BABguzgEAGC7OAQAYLs4BABguzgEAGC7OAQAYKv//PL/AW0zgri2TzECAAAAAElFTkSuQmCC;" vertex="1" parent="1">
          <mxGeometry x="62.5" y="410" width="110" height="110" as="geometry" />
        </mxCell>
        <mxCell id="BnPgklOCdzFr4PZ2rw3d-8" value="" style="shape=image;verticalLabelPosition=bottom;labelBackgroundColor=default;verticalAlign=top;aspect=fixed;imageAspect=0;image=data:image/png,iVBORw0KGgoAAAANSUhEUgAAAlgAAAJYCAYAAAC+ZpjcAAAABGdBTUEAALGPC/xhBQAAAAlwSFlzAAAOwgAADsIBFShKgAAAABh0RVh0U29mdHdhcmUAcGFpbnQubmV0IDQuMS40E0BoxAAAKw1JREFUeF7t3UF260aaNFAvp3fS7VM9rX38S7Dr9LC25bV4GfUTlPSMR4ckEiTByMQd3MnXtqsVIsFgZgL65T//+Q8AAA8UhwAAbBeHAABsF4cAAGwXhwAAbBeHAABsF4cAAGwXhwAAbBeHAABsF4cAAGwXhwAAbBeHAABsF4cAAGwXhwAAbBeHAABsF4cAAGwXhwAAbBeHAABsF4cAAGwXhwAAbBeHAABsF4cAAGwXhwAAbBeHAABsF4cAAGwXhwAAbBeHAABsF4cAAGwXhwAAbBeHAABsF4cAAGwXhwAAbBeHAABsF4cAAGwXhwAAbBeHAABsF4cAAGwXhwAAbBeHAABsF4cAAGwXhwAAbBeHAABsF4cAAGwXhwAAbBeHzf77//0vAHAwqRM0i8NmKXQAYG6pEzSLw2YpdABgbqkTNIvDZil0AGBuqRM0i8NmKXQAYG6pEzSLw2YpdABgbqkTNIvDZil0AGBuqRM0i8NmKXQAYG6pEzSLw2YpdABgbqkTNIvDZil0AGBuqRM0i8NmKXQAYG6pEzSLw2Yp9Ca//OP//itJ/ywAcJ3UCZrFYbMU+p7OhenXf/3zl19/+/fJH7/8z2//uc3vf57/vfO/f/rvKF8A8K3UCZrFYbMU+rO9F6pTmTqVo1ia7rQqXOl/HwCOLnWCZnHYLIX+DD9WqVIheqrzCte/rWwBwF9SJ2gWh81S6I90LlbPWqm61Xlly6oWAKRO0CwOm6XQH+FttaqkWF1StAA4uNQJmsVhsxT6PapWrL6zFC1bhwAcUOoEzeKwWQp9i7e7AZeD66HIVHs7o5V+JgCYVeoEzeKwWQr9VkOtWn3GahYAB5I6QbM4bJZCv8Wy+hMLy5CW1SxnswCYX+oEzeKwWQr9GuNuCV7BliEAk0udoFkcNkuhf+dcrkbfEvyOkgXAxFInaBaHzVLoXzlEufrw629/pAwAYHSpEzSLw2Yp9M8cqlx9ULIAmFDqBM3isFkKPTlkufqgZAEwmdQJmsVhsxT6pUOXqw/OZAEwkdQJmsVhsxT6pWUFJ5aOo/EIBwAmkTpBszhslkJfW1ZuYtk4qn94GCkA40udoFkcNkuhf3h7QnsoGYf2+58pKwAYSeoEzeKwWQr9w+HPXX3GoXcABpc6QbM4bJZCX9ga/IbzWAAMLHWCZnHYLIX+dtdgKBX8xSoWAANLnaBZHDZLobtr8Eoe3QDAoFInaBaHzS4Dd7D9Fg68AzCm1AmaxWGzy8CtXt3IKhYAA0qdoFkcNluHbfVqC6tYAIwndYJmcdhsHbbVq43cUQjAYFInaBaHzT6CdufgHdxRCMBgUidoFofNPoJezhLF8sB1/AkdAAaSOkGzOGz2EbSntt/JYXcABpI6QbM4bLaEbHvwERx2B2AcqRM0i8NmS8i2Bx/ENiEAg0idoFkcNltCdvfgg7ibEIBBpE7QLA6bLSHHssDt3E0IwCBSJ2gWh82cv3ok57AAGEPqBM3isJmntz9WehEDQJvUCZrFYTMH3B/MQXcABpA6QbM4bOaA+4MpWAAMIHWCZnHYTMF6MHcSAjCA1AmaxWEzT3B/MAULgAGkTtAsDpspWA+mYAEwgNQJmsVhs1gS2E7BAmAAqRM0i8NmsSSwnT/6DMAAUidoFofNYklgOytYAAwgdYJmcdjMGawHU7AAGEDqBM3isJmC9WAKFgADSJ2gWRw28xysB1OwABhA6gTN4rCZgvVgnuQOwABSJ2gWh82Wu95iUWAbBQuAAaRO0CwOmy1bWrEosEl6EQNAm9QJmsVhs2XFJRUFtvj9z/QiBoA2qRM0i8NmS8i5LHCzX3/74/IFDACNUidoFofNlpAddH8QdxACMIjUCZrFYbMlZAfdH8QBdwAGkTpBszhstoTsoPsjOH8FwDhSJ2gWh80+gvZE9zv5I88ADCR1gmZx2OwjaNuEd7I9CMBAUidoFofNPoL2uIY7uHsQgMGkTtAsDputw3Y34Ua2BwEYTOoEzeKw2Tpsh923cLgdgPGkTtAsDptdBu6w+42sXgEwoNQJmsVhs8vArWLd5jI/ABhB6gTN4rBZCt0q1pWsXgEwqNQJmsVhsxS6VaxrOHsFwLhSJ2gWh81S6At3FH7D3x0EYGCpEzSLw2Yp9IXnYn3Bc68AGFzqBM3isFkK/YOtwuT3Pz21HYDRpU7QLA6bpdDXloPcuWgclK1BACaQOkGzOGyWQr/kPNY7dw0CMInUCZrFYbMU+qW381gHf3SDc1cATCR1gmZx2CyFnhz60LtyBcBkUidoFofNUuifOeShd+UKgAmlTtAsDpul0L9yqJK1nD1zxyAAE0qdoFkcNkuhf+cQZ7KsXAEwsdQJmsVhsxT6NaYuWe4WBGByqRM0i8NmKfRbnLfRUkkZlXIFwAGkTtAsDpul0G81x7ksT2gH4DhSJ2gWh81S6FuctwxHXc2yagXAwaRO0CwOm6XQ7/G2mjXI2Sx3CQJwUKkTNIvDZin0e72vZhX/DcNTAfQ3BQE4sNQJmsVhsxT6I70VrZIVrWXFSrECgNgJmsVhsxT6M5y3Dl91RmspeYoVAPyQOkGzOGyWQn+mH9uHTy1byxag1SoA+EzqBM3isFkKfU/vK1vvhWvrVuJHoTr9dxxaB4BvpU7QLA6bpdBf7bzKdYX07wIA30udoFkcNkuhAwBzS52gWRw2S6EDAHNLnaBZHDZLoQMAc0udoFkcNkuhAwBzS52gWRw2S6EDAHNLnaBZHDZLoQMAc0udoFkcNkuhA6+THkny9rw4uNPHa+ni9ZVeh8wvdYJmcdgshQ483o8Pt7Pzw3XfHrD74yG7JX+zk4N6fw1+vCZ/vEb/Kmfpdc24UidoFofNUujAdn8VqfcCpTgxlR8l7K18KV7DSp2gWRw2S6ED1/mpTClSHNqqeCldQ0idoFkcNkuhA9nPK1PpQwb4YbXSld5PvFbqBM3isFkKHXjztkKlUMFDWOGqkjpBszhslkKHI7PlB3s4byla3Xqh1AmaxWGzFDocjVIFL6Zs7S51gmZx2CyFDkegVEEjK1t7SZ2gWRw2S6HDrH6cqVKqYADvZcuZradInaBZHDZLocNs3lerHFSHUZ0PyFvVeqTUCZrFYbMUOsziXKysVsFE3la10vud26RO0CwOm6XQYWS2AeEgbB/eJXWCZnHYLIUOI/qrWIULMTCvZftQ0bpZ6gTN4rBZCh1GolgBZ4rWTVInaBaHzVLoMALFCohsHV4ldYJmcdgshQ7tFCvgW4rWl1InaBaHzVLo0OqtWDm8DlzLXYefSZ2gWRw2S6FDG49bAO6zFC3P0VpLnaBZHDZLoUOL93NWHhAKPIaD8D+kTtAsDpul0KHB23ZguEAC3Mu2YewEzeKwWQodXsmqFbCPY28bpk7QLA6bpdDhVaxaAbs76GpW6gTN4rBZCh32dl61cogdeJnjrWalTtAsDpul0GFPVq2AGgdazUqdoFkcNkuhwx6ctQIqHeROw9QJmsVhsxQ6PNvbc63ChQ2gxeRbhqkTNIvDZil0eCZbgsAwJt4yTJ2gWRw2S6HDM9gSBIY06ZZh6gTN4rBZCh0e7W1L0F2CwKjmu8swdYJmcdgshQ6P5LwVMI2JtgxTJ2gWh81S6PAozlsB05mkZKVO0CwOm6XQ4RGUK2Bav/72R7rujSR1gmZx2CyFDvdaLj7xogQwi8FLVuoEzeKwWQod7qFcAYcx8B2GqRM0i8NmKXTY4vwYBncKAodzuu4NWLJSJ2gWh81S6HAr5Qo4tvFKVuoEzeKwWQodbuEZVwDvBnpWVuoEzeKwWQodruUZVwAXBilZqRM0i8NmKXS4xtu2YLi4ABzdACUrdYJmcdgshQ7fceYK4BvlZ7JSJ2gWh81S6PAV5QrgSsUlK3WCZnHYLIUOn1GuAG7Re3dh6gTN4rBZCh0+4yGiALfqLFmpEzSLw2YpdEiUK4CNCv+sTuoEzeKwWQodLilXAHcqK1mpEzSLw2YpdFg7XRT+HS8WANymqGSlTtAsDpul0OGDcgXwYKfrarre7i11gmZx2CyFDgtPaQd4koKSlTpBszhslkKHt8cxhIsCAI/x4qe9p07QLA6bpdA5Ns+6AtjDax/fkDpBszhslkLn2JZDmPliAMBDvfDQe+oEzeKwWQqd43KoHWBnLzqPlTpBszhslkLnmBxqB3iRF5zHSp2gWRw2S6FzPM5dAbzS/uexUidoFofNUugcj3NXAC+283ms1AmaxWGzFDrHYmsQoMSO57FSJ2gWh81S6ByH510BlNlpqzB1gmZx2CyFznHYGgRo8/uf6Xr9aKkTNIvDZil0jmFZis5vbs6W8vnm31d4+2fdKAA8wum6kq7bj5Q6QbM4bJZCZ362BtdOpehckv71z7M7l+fP2S7O/7338hX/dwG+8OStwtQJmsVhsxQ68zv2h/6qUD35Avbhp8JllQu4xuk6na4nj5I6QbM4bJZCZ27nD/r0Zp7de6lKmeztrXApW8A3TteJdA15hNQJmsVhsxQ68zp/sB/pQ/18NqqjVH3mfWXLNiIQnK7XT1ppT52gWRw2S6Ezr7dVk/QmnswAxerS+6qWogX87EmrWKkTNIvDZil05vS2ehXevDNZCsqTvu3t5b1oucMT+MsTrmupEzSLw2YpdOY09+rIcnB9rBWr71jRAn44XQvSdeIeqRM0i8NmKXTmcz7nk960w1uK1X5/WuIV3n53DsPD4T34S2TqBM3isFkKnflM+QE9wXbgtWwbAst1PF0ftkqdoFkcNkuhM5cpV68mX7X6zLwrkcBVHnjtS52gWRw2S6Ezl7lWr04/y0FWrT7jbBYc2eNWsVInaBaHzVLozGOqbaUnHPIc2VS/W+B6D1rFSp2gWRw2S6Ezj2lWr5SrSMmCI3rMKlbqBM3isFkKnTlM8+H7oG9rs1Ky4IAecF1MnaBZHDZLoTOHKVavlKurOPwOx5OuBbdInaBZHDZLoTO+KT5wlaubKFlwMHdeI1MnaBaHzVLojG/41SvlapMlt5gnMKH7zmKlTtAsDpul0Bnb8CsZytVdlCw4kNP1Pl0HrpE6QbM4bJZCZ2ynD9hxn5HkbsGHULLgKLavYqVO0CwOm6XQGdf5IZTxTTgCDxF9pKGLNnC9jatYqRM0i8NmKXTGNfTKhXL1UG9le5LnoAGf27jynzpBszhslkJnXPHNNwLnrp7CnYVwEBu+oKZO0CwOm6XQGdOwq1fOXT3V0KuawHU2fElNnaBZHDZLoTOmpajEN147W4NPZ6sQZnf7YffUCZrFYbMUOuN5O2+T3nTlbA3uwlYhHMCNh91TJ2gWh81S6IxnzG2gx/zBUq4z7AoncJ0bj1ukTtAsDpul0BlPfLO1u+MBedxu2FVO4Eq3fWlNnaBZHDZLoTOWIbd/HGx/iTFXOoGr3fDFNXWCZnHYLIXOWIb80HSw/SWsYsHkbvjymjpBszhslkJnLPFN1szq1UtZxYK5pfd9kjpBszhslkJnHGNuDzp79UpWsWByV15jUydoFofNUuiMY1kNim+wVlavKgz3ugGud+V1NnWCZnHYLIXOOIZ7gKTVqwpDrnwCV0vv+0upEzSLw2YpdMYw5Iekw+01PN0dJnbFl9nUCZrFYbMUOmMY7rCy7cEqw71+gOud3t/pfb+WOkGzOGyWQmcMS2GJb6xWtgerOOwOM/v+oaOpEzSLw2YpdPqN+OGYfg5eyzYhTOybIxmpEzSLw2YpdPoNd/7K9mAl24QwsW+2CVMnaBaHzVLo9Bvug9H2YKUhb5QArvPNF9vUCZrFYbMUOv2G29px92Ct+PsCJvD1OazUCZrFYbMUOt3GO3912194Z1/Lt9z8ewOG98WX29QJmsVhsxQ63Zy/4pGG224GrvfF8YzUCZrFYbMUOt3GO3/1/fNYeB3nsGBiX1x/UydoFofNUuh0W1aE4huplQPu1RQsmNnnRzRSJ2gWh81S6HTLb6JiDrhXG+9MH3CL9L5fpE7QLA6bpdDpNeSHoYJVzwNHYWKf7CKkTtAsDpul0Ok13naOOwhHMNy2M3A9Bes1Uuj0Gu6Au4I1BAULJvbJQffUCZrFYbMUOr3GO+DuEQ0jULBgYp9ch1MnaBaHzVLo9BrurIyCNYTT78mzsGBi6X2fOkGzOGyWQqdXeuNUU7CGoGDB5MLNRqkTNIvDZpeB02vIOwgVrCEoWDA5BWt/l4HTa8gHQn5yuJIuChZMLtxJmDpBszhsdhk4vYb8ELSCNQQFCyYXvuymTtAsDptdBk4vBYtnWX5P8fcHzEHB2t9l4PQa80PQc7BGoGDB5MKX3dQJmsVhs8vA6aVg8SwKFszu79fi1AmaxWGzy8DpNdwzsN6ln4Uuo762gOtdvu9TJ2gWh80uA6dXesMMwR97rhd/b8BULt/3qRM0i8Nml4HTK71hhvDJHxqlw5DPVwNud/FlN3WCZnHYbB02vYb+EFSwqg35fDXgdgrWvtZh02vsguVho82W30/8vQFzufiymzpBszhstg6bXkOvMoTbg+mhYMFBKFj7WodNr9G3cdLPRAd3EMJBKFj7WodNr9EL1uUbmw4OuMOBXBzXSJ2gWRw2W4dNr/ELlnNYjYZ/XQHXU7D2tQ6bXsOfk3EOq9Lye4m/L2A+Cta+1mHTa/iCtbi4RZjXc/4KDkTB2tc6bHpNUbCcw6piexAORsHa1zpses1RsGwTNll+H/H3BMxJwdrXOmx6TVGwFrYJa8TfDzAvBWtf67DpNU3BuniD8xq2B+GAFKx9rcOm1zQF639+/zP9fOzL4XY4IAVrX+uw6TVPwTqxivVSVq/goBSsfa3DptdUBcsq1kudXksOt8MRKVj7WodNr7kK1olHNryE1Ss4MAVrX+uw6TVdwbKK9RJWr+DAFKx9rcOm13wF6+Tizc5zWb2Cg1Ow9rUOm15TFqzlTjbPxdqNOwfh4BSsfa3DptecBevE0913Me3rB7iegrWvddj0mvoD0oH3p1pWCWPuwLEoWPtah02vuVcgbBU+0+m142A7oGDtbR02veYuWCe2Cp9i+tcNcD0Fa1/rsOl1iA/Kizc/93HXIPATBWtf67DpdZiVCOexHsK5K+BvFKx9rcOm12EKlvNYD+GRDMDfKFj7WodNr+MUrIWSdY/Ta8WhduDvFKx9rcOm17EK1olD75soV8CnFKx9rcOm1+EK1kLJuolyBXxJwdrXOmx6HbJgLZSsqyhXwLcUrH2tw6bXYQvWmTNZX1GugKsoWPtah02vYxeshZJ16fwoBuUKuJaCta912PRSsBankuU5WWfncuVRDMAtFKx9rcOml4K1cnGROBqvBWATBWtf67Dp5UP1wrI1drAtQ1uCwF0UrH2tw6aXgvWJg2wZvv1dQVuCwB0UrH2tw6aXgvWFiVezrFoBD6Ng7WsdNr0UrCssGU1UtPzOgYdSsPa1DptePmxvMHjRevtd2w4EHkzB2tc6bHopWBsMVLTetwL9joHnUbD2tQ6bXj5877CcYSo9DH8+vO6MFbAHBWtf67DppWA9yJLji8vWX6tVtgGBHSlY+1qHTS8F6wnOK1unXJ+8jfhWqD5WqpQq4EUUrH2tw6aXgvVsp+LzUbjOToXoxuL1V5E6l6nlv6NQAT0UrH2tw6bX+QM7vWHYyVKU3r0VsffypEABg1Cw9rUOm14KFgB3UbD2tQ6bXgoWAHdRsPa1DpteChYAd1Gw9rUOm14KFgB3UbD2tQ6bXgoWAHdRsPa1DpteChYAd1Gw9rUOm14KFgB3UbD2tQ6bXgoWAHdRsPa1DpteChYAd1Gw9rUOm14KFgB3UbD2tQ6bXgoWAHdRsPa1DpteChYAd1Gw9rUOm14KFgB3UbD2tQ6bXgoWAHdRsPa1DpteChYAd1Gw9rUOm14KFgB3UbD2tQ6bXgoWAHdRsPa1DpteChYAd1Gw9rUOm14KFgB3UbD2tQ6bXgoWAHdRsPa1DpteChYAd1Gw9rUOm14KFgB3UbD2tQ6bXgoWAHdRsPa1DpteChaQ/f7n2a+//RF9/N/P0r/PYShY+1qHTa/ljRHfMMDEfhSnf7/51z9/+cf//dciXSeu9fHfOP/3fvy3P8pY+v+DKZx+z+vXQeoEzeKw2Tpsep0vgOkNA0ziXKZ+lKh0HdjD38qX0jUPBWtf67DppWDBbDoK1TVWhcsq18gUrH2tw6aXggUTOG/39Req7/xcuMLPSScFa1/rsOmlYMGgPs5QDV6qPvNWtpbrk5WtegrWvtZh00vBgpG8b/9NWqo+o2yVU7D2tQ6bXgoWDOB9CzC9h4/GFmIhBWtf67DppWBBsaVIHGy16lqKVhEFa1/rsOmlYEGh5X2pWF3lfftQ0XolBWtf67DppWBBEcVqM0XrhRSsfa3DppeCBQVsBT6MrcMXULD2tQ6bXgoWvNJyV6DD68/wdm1z1+EuFKx9rcOml4IFL3LxocTjvW8busY9m4K1r3XY9HLxgZ3ZDtydbcMnU7D2tQ6bXgoW7Ojig4h9ud49iYK1r3XY9HLBgT38/qdVqw7n1Sxnsx5LwdrXOmx6KVjwZL/+9kd67/E6HunwYArWvtZh00vBgidyh2A1178HUbD2tQ6bXi4w8Ay2BEdhy/ABFKx9rcOml4IFD2ZLcDjnLUMlazsFa1/rsOmlYMEDKVfDci7rDgrWvtZh00vBgge5+JBhTErWBgrWvtZh00vBggdQrqbiungjBWtf67Dp5UICd3Kn4JRcG2+gYO1rHTa9XETgDsrV1Fwfr6Rg7WsdNr1cQGAj5eoQXCOvoGDtax02vVw8YIOLDxTm5jr5DQVrX+uw6eXCATdSrg7p9Ht3d+FnFKx9rcOml4IFN1CuDk3J+oSCta912PRSsOBKHiLKiSe+BwrWvtZh00vBgmv8/md6/3A8/qxOoGDtax02vRQs+I4/3MzP3v5AdHqtHJSCta912PRSsOAbHsdA4Nq5omDtax02vVwk4AsXHxywdnp9OPS+ULD2tQ6bXgoWfMKhdr7hPNY7BWtf67DppWBB4twV13Ee60TB2tc6bHopWBA4d8UNDn8dVbD2tQ6bXgoWXLA1yAbL6ya+no5AwdrXOmx6KViwZmuQbQ69Vahg7WsdNr0ULFi5+KCAWxz2eqpg7WsdNr0ULPjgae3c57B3FSpY+1qHTS8FC97ZGuQBDrlVqGDtax02vRQsOLn4gIB7nF5PxzrwrmDtax02vRQscLCdx3rbKkyvtUkpWPtah00vBYvDs3rFE5xeV8dZxVKw9rUOm14KFkeX3hdwr0OtYilY+1qHTS8Fi0OzesUTnV5fx1jFUrD2tQ6bXgoWh+bsFU90mFUsBWtf67DppWBxWFav2MHpdTb/KpaCta912PRSsDgsq1fs4BCrWArWvtZh00vB4pCsXrGj0+tt7lUsBWtf67DppWBxSFav2NH0T3dXsPa1DpteChaH8+tvf6T3AjzT1H+jUMHa1zpseilYHM7FhwHsYeprrYK1r3XY9FKwOBzbg7zA1NuECta+1mHTS8HiUGwP8kLTbhMqWPtah00vBYtD+fVf/0zvA9jDtNdbBWtf67DppWBxHL//md4DsJdpn4mlYO1rHTa9FCwO4+JDAF7h9Dqc75lYCta+1mHTS8HiMGwPUmDKa66Cta912PRSsDgMdw9SYMptQgVrX+uw6aVgcQjuHqRIfI2OTMHa1zpseilYHMLFBwC80lL44+t0VArWvtZh00vB4hCcv6LIdA8dVbD2tQ6bXgoWR5Be+/Aq053DUrD2tQ6bXgoW03P+ikJTPdVdwdrXOmx6KVhM7+LiDw2W4h9fryNSsPa1DpteChbTc/6KQlNdexWsfa3DppeCxfQ8/4pCUx10V7D2tQ6bXgoWs0uve3i1qQ66K1j7WodNLwWLufkDz/TKr9kBKVj7WodNLwWLqbmDkGLT3EmoYO1rHTa9FCymdnHhhybLF4D4uh2NgrWvddj0UrCYmjsIKTbN9VfB2tc6bHopWExNwaLYNHcSKlj7WodNLwWLqXlEA8UUrA5x2GwdNr0ULKamYFFMweoQh83WYdNLwWJm6TUPLaZ5FpaCta912PRSsJhZes1DCwWrQxw2W4dNLwWLmaXXPLRQsDrEYbN12PRSsJiXp7jTL792B6Ng7WsdNr0ULOalYNEvv3YHo2Dtax02vRQspuXP5DCA+NodjYK1r3XY9JrmNmG4pGAxgCn+HqGCta912PSygsW0FCwGEF+7o1Gw9rUOm15WsJiXM1j0y6/dwZw+R9Y/U+oEzeKw2TpseilYzEvBol9+7Q7GCta+1mHTS8FiZuk1Dy3meQ6WFaxdrcOml4LFzNJrHlooWB3isNk6bHpN8waHIL3mocU019/Tz7H+uVInaBaHzdZh00vBYmoXF35oMs0OgoK1r3XYdItvGJiBgkUxBatDHDZbh023+IaBGVycDYEmsxSsy58rdYJmcdjsMnB6TfEkYUgULIrN8aDnvz8OJXWCZnHY7DJwei1PvM5vHBjcxfN5oMkU197wFxNSJ2gWh80uA6fXHN+iIPDncig2yd8hVLD2dhk4vRQs5uVp7vTKr9nBhFXi1AmaxWGzy8DpNc2dLBCk1zy82jSPyFGw9ncZOL0ULKbmUQ0Umua6G24kSZ2gWRw2uwycXtN8k4LEnYQUmuZoRvgCkzpBszhsdhk43eIbB2YQtjDg1U6vyynu3k4/W+oEzeKwWQqdXrO82eFv3ElIoTmeP5hvIkmdoFkcNkuh02ua5WoI0mseXmWiA+7xy0vqBM3isFkKnV4KFlNzDosi01xvP9l+T52gWRw2S6HTy52ETM05LIosKz/xdTqaT764pE7QLA6bpdDp5U5CpuYcFkXmOH918skjUFInaBaHzVLodJvmTQ/JJx8GsKeZvsymn2+ROkGzOGyWQqfbNMvWkDiHRYFluzq+Pkfzxapw6gTN4rBZCp1uzmExNeewKDDNF9kv3k+pEzSLw2YpdLo5h8Xc/OFnXmuqa+wXK8KpEzSLw2YpdPrFNxLMwjYhLzTN9uBJ+vk+pE7QLA6bpdDpN83yNSTuJuSFprmR6Jv3UeoEzeKwWQqdfjN9w4LI3YS8wFzbg1+fZ0ydoFkcNkuh089Bd6Znm5AXmOrL6zfvodQJmsVhsxQ6Y4hvKJiGw+7sb6bnDKafby11gmZx2CyFzhiW/fX0poJp2CZkR1PtDFxxjjF1gmZx2CyFzhhsEzK9b86QwCNN9aX1ivdO6gTN4rBZCp0xeB4Wh2AVix1Mdz294n2TOkGzOGyWQmcctgmZnlUsdjDXtfS684upEzSLw2YpdMaxfPjkNxhMxCoWTzTd6tWVX0pSJ2gWh81S6IxjugsDJFaxeKK5Vq9OrvxCkjpBszhslkJnLNNdHCBIr32413xfUq9/vEnqBM3isFkKnbHYJuQQrGLxBNN9Qb3hfZI6QbM4bJZCZyy2CTmG3/+8dusDrjHltfOG90jqBM3isFkKnfHYJuQQrGLxQPNdN2/76wepEzSLw2YpdMazfPDkNxxMxt8o5AGmfFDzjV9AUidoFofNUuiMKb7hYDa/fv8nQOArb1uD8/zNwR9u3EJPnaBZHDZLoTMmq1gchq1C7jDltXLDF4/UCZrFYbMUOmPytwk5Dgfe2Wba6+SGrfPUCZrFYbMUOuOactkbEluFbLC8buLraWi3HW7/kDpBszhslkJnXFMufcNnHHjnBtNeHzdumadO0CwOm6XQGVt8A8KUbBVynamPUGx8D6RO0CwOm6XQGZtVLA7FViHfmPauwcXG1atF6gTN4rBZCp2xvV1MwhsRZnXHhwzzW0p4fN3M4I4V3NQJmsVhsxQ647OKxeE4j0Uw9bXwztXb1AmaxWGzFDrjs4rFId3xbZ75TH3uanHnl4rUCZrFYbMUOnOYelkcEuexeDf1uavFA17rqRM0i8NmKXTmYBWLQ1KyOJn+C+YDtsRTJ2gWh81S6MzDKhaH5ND7oc1frh7zJSJ1gmZx2CyFzjysYnFYStYhHeJL5YNu6EidoFkcNkuhM5dDXHAgUbIOZfl9x9fBTB60erVInaBZHDZLoTMXq1gcmsc3HMIhytXigXfKpk7QLA6bpdCZz2EuPpAoWVM7zPXtgatXi9QJmsVhsxQ687GKxeEpWVM61JfHB65eLVInaBaHzVLozMkqFod3eg+k9wZjOtQ17Qmv3dQJmsVhsxQ685r6wXtwDSVrCqff44Fu3vn9z5TBvVInaBaHzVLozGvZJslvYDiQB59lYT/n4w5HuzP6SdvbqRM0i8NmKXTmdriLEyRK1nDezpIebBX+ia/T1AmaxWGzFDpzc+AdPpw+rB98cJjneFt9P+ARhye+PlMnaBaHzVLozM9WIay4w7DaL0e9QefJ5wVTJ2gWh81S6ByDrUJYsWVY55DnrT7s8HpMnaBZHDZLoXMMtgrhki3DFofdEvyww+swdYJmcdgshc5xLEvQ8c0NR2bL8KUOf13a6VEiqRM0i8NmKXSO5bBL8PCV5X1hNWtXh94S/LDD1uCH1AmaxWGzFDrH8rZVeOClePjKTqsJR/ZerKymL3Ys9akTNIvDZil0jsddhfCV0xcQ24ZPcfizVms7v8ZSJ2gWh81S6ByTb5DwDduGD3MuVo4n/GXHrcEPqRM0i8NmKXSOyVYhXGn5MqJobfK+HahY/eR03X3B6yl1gmZx2CyFznG9lax0AQD+RtG6mmL1hRdtP6dO0CwOm6XQOba3MxHhIgBktg4/ZSvwGy8qV4vUCZrFYbMUOpy/maeLAfC5pUi88AOziWJ1hVM+Kbu9pE7QLA6bpdBh4eIIWy13HR5v+/B9G/D05cxZzm+9uFwtUidoFofNUuiwOF8sXSjhPudVrXnLllK1xWsOtV9KnaBZHDZLocMHJQse6Fy2/vXP0cvWW6myBbhZye8/dYJmcdgshQ5rbyUrXCSAO5y+uCwrPwMUrp8LlS9cdznlmDJ+hdQJmsVhsxQ6XDpfXNPFAniQjsJ1LlN/FSpbf49UVK4WqRM0i8NmKXRIlCzY27l0vZ3hemD5+luJemN16pnKytUidYJmcdgshQ6fOV+I08UDeJGlFP0oYtnHPxP/fZ7udN1M19NXS52gWRw2S6HDV5aLRbyIAPCz0nK1SJ2gWRw2S6HDd5QsgG/8+vpnXX0ldYJmcdgshQ7XWC4e8aICcHTl5WqROkGzOGyWQodrKVkAFwYoV4vUCZrFYbMUOtxCyQJ4N0i5WqRO0CwOm6XQ4Vani4ozWcCxDVSuFqkTNIvDZil02ELJAg6r+G7Bz6RO0CwOm6XQYSsPIwUOZ8BytUidoFkcNkuhwz2ULOAwCp/Qfq3UCZrFYbMUOtzrrWR5cjQwsYHL1SJ1gmZx2CyFDo9w/ltnShYwndN17QF/E/LVUidoFofNUujwKEoWMJc5ytUidYJmcdgshQ6Ptty+nC9WAINYrmOTlKtF6gTN4rBZCh2ewWMcgGENeqfgV1InaBaHzVLo8CwOvwPDGfww+2dSJ2gWh81S6PBM53NZtgyBevOct0pSJ2gWh81S6LAHW4ZArcH+7M0WqRM0i8NmKXTYiy1DoMvpejTpluCl1AmaxWGzFDrsyZYhUGGyuwS/kzpBszhslkKHV3hbzQoXPYBnm/Auwe+kTtAsDpul0OFVrGYBuzrYqtVa6gTN4rBZCh1ezdks4LmOc9bqM6kTNIvDZil0aPC+muVOQ+CxDrxqtZY6QbM4bJZChybn1SzbhsDdrFqtpU7QLA6bpdChkW1DYBvFKkmdoFkcNkuhQzPbhsDVDnh34LVSJ2gWh81S6NDO+SzgS8v1wTmrL6VO0CwOm6XQYRSKFvATB9ivljpBszhslkKH0ShacHCK1c1SJ2gWh81S6DAqRQsOxlbgZqkTNIvDZil0mMFb0XLXIcxnuStQsbpX6gTN4rBZCh1m4jlaMInlfexxCw+TOkGzOGyWQocZ/bV9aFULhmK16ilSJ2gWh81S6DA7q1pQzmrV06VO0CwOm6XQ4Sh+rGopW/B651JltWovqRM0i8NmKXQ4ImULXkCpepnUCZrFYbMUOhzdW9n62EZ0Zgse53wH4Hn7T6l6rdQJmsVhsxQ68LP3smV1C7b4WKVypqpK6gTN4rBZCh342s/biVa44C8fK1QKVbvUCZrFYbMUOnCb1Zai0sWB/FymbPmNJXWCZnHYLIUOPMZb6fpRvJQvBrQuUYrUTFInaBaHzVLowPOdV71+rHz9VMI+LB9q8Cwfr7HVa+79tfj+2kyvW+aROkGzOGyWQgcA5pY6QbM4bJZCBwDmljpBszhslkIHAOaWOkGzOGyWQgcA5pY6QbM4bJZCBwDmljpBszhslkIHAOaWOkGzOGyWQgcA5pY6QbM4bJZCBwDmljpBszhslkIHAOaWOkGzOGyWQgcA5pY6QbM4bJZCBwDmljpBszgEAGC7OAQAYLs4BABguzgEAGC7OAQAYLs4BABguzgEAGC7OAQAYLs4BABguzgEAGC7OAQAYLs4BABguzgEAGC7OAQAYLs4BABguzgEAGC7OAQAYLs4BABguzgEAGC7OAQAYLs4BABguzgEAGC7OAQAYLs4BABguzgEAGC7OAQAYLs4BABguzgEAGC7OAQAYLs4BABguzgEAGC7OAQAYLs4BABguzgEAGC7OAQAYLs4BABguzgEAGC7OAQAYLs4BABguzgEAGC7OAQAYLs4BABguzgEAGC7OAQAYKv//PL/AW0zgri2TzECAAAAAElFTkSuQmCC;" vertex="1" parent="1">
          <mxGeometry x="65" y="30" width="110" height="110" as="geometry" />
        </mxCell>
        <mxCell id="BnPgklOCdzFr4PZ2rw3d-9" value="" style="endArrow=classic;html=1;rounded=0;exitX=0.5;exitY=1;exitDx=0;exitDy=0;entryX=0.5;entryY=0;entryDx=0;entryDy=0;" edge="1" parent="1" source="BnPgklOCdzFr4PZ2rw3d-8" target="BnPgklOCdzFr4PZ2rw3d-2">
          <mxGeometry width="50" height="50" relative="1" as="geometry">
            <mxPoint x="390" y="410" as="sourcePoint" />
            <mxPoint x="440" y="360" as="targetPoint" />
          </mxGeometry>
        </mxCell>
        <mxCell id="BnPgklOCdzFr4PZ2rw3d-11" value="" style="endArrow=classic;html=1;rounded=0;entryX=0.5;entryY=1;entryDx=0;entryDy=0;" edge="1" parent="1" target="BnPgklOCdzFr4PZ2rw3d-2">
          <mxGeometry width="50" height="50" relative="1" as="geometry">
            <mxPoint x="120" y="410" as="sourcePoint" />
            <mxPoint x="440" y="360" as="targetPoint" />
          </mxGeometry>
        </mxCell>
        <mxCell id="BnPgklOCdzFr4PZ2rw3d-12" value="&lt;span style=&quot;color: rgb(31, 35, 40); font-family: -apple-system, BlinkMacSystemFont, &amp;quot;Segoe UI&amp;quot;, &amp;quot;Noto Sans&amp;quot;, Helvetica, Arial, sans-serif, &amp;quot;Apple Color Emoji&amp;quot;, &amp;quot;Segoe UI Emoji&amp;quot;; font-size: 16px; text-align: left; background-color: rgb(255, 255, 255);&quot;&gt;CodeFlowTrace&amp;nbsp;&lt;br&gt;&lt;/span&gt;(Maersk Nuget package)" style="text;html=1;align=center;verticalAlign=middle;whiteSpace=wrap;rounded=0;" vertex="1" parent="1">
          <mxGeometry x="130" y="120" width="160" height="50" as="geometry" />
        </mxCell>
        <mxCell id="BnPgklOCdzFr4PZ2rw3d-13" value="&lt;span style=&quot;color: rgb(31, 35, 40); font-family: -apple-system, BlinkMacSystemFont, &amp;quot;Segoe UI&amp;quot;, &amp;quot;Noto Sans&amp;quot;, Helvetica, Arial, sans-serif, &amp;quot;Apple Color Emoji&amp;quot;, &amp;quot;Segoe UI Emoji&amp;quot;; font-size: 16px; text-align: left; background-color: rgb(255, 255, 255);&quot;&gt;UmlGenerator&lt;/span&gt;&lt;span style=&quot;color: rgb(31, 35, 40); font-family: -apple-system, BlinkMacSystemFont, &amp;quot;Segoe UI&amp;quot;, &amp;quot;Noto Sans&amp;quot;, Helvetica, Arial, sans-serif, &amp;quot;Apple Color Emoji&amp;quot;, &amp;quot;Segoe UI Emoji&amp;quot;; font-size: 16px; text-align: left; background-color: rgb(255, 255, 255);&quot;&gt;&amp;nbsp;&lt;br&gt;&lt;/span&gt;(Maersk Nuget package)" style="text;html=1;align=center;verticalAlign=middle;whiteSpace=wrap;rounded=0;" vertex="1" parent="1">
          <mxGeometry x="120" y="370" width="160" height="50" as="geometry" />
        </mxCell>
        <mxCell id="BnPgklOCdzFr4PZ2rw3d-14" value="" style="shape=image;verticalLabelPosition=bottom;labelBackgroundColor=default;verticalAlign=top;aspect=fixed;imageAspect=0;image=data:image/png,iVBORw0KGgoAAAANSUhEUgAAAjAAAAIwCAMAAACvL6FdAAAC/VBMVEX////+/v79/f38/Pz7+/v6+vr6+fn5+fn4+Pj39/f29vb19fX09PTz8/Py8vLx8fHw8PDw7+/v7u7u7u7t7e3s7Ozr6+vq6urp6eno6Ojn5+fm5ubm5eXl5OTk4+Pj4+Pi4uLh4eHg4ODf39/e3t7d3d3c3Nzc29vb2tra2dnZ2NjY2NjX19fW1tbV1dXU1NTT09PS0tLS0dHR0NDQz8/Pzs7Ozc3Nzc3MzMzLy8vKysrJycnIyMjIx8fHxsbGxcXFxMTEw8PDwsLCwsLBwcHAwMC/v7++vr69vb29vLy8u7u7urq6ubm5uLi4t7e3t7e2tra1tbW0tLSzs7OzsrKysbGxsLCwr6+vrq6ura2trKysq6urq6uqqqqpqampqKiop6enpqampaWlpKSko6OjoqKioaGhoKCgoKCfn5+fnp6enZ2dnJycm5ubmpqamZmZmJiYl5eXlpaWlZWVlZWVlJSUk5OTkpKSkZGRkJCQj4+Pjo6OjY2NjIyMi4uLioqKiYmJiIiIh4eHhoaGhYWFhISEg4ODgoKCgYGBgICBf3+Af39/fn5+fX19fHx8e3t7enp6eXl5eHh4d3d3dnZ3dXV2dHR1dHR0c3NzcnJycXFxcHBwb29vbm5ubW1tbGxta2tsampraWlqaWlpaGhoZ2dnZmZmZWVlZGRkY2NjYmJjYWFiYGBhX19gXl5fXV1eXV1dXFxcW1tbWlpaWVlZWFhZV1dYVlZXVVVWVFRVU1NUUlJTUlJSUVFRUFBQT09PTk5OTU1OTExNS0tMSkpLSUlKSEhJR0dIR0dHRkZGRUVFREREQ0NEQkJDQUFCQEBBPz9APj4/PT0+PDw9PDw8Ozs7Ojo6OTk6ODg5Nzc4NjY3NTU2NDQ1MzM0MjIzMTEyMTExMDAwLy8wLi4vLS0uLCwtKyssKiorKSkqKCgpJycoJiYnJiYmJSUmJCQlIyMkIiIjISEiICAhHx8gHh4fHR0eHBwdGxscGxscGhobGRkaGBgZFxcYFhYXFRUPkb7oAAAZD0lEQVR4Ae3BCZyN9f4H8M+ZzdhFJco6lSXJrSxRKSqVrVxLyla3q66rVREVKq23KEL3XnFtqVRuQpaQK6VlMuIm2UYXNZbBmBlmzjmf1/+VRv+WGXPOeb7Pc37P83zfbyillFJKKaWUUkoppZRSSimllFJKKaWUUkoppZRSSimllFJKKaWUUkoppZRSSimllFJKKaWUUkoppZRSSimllFJKKaWUUkoppZRSSimllFJKKaWUUkoppZRSSimllFJKKaWUUkopHwlUbXRFr0EjnvvHm0tWp2/auffgkfyCULjwaO6h/bu+zfh4+bxp40bd07dDsxpJUH5W7vwb7n5uzprvChih8N70f48felPLalC+Eqh7/YNTPtzFmGV/9tqoHuclQ3le+dZ/nfLpEYoo2Pj6Qx1Og/Ko5IsHz9wUorT/vTuiXUUob6nS6bnV+bRNaP0rt5wF5Q2Vbxj3ZYj22/pq/zOh3C2x9aiPCumcjWOvKwflUlVvfi2bjjv6/l/rQLlOvSEfBhkv68dcCOUi5w7/gnG27bmWASg3qDV0HY2Q+XRTKMOdMnBlmOb46qHaUMZKuHp2Pg0TWnJTKpSJao/OpJEOTGgGZZjAte8Gaa41fctAmeOUoVtpuH3P1oUyQ4OJuXSB4Nw2UPHXfkGYbvFp70SoeEr442d0lW1/SYWKl+TbNtF1vh9eGSoekgfuoCtlj6wM5bTkgTvoWtkjK0M5KaH/DrragYfKQjmm6wa63u47k6AccekaesK3PaDsV/9NesZHLaHsVfm5Y/SQ8KzaUPYJ/CmLHpM3MhXKJhevpQdt6wJlh6p/D9GbFtSHEndLFj0r76EkKFFpS+hp61tByUkcmkePC40vDyWk8Vr6wLZ2UBKShh+lL4QnVYSy7Oy19I3traEs6p9DHwmOSoSyoMoc+sxHdaFidlkmfefgzVCxSXosSD+aXhEqBvU/pk9tbQUVtS4H6VuF90BFJ2F0mH42syxUFKosoM+tqwcVsfO30Pf2d4CKUK8jVAyNCEBFIPFvVMe9XRGqVJWXURX5bz2oUtTeQPWzH1pAndSFu6l+Ibcr1Elcn0P1K6HBUCW6I0j1W88nQBUr8BRVMeamQhWjzGtUxVpzKtTvlFtCVYL/1oT6jYqrqEq0pQ7Ur5yyluokMs+G+oXTvqQ6qd2NoX5WYyNVKbKaQRWp/S1VqQ60gDoubQdVBA5fBgWgzk6qiBy5BApnfEsVoexm8L2qX1FFLKshfK7ip1RR+K4ufK3sh1RR2VIDPpayiCpKG6vBtxLnUkXt80rwq39SxeDDMvCnEVQxmQlf6hWmis1o+NAl+VSx6gffqZ9FFbNjbeEzp2yisuBAA/hKygoqS7acCj/5F5VFH6XCPx6gsmwqfKNtIZV1d8Anan5PJeBoc/hC8kdUIjJPhR+8RCVkSQK8rzeVmDHwvCZHqMSEu8DjKm2mEnTwbHjbbCpRnyfDy26hEvYUPKzOIcZs38gelzZt3LR154FPzFlfQPfLXDjunu5XXHhekxYd7/6IMQtdDs9KWMXYPYtfSLl48Jzv6Vr5y0dfUw2/8AfGbkdleNVwWtAYv9Vk6IdBus+WcVen4rcyGLuZ8KiLChi7z1Cc025fFqKbfPtYUxTnflrQG55UbhMtuB8lqDFkA13iwMvNUYIzw4xddi140SRaED4LJWs5LZ/mW31LKkr2IS1YkQDvuZZWrMFJVR26k0bLn9IUJ3UXrRgCz6m4k1YMRSmSen1BY+0bdRpKUZtW5J0Nr5lESxqgdNesoJG+u7c8SpdOK1YG4C1tw7RiKyJy+XIa57tBZRCJMbTkL/CU1G9pyUREqO1HNMr3d5VBZC6jJYfPgpc8QWu6IWKd1tMYBx8uj0glHaEl78BDGh6jNdURuYTbdtMIheNPRRQ+oDWd4R0rac1mRKX8qDzG37sNEJXRtGZHOXhFf1r0KqJU+w3G2aZrEaVraNGz8IjKP9CiPyFqV2xgVML7N3289O1/TXjq4QfvG3znn/r3vW3goHuGPPTY2H++vvA/GbsKGJWcB5IRrYpBWlPQEN4wllY1QfSSh+WydHvT5730wE3tzz8jCSdX5dxLbxz09OzVO4Ms3dyzEIOvaNFieEKjQlpUkIxY1HmXJfth1T+Hdm1UDlFLrN3uzrELtgRZou3XIyav0aqu8IKltOorxKjn9/y93E9eGdSmCixKadz76UW7+XuhF8ojNiNo1dYycL+utGw2YnXKq/ylo2te6NUgAXJOv3r4v3/gL61vjlh1oWXD4XpJm2jZCMSuw3f8yc5Zd7dIgR3q9X7xsyCPKxydjJjVo2WHToPb/ZXW9YQFlaeQu2bdngZbVer0fHqI6y+EBQkFtOxluFylLFrXCpZcci4cUbVDCizZTssKG8DdnqKAmvCHD2ndPLhajVxaV5AAf5hJAa3gZi9TwA74xNMUsBwuVreAAr6ETwylhKvgXtMoYQV84g5KWAvXahCihHfgE70oojPcagZFTINPXEsRn8Glzg5SxN/hE1dSxnVwp6mUMRk+0ZYyPoYr1SukjJfhE5dRyNVwo0kUMh4+0YZClsOFTs+nkL/DJ66klOZwn8cpZSZ8ohOlvAnXqXCAUt6BT/SilNDZcJt7KWYpfOI2ipkEl0nYSjHr4BPDKCb3FLhLV8rZA58YSzlD4S7LKSeYAH+YTTmZiXCT8ympJvxhFQX9EW7yd0q6DP6wi4JWwkUqHaGkAfCFsmFKagj3GERRT8IXmlLUWLhHBkW9B1/oQ1EHUuEWl1DWd/CF5yirH9xiCoWdBj/4gLJWwSXKH6awLvCBxBwKS4M79KO0p+EDzSjtcbjDckpbCx+4j9IyA3CDumFKC1aB9y2guPZwg4cpryc8LzWX4qbCDTZQ3kx4XifKO1gG5mtKGxwsA6+bRhvcCPM9RTvcCI9LPUgbvAHzbacdZsHjOtMOeRVguua0w8Hz4HHJS2mHXjDdU7RB4VXwvErraIPXYbpvaIM/wwdq/o/yclJhtia0wWT4QvOjlNcZZhtJeR+nwB/6U95UmO0zisuqCb8YT3FZCTDZGWGK6wjfKJNOcS1hstsobhx85NwcSnsMJnuL0taXgZ8MoLQvYLCUwxRWeBH85T0KC9eAudpS2pPwmZrZFNYP5nqCwr4uA7+5lcKmw1yfUNhV8J3AasraDWNVCVLWm/ChC4KUdR5MdSNl5daCH42nrHtgqhcp6wn4UrVDFPUOTPUlRe2rBH96mKL2BmCmyiGKug8+VX4PRTWCmTpS1O4y8Kt7KOoOmOkZinoAvlVuLyXNhJlWUdL+CvCvhylpG4yUlEtJo+BjVXIo6TSY6A+UVHAG/GwiJXWEie6kpNfga00o6TGYaColtYa/raSgxTDRVxS0ET7Xh4L2wUCphRQ0DD5X/ggF1YJ5Lqag0FnwuxkU1Bnm+TMFLYPvdaCgR2GeiRQ0CL6XfJBy3oJ5VlNOuCbUbMr5FuY5QDmfQKEX5QTLwDRnUNDDUKgcpJymME07CmoFBaylnF4wzWDKOZQIBTxFOaNhmomU828oANdQzuswzRLKGQIFoEKIYr6AabZSzmVQP9pAMQdhmKQgxQTLQf1oKuVUg1nOppx1UMcNopwWMEsHypkGddyllNMbZhlIOUOhjqtGOcNglscppzPUT7IoZjzMMo1y0qB+sopi5sEsH1BMMBHqJ9Mo5nOYZTPF7IQq8jjF/ACzHKGY1VBFBlJMOAkmKU85r0EVuZ5yzoBJ6lHOWKgiF1JOU5ikFeU8ClWkHuVcBZN0oZzBUEVOoZybYZLbKedmqCIJIYq5ByZ5kHI6QZ1wmGJGwSRPUM41UCfso5gXYJIJlHMF1Al7KGYKTDKTclpDnZBJMW/BJO9RTguoE7ZSzDKYZCXlXAJ1QibFfAyTfEo5l0OdsIti1sEkGyinPdQJWRTzDUyylXKuhTohm2J2wiR7KKcz1AlHKGYvTJJNOd2gTjhGMYdhksOU0wvqhDDF5MIkuZRzK1SRVMrJh0mOUs69UEWqU04BTBKknFFQRRpQThAmCVPOWKgiLSgnDJMEKedVqCJXU04hTJJHOW9BFelOOXkwySHKWQZV5E+Ucwgm2Uc5GVBFHqKcfTDJHsrZC1XkJcrZA5PspJxwCtRP5lLOTphkKwXVgfrJx5SzBSbZREGXQP0kk3K+hkkyKKg71HGBAsrJgEn+Q0F3Qx13OgWtgknmU9CLUMe1oqD5MMlMCloEdVw/CpoBk0ygoK1Qxz1BQRNgkjEUFEyB+tEbFDQGJnmQkhpB/WgdBT0IkwykpK5QAAK5FDQQJulFScOhANSnpJ4wSXtKmgsFoDsltYNJGlHSNigAT1FSI5ikMkVVhQIWU1JlGCWXkq6CAvZRUC7MsoWShkKhDiVtgVlWUdJbUOhJSatgljmUtC8ANZGS5sAsYynqfKivKekFmOUBirobvncGRT0As3SjqLfhe70oqhvM0pSi9gXgd5MpqinMUp6yWsLvdlBUORhmN0U9CZ9rRlG7YJoPKWojfG4URX0I00yhrDT4WzpFTYFphlPW/fC12pQ1HKbpQVkfwdfupaweME0TCkuDn6VTVhOYJukYZY2Gj51PWUeTYJwvKWt7AP71N8pKh3mmUVhb+FbiHsqaBvPcT2HT4FtdKOw+mKc9hR09HX61jMLawTynUtpI+NT5lHYqDLSbwvakwJ+mUNgumGgBpfWFL52WT2ELYKJHKC0jAD96nNIegYnaU1x3+FC1w5TWHiaqGKK0DQnwn2coLVQRRsqguN7wndNzKW0dzDSJ4jYlwm/GUtwkmKkf5Q2GzzQooLh+MNM5lHfgVPjL+5R3DgyVRXmvwFduoLwsmOp1ygtdCB9J3UZ5c2CqP9MGnyfBP56lDW6HqerRDiPhG61DtEFdGGsrbVDQDD5RbjNtsAXmmkw7ZKTAH16iHSbDXN1pi7Hwha5h2qE7zFUtRFt0hw+kHaQdQlVhsM9pi8PnwvPKrqMtPoPJRtEeX5WH102jPUbBZM1ok/mJ8LZHaJNmMFombTIRntaXNsmE2V6iXR6Eh7UroE1egtmuol3CA+BZLQ/RLu1htuRs2iXUBx7V4iDtkp0Mw82ibYK94UkXH6RtZsF0PWmfYB94UJts2qcHTFcuh/YJD4Hn3JBH++SUg/Fm0k7PB+AtdwZpoxkw3/W01Wtl4SGJz9JW18F8SXtpq/Q68IyqS2irrCS4wMu017528Ihm22mvl+EGbWiz4KOJ8ILB+bRZG7hBYAfttrouXK/6QtptewCuMIa2O9QHLndjFm03Bu5QP0z7LawLFzvzHdovXB8usZQOOHJ/IlwqYfBhOmAJ3KIHHZHRHq501To6ogfcIiWLzpjfEK7T6D0644dkuMazdEjhK7XhKmlTC+mQZ+Ee59AxxybXhmukTS2kU8LnwEVW0DnHXm0CV2j1RpDOWQ436cGIbXzlr9c2q9fwiv5PLslhjJZcG4DhknqsoaO6w00SdzAioVca4P8lXjRkLWOzeejpMFjaU3vorO2JcJX7GYnCjvittEd3MiYFczsmw0iV+n8QptPug7tUOswIzEExkvttYGz2Tb48AMOkdpubT+cdrgSXGcsIPI9iBW7ayRjtmnxdGRijWv+3jzAuxsJt6gVZunSUoOyofMbq8Nw/10H8JbR4ZFWQcRKsB9eZywh0Q0nO+4IWfDOhxxmIn4Smg9/czziaC/dpzQjsrYuSJI8J05LNU25vmgjHVb5qxPxsxllruNAKRmBzDZSoyyFalbt63K0XpsIhp1/9wMxNYcbfCrhRO0ZiSxpK1HALJQT/O/eJPhdXhn0CZ145aPyyPTTFlXCl1YzEvitQourplJP95bxx997QrAoEnXJh9wcnLvrmKI2yGu7UgREpHBZASSqtorDQbRDUp5AGugYutZaRWXomSlLhI4oK9YeoGwppnLVwq06M0MGHUlCCSp9T0iAI6x2maTrCtdIZqf82Rwmqb6WciRA3jIb5Au7VkRErfBAlODebUlYkQd4smuV6uNhKRm5uWRTvuhBlZJ8FG1T4hiZZCTdrySh8ejqKN5Iy+sEWFwdpkJZwtbcYhU1noVgJyynhXdjkaZpjLtytQSGjsL0WilXrIK07lgablM2kKQrPhctNZjQ2V0exbqd1Y2Gbm2iKyXC7GrmMxrqKKE5gNa3Krgr7fE4z5NaA641iVBYkojhNC2nRY7BRJ5phFNyv7A5GZRyK9Tdac6w67LSOJthRFh7QjdHpheKUz6QlU2GrW2mCbvCEpYxKTkMUp12YVlwAW5XZy/hbAm9oVMCopCejOC/Qgi9hsxcZdwWN4BHPMzpPoDip6xi7YbDZhYy7v8ErKu1hVIItUZy0bMasLuy2iXG2pxI84xZGZ30SitMpzBh9Ats9zTi7GR6ykNEZgmLdxxiNhO1aMb4Wwktq5zAqOWehWOMYm8tgu4RsxlNObXjKXYzODBQrYRpjkZcC+81jPA2GtySsYVRCF6BYCdMYg2VwwD2MozUJ8JjGxxiVRShewgRGbxQc0Irxc6wxPGcUo3MlSjAszGh1gwNSCxk3I+E9yemMykqUpHM2o9QATljHeElPhgc1zmdULkNJ0j5nVI4mwgmzGCf5jeFJdzMq76FESaMKGIUMOOJRxsnd8KbAEkYj3BglO+8DRmxnPziiJ+NjSQAedeZ+RmMSTqZrBiMRev+PiXBGC8bF/prwrJ6MxpHKOJlAt1UszfqHa8ExZzIuesDDpjMag1GKC8buYYkKV484F05KDDIOpsPLKmxiFDJQqsRLn/y0gL+T858XOleE076n876uAE9rkscoXIRIlGtzx4vzvthx8Ggw94etGe9PHtazUQLi4Ws6LrcJPG4Ao/AqXOVjOm4APO9VRu7YmXCTRXTaq/C+sl8xchPhJvPosPVl4QMNchixwgZwkTfprJwG8IUejNz7cJHZdFS4O3ziMUauN9xjOh31GPwi8A4jtq8GXGM6nfR2AL5RYT0jtjgBbjGdDlpfAT5Sby8jNhJuMZ3O2VsXvnJFISMVvgEuMZ2OKWgLn7mDETvSHO4wg44ZCN95khHb2xCuMINOGQMfms6I7W4IN5hJh0yHHyUvZcT2NIMLzKQzlibDlyqtY8QOtYf5ZtER6yrCp2pmMmKFd8F4s+mEzJrwrcb7GbkZFWG42XTAvkbwsYsPMXJbWsFsr9F+hy6Cr7U5wsiFxlWAyebQdkfawOfa5zMKO/sEYK7Xabf89vC9TgWMxmcdYKw3aLOCjlDoEWRUPr0hAWZ6k/YK9oAC0DfI6OwYXh0mmktbBftAHderkFEKLr61CozzFu1U2AuqyI3HGLXC/zx8cRJKU7bVX/7xCBzyDm107Aaon3U8yljkrnr25j+UQ7GqXdJ/zJsbgySnwyHzaJ/866F+4epcxiqcufqNscMG9b3xmms6XHvdH2+9+5HnZ6/cnMufzYBD/k3b5F4F9Sttc2iXGXDIfNol53Ko32ieRZvMhEPeo02ymkP9zjnbaI+ZcMhC2mPrOVDFqJ5OW8yCQxbRFunVoYpVcSnt8Bocsph2WFoRqgQps2mDOXDIUtpgVjJUiQLPUN4bcMgyynsmAHUyA45R2ptwyHJKO9YfqhRtfqCwt+CQlRT2QxuoUtXJoKy34ZBVlJVRByoCFeZR1Dw4ZDVFzasAFZGEJ8MU9C4csoaCwmMCUJHqkk05C+CQTygnuwtUFOqnU8wiOORTikmvDxWV1H9QyhI45HNK+UcqVLQG5FHGMjgknTLy+kPFoOnXFLECDsmgiK+bQsWk3CRKWAWHfEUJk8pBxapzFq1bDYdspHVZnaEsOGMRLfsYDvmali2sDmXNXfm06FM45BtalH8XlGWN19KaL+CQLbRmbWMoAQlD8mhFBhyyjVbkDUmAkpG2ghZsgEMyacGKNCgxgTsPM2ZfwyHfMWaH7wxASao1n7HaDIfsYqzm14KS1mUbY7MNDvmesdnWBcoGqaPzGYtMOCSLscgfXRbKHvXnMwb/g0P2MQbz60PZp9NWRu17OCSbUdvaGcpWKfftZ5T2wiGHGKX996VA2a3KM/mMygE4JIdRyX+mCpQTav0rxCgcgkNyGYXQv2pBOeWC9xm5I3BIPiP3/gVQTrpkMSOVD4ccZaQWt4ZyWqtFjMwxOOQYI/N+K6h4aLmQkciDQ/IYiYUtoeKlxVshlmonHLKTpQq93QIqntLGH2Ep1sIha1mK3AlpUPFWdcRuntQEOGQCT2r3iKpQJkgZsI4ncTUccjVPImNACpQxWk3NYwk2BeCQwCaWIG/aJVBmqXL3RharCxzThcXaeM8pUAa6dEYef2ciHDSRv5M/8zIoU1UcsCzEX5mSAAclTuGvhD64tRKU0WoOSefPdveFw/ru5s++fOBMKBdo/Pji7YeDh76a3jMFjkvpNWPD4WDOjiVjzoNSSimllFJKKaWUUkoppZRSSimllFJKKaWUUkoppZRSSimllFJKKaWUUkoppZRSSimllFJKKaWUUkoppZRSSimllFJKKaWUUkoppZRSSimllFJKKaWUUkoppZRSSimllFJKKaXM8n+jbnMGMwU6SgAAAABJRU5ErkJggg==;" vertex="1" parent="1">
          <mxGeometry x="430" y="215" width="120" height="120" as="geometry" />
        </mxCell>
        <mxCell id="BnPgklOCdzFr4PZ2rw3d-16" value="" style="endArrow=classic;html=1;rounded=0;exitX=1;exitY=0.5;exitDx=0;exitDy=0;entryX=0;entryY=0.5;entryDx=0;entryDy=0;" edge="1" parent="1" source="BnPgklOCdzFr4PZ2rw3d-2" target="BnPgklOCdzFr4PZ2rw3d-14">
          <mxGeometry width="50" height="50" relative="1" as="geometry">
            <mxPoint x="390" y="410" as="sourcePoint" />
            <mxPoint x="440" y="360" as="targetPoint" />
          </mxGeometry>
        </mxCell>
        <mxCell id="BnPgklOCdzFr4PZ2rw3d-18" value="" style="endArrow=classic;html=1;rounded=0;exitX=1;exitY=0.5;exitDx=0;exitDy=0;entryX=-0.007;entryY=0.447;entryDx=0;entryDy=0;entryPerimeter=0;" edge="1" parent="1" source="BnPgklOCdzFr4PZ2rw3d-14" target="BnPgklOCdzFr4PZ2rw3d-19">
          <mxGeometry width="50" height="50" relative="1" as="geometry">
            <mxPoint x="390" y="410" as="sourcePoint" />
            <mxPoint x="617.96" y="274" as="targetPoint" />
          </mxGeometry>
        </mxCell>
        <mxCell id="BnPgklOCdzFr4PZ2rw3d-19" value="" style="shape=image;verticalLabelPosition=bottom;labelBackgroundColor=default;verticalAlign=top;aspect=fixed;imageAspect=0;image=data:image/png,iVBORw0KGgoAAAANSUhEUgAAAywAAAHSCAYAAAAOiU/dAAAKomlDQ1BpY2MAAEiJlZcHVFPZFobPvekhoSVEOqE36S2AlBBa6L2JSkgChBJiIKiIncERHAsqIljRQREFxwLIoCKi2AYBxa4TZBBQxsGCDZV3gUVw5q333np7rb3Ol519/rPPWffctS8AZEWOSJQJKwKQJcwVR/h50ePiE+i4IQABNUADjsCaw80RMcPCggBiM+Pf7f1dJBux2xaTWv/+/381JR4/hwsAFIZwMi+Hm4XwacRfcEXiXABQ+5G4/pJc0SS3I0wVIwUifH+SU6d5ZJKTpxgNpnKiIlgIUwHAkzgccSoAJDoSp+dxUxEdkifC1kKeQIiwCGH3rKxsHsInEDZBcpAYaVKfkfydTurfNJNlmhxOqoyn9zJleG9BjiiTs+z/PI7/bVmZkpk1jBAnpYn9I5BRGTmz+xnZgTIWJoeEzrCAN5U/xWkS/+gZ5uawEmaYx/EOlM3NDAma4RSBL1umk8uOmmF+jk/kDIuzI2RrpYhZzBnmiGfXlWREy+JpfLZMPz8tKnaG8wQxITOckxEZOJvDksXFkghZ/Xyhn9fsur6yvWflfLdfAVs2Nzctyl+2d85s/Xwhc1YzJ05WG4/v7TObEy3LF+V6ydYSZYbJ8vmZfrJ4Tl6kbG4u8kDOzg2TnWE6JyBshgELZINMxMWADoKQX94A5PKX5k5uhJUtWiYWpKbl0pnIDePT2UKu5Vy6rbWtPQCT93X6cXhLm7qHEO36bGwdEQA34cTERMtsLPAzAKd1ASBKZ2PGPQDII8/91a1ciThvOjZ1lzCACBQAFXkbaAN9YAIsgC3yVnAFnsAHBIBQEAXiwULABWkgC6l8CSgAa0ARKAFbwA5QAfaBg+AIOA5OgkbQAi6CK+AG6AK94BGQggHwEoyC92AcgiAcRIYokBqkAxlC5pAtxIDcIR8oCIqA4qEkKBUSQhKoAFoHlUClUAV0AKqBfoHOQheha1A39ADqg4ahN9BnGAWTYCqsBRvBVjADZsKBcBS8AE6FF8P5cCG8CS6Hq+BjcAN8Eb4B98JS+CU8hgIoORQNpYuyQDFQLFQoKgGVghKjVqKKUWWoKlQdqhnVgbqNkqJGUJ/QWDQFTUdboF3R/uhoNBe9GL0SvRFdgT6CbkC3o2+j+9Cj6G8YMkYTY45xwbAxcZhUzBJMEaYMU405g7mM6cUMYN5jsVga1hjrhPXHxmPTscuxG7F7sPXYVmw3th87hsPh1HDmODdcKI6Dy8UV4XbhjuEu4HpwA7iPeDm8Dt4W74tPwAvxa/Fl+KP48/ge/CB+nKBIMCS4EEIJPMIywmbCIUIz4RZhgDBOVCIaE92IUcR04hpiObGOeJn4mPhWTk5OT85ZLlxOILdarlzuhNxVuT65TyRlkhmJRUokSUibSIdJraQHpLdkMtmI7ElOIOeSN5FryJfIT8kf5SnylvJseZ78KvlK+Qb5HvlXCgQFQwWmwkKFfIUyhVMKtxRGFAmKRoosRY7iSsVKxbOK9xTHlChKNkqhSllKG5WOKl1TGlLGKRsp+yjzlAuVDypfUu6noCj6FBaFS1lHOUS5TBmgYqnGVDY1nVpCPU7tpI6qKKvYq8SoLFWpVDmnIqWhaEY0Ni2Ttpl2knaX9nmO1hzmHP6cDXPq5vTM+aCqoeqpylctVq1X7VX9rEZX81HLUNuq1qj2RB2tbqYerr5Efa/6ZfURDaqGqwZXo1jjpMZDTVjTTDNCc7nmQc2bmmNa2lp+WiKtXVqXtEa0adqe2una27XPaw/rUHTcdQQ623Uu6Lygq9CZ9Ex6Ob2dPqqrqeuvK9E9oNupO65nrBett1avXu+JPlGfoZ+iv12/TX/UQMcg2KDAoNbgoSHBkGGYZrjTsMPwg5GxUazReqNGoyFjVWO2cb5xrfFjE7KJh8likyqTO6ZYU4Zphuke0y4z2MzBLM2s0uyWOWzuaC4w32PePRcz13mucG7V3HsWJAumRZ5FrUWfJc0yyHKtZaPlKysDqwSrrVYdVt+sHawzrQ9ZP7JRtgmwWWvTbPPG1syWa1tpe8eObOdrt8quye61vbk9336v/X0HikOww3qHNoevjk6OYsc6x2EnA6ckp91O9xhURhhjI+OqM8bZy3mVc4vzJxdHl1yXky5/uVq4ZrgedR2aZzyPP+/QvH43PTeO2wE3qTvdPcl9v7vUQ9eD41Hl8cxT35PnWe05yDRlpjOPMV95WXuJvc54fWC5sFawWr1R3n7exd6dPso+0T4VPk999XxTfWt9R/0c/Jb7tfpj/AP9t/rfY2uxuewa9miAU8CKgPZAUmBkYEXgsyCzIHFQczAcHBC8LfhxiGGIMKQxFISyQ7eFPgkzDlsc9ms4NjwsvDL8eYRNREFERyQlclHk0cj3UV5Rm6MeRZtES6LbYhRiEmNqYj7EeseWxkrjrOJWxN2IV48XxDcl4BJiEqoTxub7zN8xfyDRIbEo8e4C4wVLF1xbqL4wc+G5RQqLOItOJWGSYpOOJn3hhHKqOGPJ7OTdyaNcFncn9yXPk7edN8x345fyB1PcUkpThlLdUrelDqd5pJWljQhYggrB63T/9H3pHzJCMw5nTGTGZtZn4bOSss4KlYUZwvZs7eyl2d0ic1GRSLrYZfGOxaPiQHF1DpSzIKcpl4o0RjclJpIfJH157nmVeR+XxCw5tVRpqXDpzWVmyzYsG8z3zf95OXo5d3lbgW7BmoK+FcwVB1ZCK5NXtq3SX1W4amC13+oja4hrMtb8ttZ6benad+ti1zUXahWuLuz/we+H2iL5InHRvfWu6/f9iP5R8GPnBrsNuzZ8K+YVXy+xLikr+bKRu/H6TzY/lf80sSllU+dmx817t2C3CLfc3eqx9UipUml+af+24G0N2+nbi7e/27Fox7Uy+7J9O4k7JTul5UHlTbsMdm3Z9aUiraK30quyfrfm7g27P+zh7enZ67m3bp/WvpJ9n/cL9t8/4Hegocqoquwg9mDeweeHYg51/Mz4uaZavbqk+uth4WHpkYgj7TVONTVHNY9uroVrJbXDxxKPdR33Pt5UZ1F3oJ5WX3ICnJCcePFL0i93TwaebDvFOFV32vD07jOUM8UNUMOyhtHGtEZpU3xT99mAs23Nrs1nfrX89XCLbkvlOZVzm88Tzxeen7iQf2GsVdQ6cjH1Yn/borZHl+Iu3WkPb++8HHj56hXfK5c6mB0Xrrpdbbnmcu3sdcb1xhuONxpuOtw885vDb2c6HTsbbjndaupy7mruntd9vsej5+Jt79tX7rDv3OgN6e2+G333/r3Ee9L7vPtDDzIfvH6Y93D80erHmMfFTxSflD3VfFr1u+nv9VJH6bk+776bzyKfPern9r/8I+ePLwOFz8nPywZ1BmuGbIdahn2Hu17MfzHwUvRyfKToT6U/d78yeXX6L8+/bo7GjQ68Fr+eeLPxrdrbw+/s37WNhY09fZ/1fvxD8Ue1j0c+MT51fI79PDi+5AvuS/lX06/N3wK/PZ7ImpgQccScqVYAhTickgLAm8MAkOMBoHQh/cP86X56yqDpb4ApAv+Jp3vuKXMEoA4ZJtsiVisAJxA3Wo1oIz7ZEkV5AtjOTuYzve9Unz5pWOSLZb/7JPWq8laDf9h0D/9d3f8cwaSqPfjn+C/EdAbc+ssilwAAACBjSFJNAAB6JgAAgIQAAPoAAACA6AAAdTAAAOpgAAA6mAAAF3CculE8AAAABmJLR0QA/wD/AP+gvaeTAAAACXBIWXMAABYlAAAWJQFJUiTwAAAAB3RJTUUH6AIbAzIq/5aTTwAADEx6VFh0UmF3IHByb2ZpbGUgdHlwZSBpY2MAAFiFrZlpruQ4DoT/+xRzBC2UKB5HG4G5/wXmkzPzLZVZDTQwfq1yepFEkcFgyH39d87rPxw5i1zhHCuGGjVoqDOkeN+qq24VTSWJSkqhtGKlpxB0Nx7zUjRaDSGfFq4aa9asQWIJJcgMz+PP6386nFmvx+iPY+W0viz7l8f1716PsUotmmt+XJbn/ZquKud2XY8HQx7n3Vlw0KSP69yfHVJWxXPhdX/KcwK5cOftxseD1V4Pqv68v+fX/Z/vy5el90BCZB6mSnw8amEShKip6n0908uioBX79WnRy6A7aptVW92PB/p6sAnEql6fHcZroPYc6HE5XyvI7ap/s0j/bmn9YOl1P9D3B7+i8300wf6Du8qQat8P/mX4/378/wfCtVPLn0tJ9flj1qZJWnmuPT7OcbU6qsso6Xp7sGuSLf523+oXan7db0SllfI+ECks+Qm4n/elRhEZHyaeTDzfB6rVpIq9W6QiVuTtPrGVUvLbQKDZwc/70io+yhLf7oP/H87+MVCpo5QPHZhb7MVPP97vtQFdfR+IpZUq++1+ZoL87qMzEJbuD0vTUlIp776o+5DuxyXXT+Ff+gNLv5ZmLO3dUjlLk/Yh/ISZKHy0KH6yVHNpn8KPneDl49LKhwkOW0r6sLST19/V49dAU/Q9RWCCShDekX3XMvnQgZkpUO+A7Liil3ccwWKYXwHkKUnnfAB3Hh8rzzO5B9PDV02/8u+SXJ3ZDEQbBNdOhOVZ24hqEGi45rQTpJdTPu3u/FV5XwOdfzyf0vtVKCles//54jlaDncyZ8q538eYr/d+EZsMv18c8hQAfb/NfI6k63FjPxm6WbygjQKa6683v5nnwOAM7qd2PYXDPoXyVBQahTWnIySwKI9Hz4MdodPJ/BOdQqdCp8OatR0OfTj+1CLF8Q2rGwY0+ttZmjGAMYAxQKdTp1On06DToNOg04yHbR8F7lT3RZ/F75Mxm997XLfVCBPawN3nT2kLl2ea0Rx0FBrPWUbMjbZZKfeARCS0sdh1ayUqG42HykPMjsQnYnI0XsLa2JmgM+jgPDhjYZycUWhxcd6RgTY/nA5EDKjQjmoT2gqJKpKS49sWEmSX4CNwT+MZkyflntKvIf1S2yEZLxLj1Blk0JkZE/5I+CKdIG1+ewknZXMY4eAuAxGEWchMQrm4+MfDqRq58pCoZN1oAq6NawbPgCkPrlEYeQHt/ZA52Y1gV9IgBzmAFEYVIAA5gQASn3ALJgsDSpvkSAcVPMNSQccIg8mON0rEQSyBKRE+KkSjIMmg9lBKC4W1F7BSwEjBqtJpg8SHXQpLLYS7EOX7jyXWRFpmyL9iSQV8tfZQdYC9GaqtULs/COBo550hghJOLiuQUCbXvKAAR3kBGMXZysxqPMTROnhAHimzqjf00ADATrYmBE0NDV9SW0NrXGNt61wPrhcM2ci8BhgN8BrAM5ZpzHRqvaGArPG78xuH2+Q3kxjv9xhDZ1kdy3rBos6SOnnTgUAnQh1f9DVD9xNo/pD9I1sYJYZROZNBg3fHONnDGccPB9kTdpypIyxzmGWiIwu8sMPsGuZJM5A7GXSdPwC65KRaDwt2XLy3QPya4GgtLvDHBg8b9G2ih0CFazxsG+RjDRu/7b1JSwvO8h2UO8zgoNrxlQ8Gctbt+6Q3XkqEQPLZ4hAKbDaSa3B/6ekZSeT7vygOja4Y24yx461pV4y7sTiN5FVMUmKqEsmdmHqOadJ2xlZaojEJAhUCoHUwPQtEUMjMekUh81A+aPoepQ1qy4IdNpPCDjFFihYFtkZqBmwxYhkrsqqTbUcnszmxWOu8Ym0e60hYyk3vUeEGlRipe1EhY+07gq2orrHBI01gGJ611mPrHtvit/frQTksyeqIZlDZALtrRTIs9tRjxzVdFTraEWjEjj+xO4484mCZgwHHSFccq8fDQEAgzsJZR5z4Z84ZJw5esNYii5ceDrNIqONisI3S31i3cck2ueIGUXtbdMLheUev/DaJPjz67unmUnxP4iVgDuggDbiOUMF/jTUze48XJuxEr5SSJgRWSo2f3VNai6LTE8SV4KqUTVKeKWU/ZOlJZLHdnUn6SLL6dbIrFV4ulUblLpPmVHAGpryno9TroO1GfGliSZUsYwBdk+q2Ust+sXECNh1DliTIJBmD4vhkthJsQvJgYC4JrZi6DdjYIZGURq6wsqXBeyDiShNqm9nSrAgFBpxL4cyZFn5ZWtNi5rXBJahBmCcMg8I1kTKJBULlPTklOzlLcYe5MnKsTtxC9q5BIgBlIXy4KA7OnvKxLdWckw14XzIv5gw3Z/Ur59FyJmSCsXLEl+0sq2XAnwsEXRBlZaZcfOWzv0DF5tp3rtvy0fB6aobNKysytkXJjWrT2sxtNtin3EEy9WyDhTt0xzBdJbNSCotnFpxHBZa957HbRUQ1I6nyZElz57yIMNmSwWmGYfJOZ4dLoyLBJNlTzM5zBxm+E9US5VXlEijykA+uBYWVlO5TQCj2UKmwPY2CRzGFdMd8ZjviL6N8kbOtCwl+OOOilKE9IeWyNpt6VHxFHvYhyEfBO6I6wB0ljoLVZAh5LA16JFmQhbi0I+QdDdmzSmcmDKGyT7l3HAw8MJv8E4Iqc3QBUsJbsoxYLPZoiICNiAcKp1Ze4mwM8KX4OoUewtZYYHaoHq6gFkIHhcwsgKAkJa0hdWitEEbqai84DIWfLux1oszWKrGhZENDqAssXCqltXZ2So42ZCugZJIeTQkEm67S5igGyRi7KRvtoh5o6XTrnealDLw2jMaOYWYaLDZXLQtrl7ayphWYqbAFLXusAuNTweNVqABILYwoQIvRqAZoeR51eBTDEi5NNisyCdcCJtOaKS1ygn52rdsAz7oo+yT5Pp88Fnu+VMnySl2vaoCYl8jsSnmubU82Wrma9Wp+gML2wRyJoHWIX3V0frhjqKLTHe3Kng2RsQaan5qy2dnvCRrwuCMUHEpHjVHnkS2b0ID3aOVSNAIBJp07hqAgM54g/0CoPD45TcIE2aDcFeecdWmF2Ks3ZQMMzDL1JV7MsbXxsqWu1pANG9qSqkQWkSMKwesgjyBWnY12igq7FVJIj3zdMOCe6VLYAQUj6huVJYqSaEdSNGpUi3NBIgGmg4BdoARtZCnlczWg3mST6/QpfVyoo+PddDaz7V6TeWPExh4WMtjNIG0zbPXdSMvWZ2+DwXFhGz7brBDG7FdbUNeiz3Jv+w7Obp4pm4ZuRrsh15AblBbUZ+zNKB+QdjdK+UkWg0vsiFFjDjt5UopbmXbnIfE1JJThTcMRxubX2sAwQIW4M/MJCJr1Baih+tH9MsqgsU9CjKktIEYVMgqf7b6By2Khw9zReBV5uyiropTWCrvTrLJ7oWm9OqwFh9ST5mRg66UzGVoFD3RAA8p2x6reKCRtSodgecMQM7N3ij4VpQ8tVx/bKOmzT6TgErQIxXxTOzZl/wAYi853DGRsQXX1gQwZcVGvhIo/IfqM7/u+WCJ5aqRyzKO0jj7DcLUBsYG6NrBmtJPfi+0MZdXoDEuPPgojbX4cmMVrTBtH8YyFtGUF8Dicxm4VWUfmICqRkmGjKKqiHKD44hQ9KgJEkhd7AWQ/dHvNIuxwDxyEbfVkxyFHkACQvGYbc1I/mMsQKG3ijAlZzDHqZKTJOiYFa0JnF4WjTlgB4arTWQC7mRUGsi1PFoMMzb7YLS3oflFucKNhB0Qke5WFt0pZdbVrKQPih/NVBLULNiuCmLgTrtV94HvUL7uQ2TryCxFslQo+F4pnOerAOzsbNse4kvvCfmeibwplbA2MzBvy2pSRLT7JQng+rH0+6kIXGwBsthWbpaOxgP4K1+6Qat+wJuwy8DfUuhG+e9lEJrS9h2yn8vlERxf2E7t4RC5Ed08Nj0RzKOlyoYBQd2BryHdtr3V5PUFDaTZeaqAOqeM21WEW7yj5oeqEk0RpONB8jX75luF7TThynY8UGu7v2PHH54TXFy5ouN4fGhzquu+scn9mpLY/P2mwvF8fvL+P+OObyc974c/7198evK5/fTj/NvK2rD/vnq9Nt0VHGIQ7n+ZzDc8P588P6K//11Aen47Qpzn/eX77DP3rE/3XzefHm3uL/ZwDvX92sT+X9vH49W3/uZ7n+eX0X9fXhxe+zM/fdv31+vofJr5Gib2/wYAAAAABb3JOVAHPoneaAACAAElEQVR4Xuz9d5Rd1Zkn/H/3STdUVirlLIQSAiwBIifZJGMwxjZOzWC3c3f7fWdmzZo1M2u83pk1v1k93fZ0Txvb7XZoG3scMMkGDJgocpZQAuUslULlG07avz9OPfueWwqlVKqrqu9nLUGFG8+9VfV8z97P3kprrUFERERERFSDrIEuQERERERENFQYWIiIiIiIqGYxsBARERERUc1iYCEiIiIioprFwEJERERERDWLgYWIiIiIiGoWAwsREREREdUsBhYiIiIiIqpZDCxERERERFSzGFiIiIiIiKhmMbAQEREREVHNYmAhIiIiIqKaxcBCREREREQ1i4GFiIiIiIhqFgMLERERERHVLAYWIiIiIiKqWQwsRERERERUsxhYiIiIiIioZjGwEBERERFRzWJgISIiIiKimsXAQkRERERENYuBhYiIiIiIahYDCxERERER1SwGFiIiIiIiqlkMLEREREREVLMYWIiIiIiIqGYxsBARERERUc1iYCEiIiIioprFwEJERERERDWLgYWIiIiIiGoWAwsREREREdUsBhYiIiIiIqpZDCxERERERFSzGFiIiIiIiKhmMbAQEREREVHNYmAhIiIiIqKaxcBCREREREQ1i4GFiIiIiIhqFgMLERERERHVLAYWIiIiIiKqWQwsRERERERUsxhYiIiIiIioZjGwEBERERFRzWJgISIiIiKimsXAQkRERERENYuBhYiIiIiIahYDCxERERER1SwGFiIiIiIiqlkMLEREREREVLMYWIiIiIiIqGYxsBARERERUc1iYCEiIiIioprFwEJERERERDWLgYWIiIiIiGoWAwsREREREdUsBhYiIiIiIqpZDCxERERERFSzGFiIiIiIiKhmMbAQEREREVHNYmAhIiIiIqKaxcBCREREREQ1i4GFiIiIiIhqFgMLERERERHVLAYWIiIiIiKqWQwsRERERERUsxhYiIiIiIioZjGwEBERERFRzWJgISIiIiKimsXAQkRERERENYuBhYiIiIiIahYDCxERERER1SwGFiIiIiIiqlkMLEREREREVLMYWIiIiIiIqGYxsBARERERUc1iYCEiIiIioprFwEJERERERDWLgYWIiIiIiGoWAwsREREREdUsBhYiIiIiIqpZDCxERERERFSzGFiIiIiIiKhmMbAQEREREVHNYmAhIiIiIqKaxcBCREREREQ1yxnoAkRERIYGNDS0Tv6l2badXERXvq+UgmUl58biOAYA87m5ydRtKaWgtUYcy3UVACCKIjgO/2QREY1ESvf/i0NERHQkGoA6+rfL5TKUUrBtG5ZlQaljXPgIJOAc7XMiIhqZGFiIiOiEaa0RBEHVqInjOFWjJ1prRFFkRk8cx+kbPYmPOEJjWRZs2zYhRW5bKcXgQkQ0gjGwEBHRcSmXyyaYHClA+L5vpoClp4X1DzLHK45jRFFkgksmkxngGkRENBxxQjARER0XGf2QsCIjKHGcBBPXrQST/iMpWmv4vl91OxJs5PJhGCKKIljKguu5ZmoZERGNbBxhISKiE5Ke6mVZlulXCcPQBJH+IzDpPzX9+1RkBEWa9uM4NmEmCAJEUQSlFLLZLIiIaORhYCEiouOiNaB1jDjWsO3qUBLHMZRSiOMYYRhWhRloINaxWeUr3b/Sf8RGa22CCwAEQQDbtqu+RkREIwunhBER0XFKQoZlKURRhN7eXuzbtw/bt2/Hvn37sHnzZrS1tWH37t3Ys2cPDh06hJ6eHvT29qJcLsP3/aqg4jgOPM8z/2bPno3m5mZMmTIFM2bMwIQJE9Da2oqpU6diwoQJyOfzJtz0/z8REQ1fHGEhIhpGZKSjsp9JZeQDqPSPyHSrOI5h23bVHidxHFf6TSwbnV2d2L17N1577TVs3boVW7ZswdatW7Fnzx50dHSgUCggCIIjPp4TJdPJpP/FcRzU1dWhvr4e06dPx+jRozFz5kwsXLgQ8+fPx7Rp09Dc3AzXdfv6aJL/l8s+LEshk8mYKWy2bSMMQ7MaWbq/xrZt87yVUnBd1xwneVxERDQ0GFiIiIYJKb6VSkZAgiCA4zimiJdf91EUAYBZ7SuOYxM6CoUC2trasHnzZqxatQpvv/02Vq9ejV27dsF1XURRVDVSkm6yP9U/J+mm/vTqYI7jwHEcxHFsppzJ11taWtDa2oopU6bg4x//OBYsWIBzzz0XdXV15nb7r1IWxzHK5TKiKIbj2HBdF5ZlmfCmtTbT2tJBjqGFiGhoMLAQEQ0T6RGV/vuh9Pb2wnVdZDIZRFFkCvJisYjt27djw4YNeP755/HGG29g7dq16OnpMdcFUDXaAFTvmSLh4lT/nKT7WYAjhyDHceF5SXAql8sAkqDjeZ5ZcnnChAn40Ic+hKuvvhpLly7FlClTkM1mEccxstms2Q9G7kuOh23bKBaLUEohn8+bxv84jmFb9jE3zSQiosHDwEJENIxIeJApTmEYwnEc2LaNUqmEcrmM9vZ2rF69Gi+88AJefvllfPDBB2hvbwcAEzzy+TwymQxKpRJ834dt20cNJumm+dMlvdpYenlkCUoAzIhLOnwAMKMlAJDNZjFt2jQsXrwYd955J2bOnInp06cjn88jDEPEcQzP88zx8jzPTCHTum+KWawR65iN/0REQ4SBhYhoGNFaQ0EBCqYgl96MN998Ey+88AJefPFFvPPOO+jo6IAsISz/4jiu2p1eRj0cxzG31//rEoh6e3vN90+GTDmT25DAIqMc6e+nm+7lOWSzWRQKBSil4Hmeeczp6V1TpkzB5ZdfjhtvvBFLly5Fa2srMpmMCWQyXU72gOk/6kNERGceAwsR0TCRHgHxfR8dHR3Ytm0bnn/+eTz44INYu3YtisUitNZmqWC5TroRPT264HmemX51KmHkeMh9SWgAqkdvJDzIIgEyZUs2nJRgI9dLhy4JVTKNzHEctLa24vLLL8enPvUpXHrppchkMsjn86bnR0gIVBaDCxHRUGBgISIaJqIoQqlUQltbG1555RU88MADeO6553Dw4EEz4hAEgdngURrKpdiXICMFu+/7JsxI07vo32uSvp2TdaSpZemRlEwmY8KJjLL0vz95rDLyIo9fKWX2dJFpX+VyGZZloaWlBfPmzcPtt9+Oq6++GjNmzDDTz+rr682oUyaTARERnXkMLERENSI9IiAjCscjDEMUCgWsXLkSDz74IP7whz9gy5Yt5vvpvpMjBY30qEV6tEKa6qXwP1qvytG+fjLSU7AkRMnX07cvU7aAysgSADPqcqTHKFPe5Hv9VzizbRuTJk3CRz/6UXz605/GwgUL4bjJlLdsNgsiIhoaDCxERDWiXC4jDENkMhn4vl+1JLEU7PKxBItyuYx33nkHv/rVr/Doo49iz549A90NHYFSyd4rruuiXC6jubkZH/7wh/GZz3wGS5YsQUNDg1mJTMKbNOoLGZWRwBXHMeIohrIUG/aJiE4BAwsRUY2QQJKesiV7jkhwkSZy3/fx7rvv4le/+hUef/xx7N27t2qkgU5MemQnm83C8zz09vaivr4el156KW6//XZcf/31GDduHLLZHABt+m1kGprcTnq0J45jhEEIy65choiITgwDCxFRjfB9H1EUIZfLAUgCTBRFZnTF932USiVs2bIFjz32GH73u99h3bp1ZopTeroTnRjHcczIlkyJS4eYuro6XHnllbj77rtx2WWXmREXx3FMcJHLS8iU5ZKJiOjUMLAQEdWI9JQv+TgIAtMwvn79ejz66KN44IEHsHbtWmitTYO5jL6kV9ii4yc9LrJMs4xiyVQxy7IQRRFGjRqF5cuX43Of+xyWLl1qlkSWEbBkpTUASP609u+XISKiE8fAQkRUQ9Irbfm+D9/3cejQIfzxj3/Ez372M6xbt84szdsff52fPMdx4HkeSqWSCS8AzGgJkEzLk6WRJ0+ejE984hP4xCc+gfnz5yOXy8FSFqAq4UdGyOT2j3cRBSIiqsbAQkRUI9I9KGEYolwu48UXX8QPf/hDrFixAj09PabhWwpiAFW72tPJkZ6h9L4z0lgPwBz3KIrMHjYAMGfOHNx11134+Mc/jhkzZpi9bNIN+OlGfCIiOnEMLERENSSKIhSLRWzZsgUPPfQQ7rvvPmzatMk0c6cbvIMgQBzHZonf9E70dGKk/yQdAuVzCRtRFJmelfQGlblcDh/+8IfxpS/9Jc4/fzFaW1sBJCNetmUDqnIfRER04hhYiIhOJ/mNeozaVOtk5/Sqy2ig7JfR3t6OV155BT/+8Y/x3HPPoVQqmSJZimrf9w/bqV5ul06OjITIyl5yvGXERD4HYEKMXBZIAs78+fPxhS98ATffdDOmTpuKbDZrRmX6j7Skg1D6YyIiOhwDCxHRaaI1qs68K6WgUJ1holgjDIO+URHbhIxSqYR169biwQcfwO9//3ts2LDB3E66iKba5DgObNtGS0sLbrzxRnz+85/HkiVLkPEyiHVspu3JaJgshyzTx9jjQkR0dAwsRESnmdbyT8NSCkrBjKYkoUYj7lsKNwgCFItFrFy1Cj//15/hoYcfQm9vr1mZyvd9AJU9PTjlq3bJiEqpVMIFF1yAb37zm/jIRz6C0aNHw3M9lP1ksYRMJgOtNeI4Rrlchm3byGQyDCxEREfBwEJEdBrFsUZ6rpdSyT+tAWggimPEcQQgmSp08OBBPP300/jxj3+MN954HeVyyfSpyP4eMv2LyxbXLgkbMq0siiJMmzYNd911F26//XbMmjULjY2N5vISVLPZrBlh8TzvaDdPRDSiMbAQEZ0mWmuEQQTbcWBZAGSkBTCjI0ldq9Db24sNGzbgd7/9Le7//f3YuWMnNDS0js0KU0Ia7hlWaptlWWY/FhkJy2QyuOqqq/DlL38ZV111FRobG/s2+AQsq7KQAjeYJCI6OgYWIqLTRHpYbNsCNBDrSkN1+ldtd1cX3njzTfzgBz/Ak08+iWKhANtx4Dg2fL9sriNBRYpaAAwtNUqpZFnk/lP3PM9DHMdYsGAB/uZv/gY33nAj6hvqzeaUlmXBcz0oi9PBiIiOhoGFiOg00jGgLCCOYRqrbVuZ3pWOjg48+eST+MH3v4833nyzbyqRhu/7SfHqufB93+ypIqFFltkNguDYD4CGhCyOIP0p5XIZuVwOcRybzShlFbFbb70VkyZNQjabBZDsuSObUhIR0eEYWIiITiMdJz0rUZxM77ItGxpAuVzGvn378Ogf/4jv3Xsvtm3dijCKEIYBlLKgFBBHMTRi0w8hvSuy3wrApYtrWXoFMNd1AcAEUcdxEMcxWltbcfvtt+Pzn/88Fi1aBNd1EQQBHMcx++sQEVE1BhYiohMkvzb7r+qUfF321ki+ZimgVPaxefNmPPDAA/jRj36EtrY2lEqlqn0/dBwDKulrcF23qsE+3dPCVcJql/SwxHGMIAjMiIm8fvJ+yefzuOGGG/DlL38ZixYtQkNDg1klTOvKHj3p6YRcQYyIRjIGFiKiEyAN1XEcm7PmgCw7rKGUhTAIYPftq1Eul7Flyxb84he/wE9/+lPs27fvWLeOyq4tNJxI4PA8D1pr2LaN66+/Hl/96lexbNkyNDQ0mNE06YcJw9D0MqUDDxHRSMPxZyKi46S1RhiGcBwXlmUjjiNzJj2ZDpRM6/KDAJm+qUFr167Bv/zLj/Hb3/4W3V1dA90FDVMSUmTkLJvN4o033jB78Vx77bXI5XJmVC29YaiEFiKikYqBhYjoBCRL0sbm4/TXoyiC47jwPA/FYhGbNm3CT378E/zrv/4rSqUS+09GuPS0Pq01Dh48iOeff95M+Vq2bBmam5th2w6iKDT7s0RRVLVSHBHRSMMpYUREJ0gKznSPgtYaURQDUOju7saqVatw77334uGHH4ZlWaZx/ti/cjklbLiSERP5WFZ/AwDHcXDJJZfgW9/6Fq677jpkMhlYloUwDM3oHUdZiGgk4wgLEdEJkJEUaaSWz2VZ2q6ubrz+2mv47ne/i+eefx62ZaFULpu+BC5LPHJJWLUsy/RC2baNOI7x2muv4Xvf+x4A4Oqrr0Z9fb3pd0kvukBENBIxsBARnYD0CmFSdMr/u7u68cKKF/Gdv/97vPTyy2bJWjlDbpYOoxFHpncBlf15JPDKEsjPP/+8eb9ce+218Dyvqo+FoYWIRioGFiKiE5BsBGkne6ZobZaxbW9vx6uvvobv/P3f4+VXXjbN00lxquDYLnyOroxYMqUrPSVQviYrg7mui5deegm5bA6O4+DCCy9ES0sLgwoRjXj8LUhEdAJkNCWMQvi+jyiKUC6X8d577+Ff//Vf8cKKF5Iz4kg2kLQslawEFQawbQuVPpUj/aPhSimFMAxNOInjGGEYmoZ7GalTSuGFFS/gH/7hH7By5UpEUWQ2pASqNw6VjwfujSIiOrtxhIWI6ASlp/GUSiVs3LgRv/3tb/Hggw9A67iv+R6Ig8hcJ4pCRJVPaYRJrygXRdFhH8toi1IKpVIJzz77LMaOHYtMJoMLL7wQmUzG7M0iAUb2aUlPNyMiGo74G46I6ATICItMDdu0aRO++93v4qGHHjL7bBCdjCAIYFkWXNdFGIZ48sknAQBf+9rXMG/ePGSzWXPZdOO+67pcQYyIhjVOCSMiOgGy43gURdixYwd+9rOf4Ve/+hV6e3u5AhidNKWUWRXMdV04joMDBw7gz3/+M373u99h3759fZuWOnAcx6wcJktrExENZwwsREQnQHYm7+rqwi9+8Qv88Ic/7NuDJWJzNJ209DLH6Y0i9+/fjwceeACPPPIIOjs74fu+uaysHMYeFiIa7vjXlYjoOEmhKD0G//zP/4xCoQAAZtSF6GSkVwuL49js7wPAjOS9/PLL6O7uRhRFiKLIvOdk1I+IaLhiYCEiOk5SIK5cuRI//OEPsXv3btMAzZ3I6VSkG+kdxzHTvWS/lvXr1+PnP/85NmzYYDYu5YaSRDRSsOmeiOg4xXGMnTt34t5778Xrr78OrbUpMGXDv/RqUETHS6Z4yapf8rGsBGZZFlasWIHW1la0trZi5syZ0Fqzh4WIRgQGFiKiFCkWAZglZGVkpbu7G/fffz+eeeYZ9Pb2mqKyXC4DwCmHlfQIjawClc/nMW7cOGQyGfi+jyAIEEURisUiCoWC6WkAKvtyyO2k+xpkFEjOzMv35Ounow9CHjOAw25L7rv/19Ifn+rxOxYZsZBpV+nej/TomDyG/o/NdV3kcjlks1lkMhm4rmtW5zp06BD27t1bdb306MfxPC+Z2uW6blWfijw+x3HQ29uL3//+91i4cCE+97nPobGxEQBME376vtOPX/phiIjOVgwsREQpMmISxzF0rAE7Kfh6e3vx9NNP46c//SnK5bIpAtMhQYrgk2VZVuW++86eL1y4ELfffjsmTZqEcrmMcrmMMAzR2dmJffv2Ye/evdi9ezd27dqFffv2oVwuw1IWYh2b2+xfrCqlqkaD0kHmVB0tmKQL6HRBnf76YJPVt9KjFmEYmjCTfk0ty8KoUaMwdepUTJo0CRMnTkRraytyuRwaGhpMaCkWi3jhhRfw0EMPoVAoVD1/Oe5HC3H9xXFswm+a1tpsINnT04Mf//jHmDRpMpYvvx51dXXQsUasK6FEwo88l4Hul4io1jGwEBGlaK3h+z4cx4HruWZfle3bt+O73/0udu7ciVKpZC6bLr5PR9N9+rby+TyWLl2KT3/605g0aZIp/LXWiMIIvYVe7N+/H1u2bMH777+PtWvXYv369di4cSPa2tpMMZ6+3fSIQjo0nK7g0P9208V6/5DS//gNpjiO4fs+stksoigywdS27arQWVdXh+nTp+O8887DokWLcO6552LGjBmYNHES6urrEEURstmsCRFdXV2wbRtvv/023n//fXNfMlXrVAJsfxK21q9fj//7f3+FKVMmY/Hixea+0sFERmgAcNoYEZ31GFiIiFIsy4Lv+6bYDoIApVIJv/vd7/DSSy+ZM9cympLuPTjV4lSKYCApnsePH4+FCxdizJgxAGBWhlJKwbItNDQ0oKmpCbNnz8Y111yDQ4cO4YMPPsArr7yCV199FWvWrMGuXbtQLBbNKMKRRj/kuRxpdOREpANV/xCSPj79g8uZCCzymvX29ppm9vRIRFNTEy6+6GLMnjMbl156KS6++GJMnDgJtm2Z0Jp+fkEQII5j1NXV4dxzz8X06dPx/vvvHzGUnY73RiaTMaNuWms888wzmDlzJiZOnIhJkyaZqYtAZWQnDCPEcWSa+ImIzlYMLEREKVJgSjFbLpfx9NNP4+c//7m5TLoYlc/TxezJSgcfpRSmT5+ORQsXwXXdysgIKr0Wchbdtm04joNx48Zh7NixWLx4MZYvX47XX38dL7/8Mt5++21s2bLFTGUzoaevaD/VYlrI7RwpFMk/0X804EyQ5wxUAsyYMWOwePFiLFu2DMuXL8esWbMxalRLKowm4SYIgqpNG9PT9mbMmIFzzjkHTzzxhLlteU5HCoknQ+tkgYdMJgMAKBQKeOCBB3DOOefgk5/8JJqamqF1dU+OZSloPfhhkIhosDGwEBGlyDQl13VhWTba29vxv//3/8auXbtMISpTrY5WgJ+sdBGcyWQwc+ZMzJ4z2wQhUwjrw6dTxXFsRmDq6+uxePFinHPOObjiiivw4osv4tlnn8Wrr76KvXv3ms0vpWdDphqdjueQDgVye+lgJ5/3D32DTe5HVnRrbm7GkiVLcNVVV+Gaa67B4sWLTTCUECgjT5ZlwfO8qh4Xz/OgVLKKV1NTE2bMmIF8Pm9Gs2SkTG7zVKcLlstleJ5nXielFPbs2YOf//znmDdvHi6++OKqxy/vT3keRERnMwYWIqI+Uuxls1n09PTAsiw8+uijePXVV00zvIyAyBQrGaGQAHE6WJaFlpYWTJs2DU1NTVVn7CUQOI5j7lsej5DnkcvlMH/+fEyYMAFLly7FK6+8gmeeeQavvvoa2tr2AUiCThAEpsA9Xc8hPeIkt3m6RnJOhjye+vp6LFiwANdccw2uvvpqLFq0CC0tLeaYpcMUUDmWUvwDlSWI5WPbsjFlyhRMnTrV9LHI7Zyu45kOyHJMHcfBypUr8dhjj2Hq1KmYMmWKWTxAaw1LWVAWR1iI6OzHwEJE1EcpZc7Ah2GIt956C9/73vfMtJ508SlnzU1xaFVWaDpZUlQHQYCWlhZMmTLFFKnpQNH/cSQfJKMHQHVBrbVGc3MzFi9ejPnz5+Piiy/G448/jqeffhqrVq1CR0eHue1TLbDTRbxlJUv0ep6HTCZT1Ucho0HyT45hd3f3sW7+lHieh3nz5uHqq6/GRz/6UVxwwQVobGw87JhKKJHRKhllASpBIR0gXddFHMeYPHkyZs2ahfXr11eFnlN5P6QppeD7PlzXBZA8Fhkle+ihh3DJJZegoaEBzc3NJrRIWOkfwoiIzjYMLEQ0osjysEEQwLZsWHZlZEKmAhWLRcRxjHvvvRcbNmyomuIjxasU2cDpbxrXWmPy5MmYN2+e6Zk4UtFp23bVClFaA5Z1+JQs4bouLrjgAsyYMQPLli3DH//4RzzzzDPYvHkzisViVWjpP0IiH9u2jVwuh/r6etTX16OhoQGNjY2oq6vDpEmTkM/nkcvlzLK/nufB8zy4rmuCn4wK9Q8sBw8eRBiGKBaL6OnpQUdHBzo7O9Hd3Y1SqYSDBw+iXC6ju7u7KpQppUzA6L9sMQBMmTIFV155JW6//XYsWbIUkyZNrHpe6edsjmWsoaHNSFr6ePYf8dJaY/To0ZgwYSKgFOJYQ0FV3R6gAPTr7Ul9PFBMlOfk+74JUfJe3LBhA37969/gnDnnoL6+3gRQ6bshIjrb8TcZEY0oUjBrnRSkURRBa121+V4cx3jqqafw1FNPmc/ToUVuJ/3x6TiTLkW44zhobW3FxIkTDwspUmD3l3z98K+lP5bn2tLSgquvvhpz5szBBRdcgD/+8VG8+eYb2LNnj5keJgW94zgYNWoUJkyYgFmzZmH06NEYN24cWltb0dzcXBVYxo0bZ0KM53kAKgHvePoogiBAEAQoFovo7u5GR0cHDh06hM7OThSLRXR1daGzsxObN2/GgQMHsH//fuzevRvt7e3o7OxEPp9HqVQyBXs+n8eyZctw22234corr8T8+fPNffU/jv0/tp3DlwJOXyd9edu20djYhDHjxiGby6NQKACxhlKWOe7HCivy+UChRd5z/d9rWms8+eSTuO66azF+wngzZTC98SkR0dmMgYWIRhTHdlAql5DJZKCUQqlUMmfQJZTs3LkT3/ve91AoFKrOrsvZ9MEmxX9dXd1RR1dOljzHIAjQ2tqK2267DfPnz8drr72G3/zmN9i+fTuy2SwmTJiAmTNnYurUqZgwYQJGjx6Nc845By0tLWhoaEBdXV3f1CMNoBL0lFInvTKWjBhls1mMGjUK06ZNqwqYtm2jXC6jra0NnZ2daGtrw549e3DgwAHs2rULb7/9Njo6OtDW1oaWlhYsX74ct99+OxYvXoy6urqB7v6U5OvqMHnSJIwZPRq7ymVEurKIwckcixPV29uDX/7yl1i4cCHOP/98MyWvErjtwwItEdHZgoGFiEYWVQkf6RENCQayXOxbb71lptPIdBzpDRhs9fX1GD9+PHK5XNXUo1Mljz/9HOrq6rB48WKce+65mDNnDnbv3gPXdTB+/HjMnDkTEyZMMJstAn2jDFB9o1MxtK6sqCXjBHL7SlVPTzuR55CerpUOQBKmJk+ejAULFkDrZNpWR0cHXnvtNZRKJezfvx+jR4/GxRdfjHHjxpnLDKZsJoPx4ydg1OjR2L17N4DkaChUpo0NpiAI8NZbb+Gxxx7DrFmz0NLSAsdxUvct09KIiM4+DCxENKJonSxJK9O4HDsJK7JU8datW/GrX/0Kvu+bQnmwi93+stksmpqaqlYmO51kh3egEgyy2Syuu+46c5n01CfpNTErVfXNX7IsBcBOXRaQujw9fUpGSeQ+j0b6UORf/yJfbiP92OT1aWlpwY033mjCJVBpkh/ofk8Hy1Jobm5CY0NjEtg0AEsB5jgMfmgplUr4wx/+gKuvvhqXXnpp5fUCwLBCRGezM/tXmIhoiAVBUFlFSSU7xkuPSrlcxoMPPogNGzaYxnwp1IEztyyv53nIZrOV0RWogRscjkOpVEIQBFWBQJrKZaqYHBf5ftL3IgHEgqUs8/X0niBAZUQlPapyIiNE/S/TP/TIfcljlscoj6dcLpvVyOSy8lqfjh6jgdTV1aO+vi6ZwobKY04fh8Ei4fqDDz7AY489hs7OThMUk+Ay0C0QEdUuBhYiGlHCMDT/T/euKKWwZs0a3HfffabQTW/E138q1WBRSiGTyZgdzZVSiHWMWJ/6fUuB7/u+GYlIj2RID0k6OCTHQlbKShYqkK+nL5cuzOVYpQPQ8YxSyf1XjwwklFJw7MqyzfKvfyDSurLcrwQXec0HkwaQz+eSviP0DUJpXfUYB5O8jmEY4rnnnsN7771nFlA4nmNPRFTL+FuMiEYU6UuR6UflchmWZaGnuwcPPPAANm/ebAq/dBF8JqYVAUl4ymQyZpUtoLJvyalyHMeMQKRDgRS76WCRHqGQy0nxLSMc6b1V+o+myG2lR0GOVzr4pB9XdWirTB2T66SPmbAs64wt7etlMshmc8nkq1Tesqwjr+x2OkVRZJ7nli1b8NRTT6G7uzsJvGcgaBMRDSYGFiIaWfrq5vRZ5yiK0NXdhYcffth8HobhGTkz358UlxKQpFiX0YJTIbfluq4JG/3DBQCzh0i6yE5Pw5LbOtJtp2/vRM/uy3X7P6b+95mMwlSmhvW/rjw/+bo0n58JKrUPDnSl2X2w71/eN3Eco6enB08++SS2b9+Ocrls3jdHCo4nGiaJiIbC8f8lISIaBizbQhiGpqHd8zz4vo9HHnkEGzdurDobLR9rfXr2WRmIFLXSOyPF5IkW/kdzrNupCijq8ClfQGXq3JGuc6yC/Ei3dSz9g4uQx55+DvKY0iNg6bAjnw/2CJnWGqViEaVSqe91A9JDLWciFEh/UhiGWL9+PV544QX09vZCqSM3/Mv760w8NiKiU3HqfwGJiM4ijuOYxnsp5Pbv34977713SEZU0qRAL5fLKBaLJijJtKgTKfrpzCuVyigWCtA6iSmWqkyJwyCHgnSIs20bvu/jD3/4A3bv3m16iYDqXh8GFSI6WzCwENGIonVS0EmPSqlUwjPPPIONGzeellGMUyGhpFQqobe3F0DlzDyLy9pmmdetUOlfSYeDo1/1tJD3bhzHZgrcW2+9hTfeeAOlUgnA4b1BwImPfhERDYWh/etMRHSGaR3DdV34vg8gWS3svvvuMyuCDSW5/0KhYJalta3BncpEp4cG0NXdhY6ODkBXj2BYZyAUyChceqGC3t5ePP7442hvb69aAOFIy1cTEdUyBhYiGlGkSLNtG1EUoVAo4LXXXoPv+0M+wiJnvwuFAg4cOJCsYGYP7WOi46MA9PT0oLunG5ZtQVkSUAZ/dAVAVQCRaYSu6+LFF1/Exo0bq5axFvIxVxEjolrHv4RENKIopRAEgWm2f+qpp1AulxGGIVzXHejqg0rOypfLZezduw9dXV0DXYVqRBTH6OrsRG9PL5zUXjK632jLYDGjOX2ryWmdLNawf/9+PPXUU9i/f79ZylsWIEhPCyMiqmUMLEQ04sju9cViEX//93+fTL3q62sZahKo2tsPoauri0XlWaJQKGD37j04cPAAgiCEjiWkaCg18Ot3qnHGcRwTVGRKmLyvH374YWzbts0s5CAjiemQQ0RUy/hbiohGpDAI8dZbb+G9994zm+7VQmCRpYf37t2LnTt3IvADs5fGYJ+lp5PXtm8fdmzfhjiKAB3DstC3V0zyr/9rp/v9O1XSuxLHsfnY931EUYSNGzdi5cqVCMOwquFepoIFwdC/74mIjoWBhYhGlGKxCM/zEEYhfvvb35riTfZmGUqO45jlltvb27F161azJ4qcNafatGvXLmzevAlxFMK2LbO5pUzBcpzBXTwhHUSASj9UFEUIggAvv/wyenp6qkbs5P3EtxUR1ToGFiIaUWQ6WE9PDx599FG4rgullGlKHkpSYIZhiLa2NuzcuRNaazPdh2rX5s2bsXHjRriuW7XviQSHofbKK69g27ZtJvimG/SHOqgTEQ2EgYWIRpRMJoMoivD2229j7969ZjnjWpgSJoFFqcrmka7rQse1UfTS0UVRZJbKluWF06EliqJjXX3Qbdu2DStXrkS5XEYURohjDUtZQ/6eJyI6HgwsRDSiSPH4m9/8BpZVKdhs266JUQzHceC6LmbNmoULL7wwORNucfnZWnf++efj4osvNiMW/UPLUI/ehWGIF198Ed3d3Yh1DEADihuSEtHZgYGFiEacKIrwxBNPII5jBEFQM1PCgCSU5PN5XH/99bjqqqsQBAEsyzJL0VJtmj9/Pj7zmc9g0aJFh+15opQa8pW4tNZ49dVXsXPnTgCVlcEsNbSPi4joeHDiKhGNKLZtY9WqVdi7d69Z4lXm8sseFkPFcRw4joOLLroId9xxB5qbm81UNa01PM8b6CZoiGQyGVx33XXYs2cPDhw4gL1791aFzKGeEgYAO3fuxNq1a7FwwULz2JSlaiKoExEdC0+tENGIEoYh7r//fkRRBM/zzApc8vFQiqIICxYswN13343zFp1nwor0tdRC0UtHppRCS0sLbrjhBtx4443I5XLm9RrKECwcx0EURdiwYQPKftk8Nnn/ExHVMgYWIhpWpEdFegfK5TIAwPd9s5fJE088UdVsL9c5E9OuLMsyK5NZlmX6HZRSmDBhAm6++WZcfvkV8DKeeUyy3PFQTyuio5NAOWnSJNx1112mnyW9L8pQcxwHTz75pFneWOtkY0n2RhFRreNfPyIaVmSaV3ojvf727dtniklpuj8TIxi2bcPzPFO8ph+f4zi4+OJLcNddd2Hs2DFm+Vnbts9IkKJT5zgOstksFi5ciJtuugmzZ882QXOow6asQLd161bs3r3b/HwM9agiEdHxGNrfoEREp1kcx2aaSxzHlbn6fV/btm0burq6zPckpMj+GYNJa212G3ccB5lMBrZtw3VdzJ07F7fccjNmzJiBcrlsFgOQ3cpZWNY+CQDNzc1Yfv1yXHPNNairqzN9UkMtjmP09PRg1ar3EEWRGWWxLAZiIqptDCxENKykQ4dSCq7rmqZ1AHjkkUdQLBbN6MWZlN5nRZZRluC0YMECXHHFFQCS8JTNZquWxo2iaNADFZ2acrmMUqkEpRRmzpqJ5cuXY8aMGTUxJUwCU6lUwjvvvA3f982oTw1kKSKiY2JgIaJhJR1C5My27/twXRdxHOP+++9HHMcmyNi2bS4z2GfBJagolSyjLEXjjBkzcPXVV2PatGlwXRee55nH7nkeXNetmbP0dHTyOkVRhEwmg4svvhhXXXkV6urqhrxPRN4/WmusW7cOXV1d5ntDHaaIiAbCwEJEw4oEFhm9kGJMKYVDhw5h1apVyGQyJjRIw7tMJRtMcvsyUuI4DnK5HC699FLcfPPNZiUn3/dRKpXMUsvSb3OmR4To+MVxbHpVZERv4sSJuOLKKzBr1qyBrj7o5P2tlML27duxc+dO07811GGKiGggDCxENKwoJKHAtu2q/UviOMbrr7+OUqkEy7IQBIEJNem+l8GWbqa3LAvjx4/HsmXLMHbsWARBYFYFk/4WGYnhdLDaJu8dWX0uCAIAwKKFi7B06VLk8/ljXX3QSaACgP3792PTxk0ol8tn7H1PRHQqGFiIaFjxAx8ATI+IUgqO46C7uxsvvvgilFImrGQyGXM9KTQHU3plpjAMEQQBFi9ejI997GPJVDDXq1o5zPd9xHGMbDZbtUAA1R55v8n7SsLBlKlTcOGFF6K1tXWAWxhc6RXBisUidu/ZDd/3+747uCOLRESnioGFiIYV13XN2W0JIVprZLNZrFmzxqzUJWfBJUTIdQabrAoWxzHGjh2LRYsWobm5OZmWpmOzN4tlWVX9K7IXC9Wu9OheHGtEUQxLWZg3bx7mzp2banJXVT1JZ2KPnfSIYzabxdq1axHHMQqFAiyLgYWIatvg/oYkIjrDpBgEqhuNHcfB9u3bqy6bnrt/pubx92+2X7JkiektkIZ8KWTZaH92iXVs+o2UAixLwct4mDVrFs4991zk83kTTtK9VRKqB5vcR7lcxqZNmxCGoQnHRES1jL+liGhY0bp6925pqAeAbdu2Heuqg07ChwSomTNnYsmSJeZrdHZLbxAp4RMAxo0bhwULFmDcuHFVl0lfbrBff1m0QaZEbtq0CcVi0Yz2ERHVMgYWIhpW0isfSREo/QXd3d3HuuoZ4TgOHMdBPp/H5MmTMXr0aAA4Y2fZafDIggmWZVUtX21ZFubOnYtp06YBqH6tz9Qomtyn3N+BAwfQ2dkJrTV83+d7j4hqGgMLEQ0r6ZEVKQSVUti/f39NFWXjxo3D/Pnzq6YEnYnClQZHFEWHheX0aMqMGTMwZ84cs3iCBIcztamkTEOTPYjiOMbOnTsRhVzIgYhqHwMLEQ0rjuMAqF61CQDefvvtIZ+rLw3/YRhiypQpuPjiiwHALK1MZ690QI7j2KzoJqFl7NixmDVrFurr683XAZiel8EmPxfpn4n169fDD3x4nsewTEQ1bWj/ehMRnWbpoJI+e/3iiy8OcM0zQ868t7a2Ysb0GQCqex/o7JSeBqZU8lrKe09rDdd10draiubm5qrvnSnpUCQbpq5fvx5BEPC9R0Q1j7+liGjYKZfLh525lmVch5rjOKivr0ddXR0cNznrLdN1yuXyANemWiWjZ0EQQCmYJagloGqtkc/nUV9fX7UQhITVwR7hkBEfWZDCtm3s3r0bQRCYqWxERLXKGegCRERnkziOqzaElEJw27ZtZ/ysdn9SqNq2bZrt5fMzsRcHDR6llJl2lf6asG0b48aNQ1NTk7ms9LKciQUXLMsyUw/lcbW1tSEIAu7vQ0Q1j38diWjYUUohiiKzhGscxzh48GBNBAKtk2WXs9nsYQsDDPZZdhpa+Vwe2Wy2KqCcibDSn6xe1tvbiziOOcJCRDVv6P96ExGdRlL7yc71QRBAa40DBw4M+ZlkKUw9z0M+nz8soDCwDF9aazQ0NqCxsRFAMkVLa23+P9ivvQR4IJmWKGHetm24rjvAtYmIhhYDCxENK1onvQHpHgHbts3u8rUgk8mgoaHBjKpIkBnsopWGVnNzM1paWqreh2d6dAWo9Nf09PSgUCgMyWMgIjoRtfHXm4joNJHaS4pCz/OgtTY9A7VAAgvAkDKSNDY2mqAKHL5X0GCSHim5H601Dh06hB07djC0EFHNY2AhomHFtpNfa5lMBnEcw7Is7Nixw2zYN9RkidtcLnfY12l4y2azZs+T9D9g8F//9PQzafYPggBtbW3snyKimsfAQkTDimVZVdO/tNZ45513zN4TQ0kKQ9u24XleTQQoOjMkkKR7Vs5k471MkXRdF1EUwXEceJ6Hrq4uWIqlABHVNv6WIqJhp1gsmo/DMMT7779fU8u3Sl/NYBepVDsklPRvsE8Hl8EmQVlGWaIowqFDh1D2uf8PEdU2BhYiGla01mhsbKzaKK+3txeO45iVw4aKFKulUgkHDx40m/iFYXjGilYaGrLXjud5VatyKaXOyGIQ0sMl08Hk/wBqJsgTER3N4P+WJCI6g47U0Cy73g/1lDAgCS3lchmFQsE8pjOx0zkNrTiO0dvbi0KhYKaFnYmpYCI9JS2OY3PfQx3iiYiOBwMLEQ07UpzJdJswDE0Dfi0ol8vo6ekxIy7c5X7401qjo6MDHR0dZm8g+fqZCC1yH7LbvSxCUSwWz8j9ExGdCv6FJKJhpX/xJYEFGPylY49XEAQoFosMKSNMR0cHurq6jhhWBvu9mR5hAZIpYkASnomIah3/WhLRsJMOLUf7eChFUYRyuQzLss7YGXYaWpZlobu7G93d3YctaTyUauExEBENhIGFiIYlCQIy5Uq+NtSUUgjDEIVCAcCZmxJEQ0spZXaW7x8SzlRo0FqbUb0oiqCUQiaTOWP3T0R0shhYiGjYSTexW5YFx3HMaEYtKJVKpodFQpXW2uyVQcNTsViE7/vm9U6/Hwc7NKR/HizLQhiGsCwLuVxu0O+biOhUMbAQ0bDSf6qNUgrZbLYmAosUqr7vm9Wi0l8f6sdHg6tcLsP3/cO+fqYCg4w2psMLR1iI6GzAwEJEw47sMSHTcP7Lf/kvpvF+KEnBGMcxCoUCSqUSgKQJX85809lJFneQZYPTX5d/bW1t2L9/PwBUBWhZuWswxXGMXC5nHqPneQiCAPX19VzamIhqHv86EtGwkz5jnN6kb6g3yJNNIgGgUCigra0NYZiMsoRhyMLxLKaUMlMPAZi9TmTETzYL7e3tNaFBrnemRjhKpRKiKDLLaMvoYyaTGeiqRERDioGFiIYVaSyWM9bpYmyoAwtQ2dn8wIED2LBhAwBdE4+LTt2xpvV1dXVh7969VfuenKmgAiTBXe5XdroHwClhRHRWYGAhomFJmtiVUmbTyKHuEUn3EOzatQtr1qwxhaRt21WjQXR2iaIIYRiaQJoeaQnDEIcOHcLBgwfNpo1AJbCcifeljOTIfYdhiHw+j9GjRp+R+yciOhUMLEQ0rFTOFiszyhLHMbLZ7JD3sWitEUURtNY4ePAgNm/eDKC62KWzU/+GdulLkSzQ1taGtrY2c/l0b8uZCAy+75uwJNPVWltbMWXqFHieN9DViYiGFAMLEQ07ybSwylLBlrLQ1NR0RgrDgciZbjnrLjve18Jjo5OX7kWJ49jsc2LbybLaO3bswK5du0xgTYfTM9nHIiOOANDU1ISWlpYBrkFENPQYWIho2JGpYEAy9cWyLYwePXqAa5050vC8v20/PvjgA9i2DcdxBroanQVkxERCiI41isUitmzZgn379pkeq/ReQWcirDiOA6VUKkglUxAlPBMR1TIGFiIaduQMcrr5vqWl5YwUhgPRWiMIAoRhiL379mLdunXJY9QwjdB09lJKwVKVHpayX8bBgwexa9cu9Pb2wrIs2LZtpo+dqfdkOsADgOd5yOfzZmNVIqJaxsBCRMOOTK+S+foAcOWVV9bEalzpM/BtbW344IMPAACxjhlYzmLpBnplKdOX5DgOdu7ciR07dpjljGUDSdmzRXpKBpMsma2UMr1UM2fOZFghorMCAwsRDTuO45jiXwLL1VdffcbOZh+NUspMBYrjGL29vejs7EQYhtBas/l5GJC+KcdxzH4nO3bswPbt2we66qCSoAJUgvysWbO4Mh0RnRUYWIhoWJEljH3fB1Ap1C699NKa2ZhRehhKpRJ27dqF/fv3c3TlLJde7SuOtRk56enpwfr162sisKQ/jqIICxcuZGAhorMCAwsRDStS+EsBKfuceJ5n+gqGSno6mPTXbNu2DWvXroXjOGx+PsvJ1C6rb0oYAGzfvh2rVq1CT0/PANc+c2RRipkzZw75qCMR0fEY2r/eRESnmZzllt28Pc+DUgqFQqFmVgpLryK1Y8cOvPXWW4Pew0CDK93DIo31APDee+9hzZo1ZmriUJH3nExZa25uRmNjY9WKekREtYqBhYiGFRlFcRzHhAClFMrlMhYtWnSsqw46s9RtX9EIAO3t7Xjvvfewf//+mlgUgE6e9CZFUQTbttHb24vVq1cP+XQwoBKk5D14zjnnmGWNiYhqHQMLEQ1L0vAs07Dq6upw7rnnDnS1QZVuupfH5vs+Vq9ejRdffJF9LGex9FLaWmuEYYjVq1fj7bffRqFQGODaZ0Y6zC9atAie58G2bY7uEVHNY2AhomFF6+opV7KUrOM4mD59etUohlzmTFNKmcehlMKuXbvw8ssvo7293QQs+TfUU4no+EiTvQSWnp4evP3221i/fn3VJpFDSd5zlmVh1qxZZvEHIqJax99URDSsKFVZGSwIArMxXldXF6655hrU19cDgPm6TIs5U0WlhBBZ+tayLBQKBbz33nt4/fXXEQSB+Vcul1EqlRBFEc+C1zgZ0SuXywjDEDt37sSKFSuwY8eOga56xriuC8uyEIahGW2slZXziIiOhYGFiIYVOcMdx7HZURwARo0aZTbKS49wpMPAYAcWuV+tk437oiiCUgpBEGD16tV444030N3djTAMoZSC4zjI5/PQGpwuVuPkdQzDEKVSCc888wzeeOONQX9PnYhisQjLsjBhwgRMmTIVDQ0N8DyPq9MRUc1jYCGiYUUCC1AJB1KQNTY24qKLLjIjMDJdLL3C02CSoJIuYi3Lguu6OHjwIJ577jmsWrXKbHwpSx/btmU+ptolo3abNm7CU089hR07dpjwPNjvrYEoVVlqedGiRWhtHVdTYYqI6FgYWIho2El6WGTERFUFhXvuuScVapKpPLJXy2AXlbKClIy0xHGMIAjMFLFVq1bhscceQ0dHBxzHhe/7ZrSFapvWGo7joFAo4OlnnsY777wDoNKMP9SvobznwjDEZZddhvr6epTLZcRxzM0jiajmMbAQ0bCS3lciCSDJ5pGOk8zfv+6662Dbtplylb7sYBeV0isjZ91lrxjpI2hvb8fjjz+Oxx57DMViwfRFyBn6wX58dPKUUvB9H6+++ioeffRRHDhwAI7jAEhW5ZKPh4q83x3HwUUXXYx8Pl/1/iciqmUMLEQ0rMjKR0r1rRAWVno/4jiG53kYN24cwjA0wcH3fVPQDSYJLOkVpSSUKJWsWLZ582b8+te/xksvvWRGY+QsPftYalcQBNi4cSMee+wxrFmzxgRReV2HmjyeiRMnYvr0abBtx4ys+L4/6KOLRESngoGFiIYVKeqlUNSQHoIkJIRhiCuuuMKMbsiyrjItbDClR1bSU9LSwcX3fbzxxhv4xS9+gdWrV1f1QNRC4UtHtmfPHvzxj3/E008/jZ6eHjiOY0byZIGFoSSP4/LLL0dTUxOiKGRPFBGdNRhYiGhYkZETAGbZYhl1cRwHuVwOt956q/lclhZONyUPFnlcEljCMDR9KunisaurC88++yz+8Ic/oKOjw1xWFhGQ24njSpgZ7LA1EvRvju/fMF/1f125THd3N1555RX8/ve/xwcffIAgCEwYlv6pwQ4H/Udy0p/LyJ5SCpdffjkymQy01n1TERUymQzDMBHVtMGd/0BEdIZlMpmjfk8aj2+++WYzf1+ajn3fN03Jg0mmg6VJUSvBCgAOHjyI3//+95g4cSJuu+02tLS0AIB5fMlKYskqZ3ImP319OjHp10ApZUKg1tocU1kqW74exzFKpRKeffZZfO9738Obb75pbu9M728i4UhG4mRRB6CyYWRTUxMWLFhgFprwfR+ABrQCmFeIqIbxLxsRjSgy/eqCCy5AqVSC7/vIZXOmSK0VlmVhw4YN+Jd/+Rc88cQT6OrqMgUzkAQXy7LgOm5VoUonT4KfbNyplEo2FoUy+/XI96IowoEDB/Dcc8/hRz/6EV588cWBbn5QyeOT90D/0SLbtrFs2TK0trYim80CSO1ZpAd39IeI6FQxsBDRiBJFEVzXxd133236RkrlkvneUJIpbFpr2LYNx3Gwbt063HvvvfjlL3+Jbdu2VU01CoIAGhqe55lmfjo5Mu1OKQXP88wx1VojCAMTFn3fR0dHBw4ePIgVK1bgu9/9Lv785z8PediVRSNk4Yj0VEHpobnsssvQ0tJi3isyWkREVOs4JYyIRhTpVbn++uuRzWbh+z7K5TJyuRwKhcJAVx9UcvbecRyEYYgwDOE4Dt566y3s27cP+/btwx133IFzzjkH+XzejBbJUs6cDnbypKcJkF4VZUbdHMdFHFdW/ero6MATTzyBX/7yl3jvvfdM0BnK4l9GVuQxyPtBQktTUxOWLFmC+vr6qqmQQRDwfUNENY+BhYhGFFmJq7m5GfPmzcNbb71lvj7URaeM+EjfhBShnudhx44d+NGPfoSdO3firrvuwvnnn4/m5mYAlT1k+jde04mTUSrLUqZPRZaX9n0fb731Fh588EE8+uij2LZtG2zbruoXGSrpERUZbbEsy4yuzJs3D3PmzDE9Xv0DDhFRLWNgIaIRJQxDsyrS5z73OaxatQq+76NUKg101UEnhabv+2bqWrlcNtOU2tvb8fvf/x7r16/H5z73Odx8882YNGmS6WthH8vJk2CSnlIFVFbbamtrwzPPPINf/vKXeOONN9DV1QUANTOtSl53GVlJhxXpX2loaDDTHrVOVjqzLAuW4ggLEdU2BhYiGlHCMDRLHX/0ox/F3/7t32LXrl3m7PRQkilHElpkRTA5w6+UQrlcxjvvvIMDBw7g/fffxy233IIFCxZgzJgxyOVyA9wDHYscY9lk0bIsdHR0YPXq1fjzn/+Mhx9+GFu2bDF9REEQmE1Hh5oEp/Q+PxLAWlpacNVVVyGfzwOoBFuNvpE5a+gfPxHRsSg91H+hiYjOICk2i8Ui4jjGF7/4Rdx///1mmdfT8Sux/xKzcrZbHG06TvosufQZyG3J92TkRS43b9483HHHHVi+fDnmnTsPjU2Nh/W0HGnkRaYQpafCmUJWVy/l2/8xDJV0f4aQ55o+pkfq6Tna408/Z/k4DEN0d3djy5YteP755/HQQw/hrbfeQrFYNLeRngKWPlZDRYKu9D1JYMlms7j22mvx/e9/H5MnTz7svSfPeahfWyKiY+EICxGNKFKYua6LKIrwta99DX/4wx9QLBZNE/KpkOk46TCSXpUJqA4B6XBwpOZtCTpSVEr4kb6JVatWYe/evXjjjTdw0003YdmyZZg6dSoaGhqqCnwZrbGUBWWpwwJU+uw8APPY0gVwuq9mKMhjAqpDghwb+b58Ta6TDmHmmCDZe6T/sS4Wi9i2bRteeuklPPHEE3jttdewf/9+s2xw+vJiKIOK0FrDdV3zWOQ9YlkW7rzzTowaNarqtZOPh/L1JCI6XgwsRDSiSMHv+z7q6uowd+5czJw5E+vXrz/l4k0ChfxraWmBUkk4KJVKZuUvKahlo0opvuX6Uhj3L47TRboUpK7rYv/+/XjyySfx7rvvYunSpbj++utxwQUXYMqUKWhpaYHneZXeBUvDQmVFLL/sI9YxMpmMuW/Zj6R/gKkVWif9F8qqHC8ZMQIqG4QClcCXfk7yvCyVvE4yorJp0yasXLkSf/7zn/Hyyy9jz549iOPYHKvB3lT0VEkflkwhtCwL5557LhYtWmT2XiEiOhsxsBDRiCJnoDOZDLRO9jC56aabsGnTplNuvHccB1OnTsW8efMwevRozJw5E5lMBkEQoLu7G/v378eOHTuwe/du7N69G93d3VUF9JEauNMhSqazpVelks+jKMLevXvxhz/8Ac899xwWL16Mq666Cueddx5mzpyJqVOnor6+3oQpCVLSxxDHMXSsEUZh1RQhKfyHenQFqIyWSEiJwqjqeEnvjxwb2ctGjrGEFnm+pVIJbW1t2LRpE9auXYvnnnsOb775Jvbs2QPLsg7rJap16dEkeS9dddVVmDx5inkdiYjORuxhIaIRpVwuI5PJmCK2WCzivffew6c//Wns2bPnlIrT0aNH4/Of/zy++pWvonV8KxoaGqrO/JfLZWzatAlvv/023njjDbz11ltYv349ent7zYaRQRBUjRSkpzYBMMvVyuXkMlLEy+fSvzBjxgx86EMfwgUXXIDFixdj+vTpGDt2LHK5nCnc5fZl6pr8P45j87iAygjPUEkehjaPTZ53HMdmMYX0yIo8p/Roke/7OHDgADZv3ox169bh3XffxTvvvIONGzeio6PDHG+ZnnekEZxalH6sElamTZuG733ve7jyyiu5IAMRndU4wkJEI4pMw5KCt6GhAQsWLMDy5cvxy1/+8pQCi23baG5uxqTJk1BXV2dW/ZL7zGazWLRoEebMmYMbb7wRb731Fu6//34888wz2L17d1VfiZAz5umPJayk99qQ5yPFPAAUi0WsWbMG77//Ph566CEsWbIEixYtwuzZszFnzhxMmjQJzc3NaGhoQF1dnZmGJkWv3HY6NA3lKEsUhWaUJD1aEoahWdUrPUolI09dXV1oa2tDW1sb9u7di9WrV+ONN97AqlWrcOjQoarjnu4ZSn9e69JT92zbRhAE+MhHPoLFixdzOhgRnfU4wkJEI06hUIDnebBtG+VyGZZl4dVXX8Wtt96Kzs7Oga5+VNlsFpdddhn+/b//91i6dCmamppMkAjDEJ7nmY/lV+/GjRvxwAMP4Ne//jXWr18PoLKCl5w17/81kQ4s6ZGEdA+DfC6N81prNDY2Yvbs2Zg7dy4mT56MqVOnYsqUKZg8eTLGjBmDbDaLxsZGOI5TNSLlOM6QBpYgCKpGoqAB10tWTAvDED09PQjDEL29vejo6EBHRwf27t2LrVu3YsuWLVizZg22b9+Offv2mR4gmbInIRbAUY+5fL8WOY5jRpU8z8Po0aPxwx/+ENddd50ZTSMiOlsxsBDRiCJLF0svR6lUgud5KBQKuOeee/DAAw8MdBNHZVkWRo0ahSuuuAKf/OQncc0116ClpQWO45gRACkc06MXhw4dwkMPPYSf/exnWLlypembkBGEdMGc7j8BqntcZAQm/TUJKVLoy/UkzABAc3MzJk6ciLlz52LWrFnIZrOYOnUqWluTaW3z5s1DY2Oj2XBzqMhziaLIFOe9vb3YtGkTNm3ahN27d6OzsxPt7e04cOAAdu3ahe3bt+PgwYOmtyUdvGRkSvpVwjA0r0n6n9xvLQcWeT9LELvtttvwt3/7t5gyZQoAmIUDiIjORvwNRkQjShRFyOVyJrjIVKhcLoe//Mu/xIoVK3DgwAF4nodyuQygOggMdI6nu7sbTz75JA4ePIitW7fi+uuvx7x588wqXDLikh4VaWhowO23347GxkZ85zvfwerVq6umIqXvU4pnIY9Jbte2LGgAcRQD0FAquY/A92FZNiylEMUxor6pb0opdHZ0oKO9HWvWrDHHpqGhAZMnT8b48ePx3/7bf8OSJUuGNKwAyXMvlUrIZDJmCer9+/fj//v//j+sW7cOnZ2d6OnpQRAEZkRJVmGTY53+mjwfCS5yXOX/6cAy1GElHVz7vwflvSkjQ62trbj11lsxduxY09dCRHQ2s7/97W9/e6ALERENF7LpovRoAJVlcMeOHYt169Zh3bp1ZvpWHMemLyK9OteRSGEbRRHa2tqwZs0atLe3o6GhAY2NjcjlcqaAlCLSUsljqKurw/jx4+E4DrZs2YKOjg5zn3Lb6X/p+zQFdr/P+y4h3epH+F7lNoC+8IPkbH2xWERHRwd27dqFz3zmM5gyZYo5XkNFjq1l2YjjZCSkUCjgv/7X/4p9+/aZzUABmFAohbyEEnE8IUQuUwsFvwSsdGhMf01GiGzbxq233oovfOELGDt2bNXliIjOVgwsRER9bNtGfX09/vSnP6FYLJplcWVkRJq4j0YKRymSOzs7sWPHDmzfvh1hGGL8+PGoq6szS+1qraum6khosW0bO3bswKFDh8zogJxFP1bxfOolqYJlWybMBUGACy64AJ/85CcxevToIS98tU76M3zfrxodWbVqFTZv3lw1cpIOLkP5mE+Xo4VUoDLKprXG+PHj8a1vfQvz58+v2ltnOBwDIhq5GFiIiPrYto3Ro0dj69atZlpWQ0MDisUiAFQVwkeSDhdSOIdhiO3bt2Pz5s0IggCTJk3CqFGjTN9Euq9C62SK2rRp09Db24v3338f5XK5arrPse7/VEtSuy88BUEA27YxYcIE/PVf/zWWXbIM2Vx2yEdYhFIKruuiUCgil8uirq4O27dvx86dOwFUGtDTI2jA4VOpziby3uo/0pIOL9lsFrfeeis++9nPYvTo0eZ9KH06RERnKwYWIqI+WicN3dOmTcOzzz5r9uUolUpmys1A19daV21YKNPNDhw4gA8++ADZbBbnnHMOcrmcCSsAzHQzrTVaWkahubkJ27dvx8aNG03BGQTBMe//VAOLY9uI+sJTHMe444478MUvfhGjx4w2ywgPJd/3zeMIgxCWpZDNZjF+/Hh4nofnnnsO5XLZHMv+U/jO5sCSDigSYNMhRGuNRYsW4a//+q8xZ84cZLM5aF0ZfWFgIaKzGX+DERGlOI6DmTNn4utf/7rpkZAeluNZaUnOfpfLZbN8cblcRhAEOHDgAB544AH8+c9/Rldnl1mVSqaa2bYN27bh+2Wcc845+MQnPoE5c+YgjuOqDSUHSxhFZvPFUaNG4YYbbjBTwQb7vo+HFOpKKfiBj2w2iziOUVdXh6uuugqzZ88GcPjeKQNNpTtbpHtq+ofHhoYG3HLLLfjQhz4Ez/OQ7FlTWWhgODx/Ihq5GFiIiPoopZDJZOB5Hu644w5ce+21aGhogFLqsCL4WCTcSHCRkRGtNbZt24bf/va3WL1mtSkmJeREUWT2A3FdF1dffTU+/elPY8KECWbkZmDqpP/FcdxX7Ea49NJLcd555yGbrZ2pYK7rolgsmilh0kivlMKoUaNw3XXXIZ/PHzZtrlYC16lITwkDULW0s+M4WLp0KW688UY0NDSYJazlOZ/tz52IiFPCiIhS4jg2oWX8+PHYsmULtmzZYr53LDICIAVi/14D6Sdob28HAMyfP/+wZnaZ/qWUQj6fx4QJE9DV1YUNGzagXC4fs/hUxxFKjv6vsmJZY2MjvvrVr+Kiiy5CJpMxj32op4Slw5wcJ3lcrusim83iz3/+M7q7u81UPCnoTyRw1ip5P6VHjDKZDJqamvCVr3wF11xzDfL5vHm90nvK1EroJCI6GfwNRkR0BJlMBsuWLcPdd9+N+vp6UyDKssgAqgp4KQhl2o7sni5fA5Kz4kEQ4NChQ3jyySfxxBNPmL1eAJgpYZZlwXVdKKUwa9YsfOITn8AVV1yB+vp68z3p5agqSFOPJx2Wjqz6+0pZsPs2uDx37rlYuHChKX5rSS6XA5Ac7/TS1J7nYe7cubjwwgvN8ZDFDIZDWJGpYPJPAhkALF++HMuXL0dTU5MZ2Uv3HB3fyBwRUe1iYCEiStGxhuor5jOZDJYvX47rrruuKiS4rotMJgMgKQbTIUYKSyAJKtLHEsexmcLk+z52796NJ598Eu+9917VHiHpQlyK8fPOOw+f//zncdlll1WFlnw+D8/zzCiDZVmw+jfHm0GUviLWSjaWVApQffelrOpeh8XnLzZ7wgw0qnQmpY9zup9ICvK6ujpcfvnlZpRLpovJcsdnu3RIFTNnzsQnP/lJTJs2zRwHCS2u6w6L501ENHAHKRHRCKG1RhiFcFzHFLzNzc24++67sWbNGmzatKlqidj0CMfxSDdMl0olvPPOO3j88ccxY8YMjB079rBwICGnoaEB11xzTd8ekBovv/wySqWSCRhSqMZxskek1ugLJanHpmX/SAWlktAiyUWhb4WzvulWixYtMpsOpsPX8T7PoZLL5bB48WI0NDTg0KFD0FojCIITeo1qlYSwdBgbPXo0PvvZz+LCCy80AZqIaDjiqRcioj5yVjo97cbzPFxyySX46Ec/ahrwk5W8qjcvlClcA1FKmT1X9uzZg2effRbvvPPOYWFFgoj0IjQ1NePa667FV77yFVx//fWoq6szK4fJdbXWiKIYui+UWMqCggWtFWINxFpDKQuO7SShJdbJiJKyoPpCWEtLC2bOnIlMJgNZGtiyLNM/UsuUUpg6dSqmTJkC4PAi/2wmzwOovIduuOEG3HLLLRg/fjxHUohoWONvOCKiFOl9AGCCRXNTMz71qU/h8ssvN035MqohxXC6oDweMl1s/fr1+NOf/oSdO3eaaWDyPaAyvSeOk5GWq6++Gn/1V3+FO++8E+PHjweQjMSEYWQeg903xSuWMGO+bkMBiHXfUIxKphlZdl//TawxdepUtLS0mPAlU8Xk41olwS2fz+Pcc881j9myrJqb2nYyJEBLkF24cCHuvPNOzJo167iW2yYiOpvxtxwRUUp6ypf833EdzJ8/H1/4whewd+9erF692oy0RFEEp69ZfaDAIlOTpKfCtm20t7djxYoVuPTSSzFp0iQThCSw2LZtghMA1NfXY+nSpWhoaMCECRPwyCOPYP369SgWiwAsKGhoBVTmfPX1qlgWYq2hdQzHdmA5FqI4QhxrIIwBBcybPx/XX389WlpaTGEMwDSv13JgkdfDdV2cc845JsBIf8/ZTka5tNYYNWoU7rzzTlxwwQXI5XLD4vkRER0LAwsRUT9SAMpZbfn8mmuuQUdHB/7Tf/pPaG9vN0HFcRw4jmNCxtEopUzhCcBMLduyZQtWrFiBSy65BBMnTjSFd/q+5f+lUglxHGPBggUYM2YMzj33XDz//PN4/vnnsW3bDsQREPRtSNmXV5KpYnGcLFusbOi+fhbP9dDc0oLZs2bj3HPn4tLLluFDH7oAra2t5v7ShXKt94LIYgRjxoypGvmKoqhq5OxslJ4ieO211+L666/HqFGjEAQBm+uJaNhjYCEiSrEsC+VyGZ7nmX08wjCE4zior2/AddddhzfffBO//vWv4fs+MpkMfN8/rj4J+b7rugjD0IwK9PT04L333sP777+PKZOnJLO1Uv0xUozK8ryyYtn41vG45ZZbsGTJEtxwww1Ys2Y9du7YhT179mL//v0oFAtQSPodbNtCPl+HTCaDhsYGTJ40GZMnT8a4ceMwceJETJ4yGa2tY+B5TlXvjExDqvWRCq01SqWSGZGSXiTZYNG27bM6sADJczznnHPw0Y9+FHPmzKkaDSQiGs4YWIiIUmQUpH8Ph4ygjBs3Dn/xF3+B7du345lnnoHrunBdF77vm4Ajy+n27/9QSpniWYpp+d6mTZvw+uuv48orrzzq3iGWZSGTyZgwYTs2vIyHmTNnYtasWbjqqqtx4MAhdHZ2oKurC77vA1Cw7aQ3xvM8uK6H+ro6jBkzBi2jWuC6NnScDMZYViUgyXEAkj6as6Ewtu1kH5sZM2Ygl8uhp6cHQKW/pdbJtLv0iFA6lIwbNw4f+9jHzIaeAI57sQciorMZAwsRUT/p/T6Ayj4f8vXZs2fjy1/+MrZu3YqNGzfCdV3kcrm+gFBZ0SlddMrX+09RkssePHgQ7733HrZt24apU6dWrc6V3rFcHoM8JqAyGtPU1IimpkacKGUBUvKmb1cK5fTXapVSyYpucRxj4sSJ8DzP9Aqlw2Gtkk060/+y2Sx834fWGrlcDh/5yEdw++23Y9KkSaavyLZthGEI27YZXIho2Kr9U2ZERDXEsizU19fjqquuwj333IMxY8aYUJLeADJ9Vl8K//5n+WUkI45jlMtlrFq1CitWrKgqrmXaWK1PyaoF0mcjYfFsEkWRCSpKKWSzWSilzKjLxRddjLs+fRfmzZtnvh5F0Vmx3DQR0ak6u36jExENMSkWm5qacPvtt+NLX/oS6urqUCqVAKAqsEiA6T/NTApTuT0JLdu2bcP999+PV155BUopc3Y9PS2Njk6OtQQ8AFXHuZaVy2XzvpBRId/3EUURli5diq989StYsnTJYb046VBDRDRcMbAQEZ0gCSJTp07FXXfdhRtvvBFNTU3IZrOwLMusGiZTqdJFsxSl6aliElp838err76KH/zgB3j11VdN8V0ul810MxqYHM+zifSkyHulXC4jiiLMmDED99xzD5YvXw7Xdc1UMNm4VMKuXI+IaDhiYCEiOkEy5UgavL/0pS9h+fLlVTvPp898p8NJutcgPdICJEGoUChgxYoV+Id/+Ae88cYbVder9T6MoZY+rvL52RJeZHqXvF9c18X06dNx11134cMf/jDq6+tNGJb/y+INZ8PzIyI6FQwsREQnKL0yUzabxdKlS/HZz34WM2fOhOu6Zildmd4j5Dr9eyykwJavd3R04Nlnn8V3v/tdPPzww+jo6DCjM3R06V6h9OgVgJo/dvJ+kdGSxsZGfPKTn8Sdn7jT7IuTzWYRR0m/k4zepRdkICIaruxvf/vb3x7oQkREVCFnteWfZVkYP348mpub8e6778L3fXO2HEBV8SyjL+kCM/2xFK2lUgnbt2/HunXrzNSg5uZmFqYD0Fqjra0NP//5z9Hb22v6QWpdenpXY2Mj7rjjDtxzzz2Ye85cE1YtK1nOLT2qIiGNoYWIhjN2cBIRnQATUpQFjcqqVC0tLbj99tvR1dWF7373u9i7dy+UUmbJWVmiOD1lLB14ZJUxGWUJggDFYhGrV69Gb28vDh48iE9/+tO44IILDitM0435/Ud1AJiz9v0b/6tvA7Csyu1Kw78sFXy2rVLW1dUFoDosDmVwSe/Rkx4Jymaz5jHGcYy6ujrccsstuPvuuzF37lw4roMgCMxUwnRvFFB5XmfTa0NEdKI4wkJEdIKUUoCqjIxI8PA8D5MnT0ZzczNWr16N7u5uU6BKwXm0HhYJKunw4bouLMvCoUOHsHPnTnzwwQfYs2cPGhsb0dTUZG5DAk4cx2YVKZmWlg5HlqqcoU8/F3k8YRiiVCqZxyJTq9Jn8c8G+/fvx/e+9z3zPGupoPc8D/X19QAq07nk+EpY+cpXvoKFCxcik8mY4+/YlZXA0mFXPiciGs4YWIiIThOlFOrq6jB79mw0NTXhnXfeQbFYNMU/gKoiWkYt0rvLS4iR8CHN9t3d3diyZQveffddvPvuu9ixYwds20ZLSwsymYwpyuV2TEhJ3a6Qj49UAFuWhd7eXgRBAKUqZ/TTQabW7d+/Hz/4wQ8OC2ZDSamkB8W2bQRBYMKK1sny1/l8HnfccQe+9rWvYcGCBchms2Y1MKB6sQYiopFG6aEcIyciGkbiOGmIdl0X+/fvx29+8xt85zvfwd69e6sawYEkNKR3KpeREKB6+WOZTiYhRr42evRoTJ061fTONDU1YcyYMWhsbEQ+n0ddXZ0pkKUo7unpQbFYRKlUQm9vL3p6etDb24tisYhyuQwA+PKXv4zzzz8fnueZzQklDKUXG6hVWmusWbMG559/flVI7B/azjQJfwDMsZW9VxoaGvDRj34UX/vq17Bw0UIzIpcOugwsRDSSsYeFiOg0kaJUa41x48bh05/+NACYnhYJGwDMlC25XrqglnCQXm0MqIzKWJaF/fv3Y9++fXBdF9lsFq7rwvM8uK4Lx3HMdDIpciW0hGGIMAzh+775lw5Md955J/L5vAlHSqmqMEUnRwJIeqpeFEXIZrO455578MUvfhFjxowxr70cf4AN9UREDCxERKeJBBaZ7jNmzFjcddddyOVy+Pu//3ts374dQRAkPQmOgziOTVN+uiBNN8lLcQskZ+YtyzLThCQcFQoFAJUVxoTchkwtC8PQhCQJI/2ng8nzkKlL6SZvFs0nL73Mtbzmzc3N+PSnP4177rkHU6ZMAQATVOX1kOvJ60VENBIxsBARnSZxHJsiX3pAxo4dizvvvBOO4+D//J//g23btqGzsxOWZcF1XYRhCKASBqSgleune1LSTfAyYiLXPVKvClAZWTHN231BKX05CTpSLPu+j0wmgyiKYFs2lM1C+VTJdDAxatQo/MVf/AXuueceTJs2LXndgxCFQgGe58HzPHR1dZmQKiGSiGgkYmAhIjpNJDgEQQDP8xBFEcrlMpqamvDRj34UDQ0N+Od//me8/vrrKBaLJqSkrwfgsFCRHjmR4rX/Cl7pkRPRfxRFbvNovRy+78P1XLheElwcx4FlJ034uVzurGi4r1VRFJkloidPnoyvfOUruOuuuzBhwoSqETbLroyg5XI5M42Qx56IRjIGFiKi00SmhEmBKUHEsiyMGTMGN910ExobG3HvvffiqaeeqpqKlR5JkWZrCRbpkNI/mEgAOVoIOdI0saNxPRe+7yMIwqQHRikoSyGby0FZZ9coy5FGms4EWZjA9/2qQCrLTc+dOxdf//rX8bGPfcxsBCqPTUZh5P0gI2mcCkZEIx0DCxHRaSShQz5O93/kcjksu2QZxo0bh5kzZ+InP/kJ8vk8isUigEqhKn0uMi0rDENzhv1kCvHjuQwARFGMjRs3obOzE2PHjkWsY2gAtpMU2xoaCiyej0SmbskoGZAEEJni5zgObrzxRvybf/NvcNFFF6GhocEEEqCyY71cTzCsEBExsBARnTGWZaGhsQHnnXce/uZv/gb19fW49957EcfJniu+71emYqVGWWRp4uMNHicrjiOsf389uru7MXbcWEAj+acAS1kMK8cgoUQWN0iPkLiui+uvvx7f+MY3cOmll8LzPABJGCmXy1yymIhoAAwsRERniEzrCoIAEydOxDe/+U3MnTsXP/7xj/Hqq69CqWRJW5lOlG6UB1C1ytdgsCwLPd09CKMwCUd9NbSCArPKsbmuazbY9DwPtm2jXC5j+vTpuOeee3DHHXdg0qRJlal9YYRYx2YKGad+EREdHQMLEdEZItO7pEgdO3YsbrnlFsybNw/33XcffvzjH6NYLJri1/d9s8oXgKpelMGgtUYul4Nt2QiDMJkKpmNYqCx3TEcWBIEZZZEelgsuuADf/MY3ccONN6ClpcWMvmitYdkWlFZVU8GIiOjIGFiIiM4QmSJUKpWQzWZRLpdRV1eH+fPn4xvf+AZmzZqF733ve9i2bZuZViTFL3D8vSgnKwwj5HI5qFSzd1Vzv+KksKNxHAeZTAZBEKCurg7Lly/H5z73OSxbtgxNTU3meEZRBMuy4HmeCaPpXiciIjocAwsR0RkkfQ5KKdPLkMlkMG3aNHzhC19AY2Mjvv/972Pt2rUmtJTLZWQyGQBAuVw+1s2fGq0RRiEAbUYKpIdFMawck4yczJo1C5///Ofx8Y9/HBMnTkQ2m4XWyQiMbdvIZDJQSqFYLCIMQy4XTUR0HBhYiIjOmMqZdDnTLrvdu66L+vp63HrrrZg7dy4ef/xx/PznP8eOHTvgeV7VSMtgsR0bxWLRLAIQxcku67ZmU/hAmpqacMcdd+Duu+/GzJkz0dTUhGw22zeNT5twKiMq2WzWrCiWXlmOiIgOx8BCRHSGJDVpUpjKKIucXZeCta6uDosWLcL06dNxzjnn4F//9V/xyiuvoFgsHnFKmKxGFcexmcJ1pF4XmY52rGllSiWjOVGY9Mwo9N2ejmGrs2DKkkbfMYA5HvK8B+r/kcumj6O8NumvyesmIyr5fB5z5szB5z//eXzmM5/F2LFjzKpu8tr0vx/5f3q1MCIiOjoGFiKiIZAuXNOkr2HUqFG47bbbsGTJErzwwgv4yU9+gldffRWO48BxHIRhaIpwWQpZCnPXdU1jvzT6DxRWRMbLmE0OAUBZyapWCgp2jU9dquwTM/Dz7M+2bbNCmzz/dMiRzUDT+6xMnjwZd911Fz71yU9h9pzZaGpqMt87WghJf51BhYjo+DCwEBHVEM/zTP+IUgozZszAmDFjMHPmTPzyl7/EI488gvb2dliWlUzbSk0tA2CK7VKpZG4z3Th/LGEYAiq5XBAEcFwHtpWMKOhY1/zGkekQKCMi8pzl86OJoqhqVCYMQyiVLDMdhiHCMITneX09KRqXX345vv71r+Pyyy9HY2Nj1WaPRER0evE3LBFRDQmCAL7vI5PJmCJ41KhRuPjii3HuuefiE5/4BH7xi1/gySefRHd3t1kqN5vNAgB83zfhxXEcuK4LIGnWP549XMqlMqI4grKS4l9rDUtZCHQAS1uo5UGBIwWSgUKacF0X+Xwevu+b0SsJhHLclFJYsmQJvvSlL+HKK69EU1OTeY04WkJENHgYWIiIaojruqYILpfLCIIAmUwGdXV1yGazuOyyyzBp0iRcfPHFuP/++/H2229XNe8DlQ0q0xtNHk/h7rpuMorSN7KgNRCEAVzHTaadWTZqOrEAZlRFAkR6hOVYgiBAb2+vmU6X3vvGsiycc845uPPOO3HzzTdj4cKFyOVyVSM46fskIqLTi4GFiKjGyNQkz/PMfh3FYhGWZaGxsRHz58/HjBkz8LGPfQwrVqzAb37zG7z88svo7OwEkDTYS0+LNH97nocgCKp6MI50v/X19XBsx/SCaJ1MBXNs56wpyGVa1/GMKAnpYZHjLLcxZ84cfPGLX8Sdd96JhoYG5PN5AEnASR9fTgkjIho8/A1LRFRDpHFeiuYgCBBFkWmil6Z6ABg/fjw+/vGP45JLLsGKFSvwq1/9Cm+88QYKhYK5DSDpzyiVSgOOskRRiFkzZyFfl4cf+HAdF5ayAKikr+aY1x560qeiVPXy0envHU16hAoApk+fjk9+8pP4xCc+gdmzZyOXy5npYZ7nmeWJHccx/S/cT4WIaHAwsBAR1Yg4jqG1hud60H2jG7L0bf/LWZZlNpOcNm0aJk6ciCuuuAIrVqzAI488gtdeew0HDx6srPbVb4rUkbiuh0WLFmHsmLFmZEUpBd8vw3O9ml8lLJE8T1nOOB1YjiWOYziOg0suuQSf/exncfXVV2P8+PFmY0fbtk1Pi+ybE0URyuWyWbmNiIgGB3/DEhHViPQZeoWjbybY/+uZTAaZTAazZ8/G5MmT8bGPfQyrV6/Gfffdh6eeegrt7e2m6d5xHLNkb//VtM5btAhjx4yBllEcDTi2DUspWGfBdDAJco2Njbj66qvxwgsvmB3mZQGCUqkE27aRy+XMAgVjx47F5Zdfjr/4i7/AvHnzMGHCBLNZZ9Vr0jeiIhzHMfuyEBHR4FF6oDkCRER0VvB93zTpA0ChUECpVMI777yD73//+3j66adRKpXMNCaZAuW6LrLZLL7xjW/gG9/4BsaOHQvHcRAEgZl+Jh/X+rSnOI4RBAFWrVqFT3ziE9izZw8ymQx6e3th2zYymQzK5TI8z8MFF1yAz33uc7jmmmswatQo2LaN5ubmqg0kgcru9DLNjIiIziwGFiKiYSQ9cuL7vim2fd/Hpk2b8PDDD+OPf/wj2trazJSmiy66CH/1V3+FpUuXorm52Ux5KpVKZnnlIAjM/jC1SGttQlWhUECxWMTu3bvx3//7f8fatWuxbds2uK6L1tZW3HDDDfjUpz6FOXPmAEj2vmloaDDT5WQPFtnTRmvNkRQioiHEwEJENIwEQYByuWx6XGRERGuNcrlsNkEslUpmilgul0NdXR1s20YQBIjjGJ7nmcACwCwCUMuCIEjClpMsz9zR0WEa4qVR3rIsWJYF13WRy+XgOA7CMITv+6ZfSPpZ0iuNsUeFiGjoMLAQEQ0Tvu+bPot08ABginX52LYd2LZlRiakX0M2TJQVyhzHQaFQQC6Xq/kpUXEco1gsmg0gZZSkVCqhrq7O9OrIUsTSvyOjKEea9hVFEbTWDCxEREOIv4GJiIaJ9MpVSimzh0sYhqZBXERRCK0tswKWFO8y7cv3fTPKAMAEmVon+6TIKmHSdA/0LWRgVUKKTJ9Lvp/sOwNUVmuzbduEOAk0RER05nGEhYhoGEkvY6yUMsV2upFcivkkpABa97tOFCOKIxNe0n0xtSwMQzOiEkUR8vl8Xz+OB61jE1QkpOm+ZY/lmMgoVHoxAgVllncmIqKhwcBCRDRMpMMJUJkGZlmW2Zld9hMRshmifD2OYkDBFPDlcrmvF8ZGrdfs6dEk6dnJeBkzqiKhSy53pOAin6dDnhw3IiIaGgwsRERERERUs2p7QX0iIiIiIhrRGFiIiIiIiKhmMbAQEREREVHNYmAhIiIiIqKaxcBCREREREQ1i4GFiIiIiIhqFgMLERERERHVLAYWIiIiIiKqWQwsRERERERUsxhYiIiIiIioZjGwEBERERFRzWJgISIiIiKimsXAQkRERERENYuBhYiIiIiIahYDC9ExaK1P6HvHujyduNN5PI/7to5yseO+Ph2m1o/dmXx8Wve7vzN310REZy1noAsQjURaa4RhCK01bNuGZVWyvVIKcRwjDEO4rmu+Lpf3PM8UJEqpqtuUr8vtaa2TgkVVbjt92TiOYds2oigy95u+z6OJ49hcH4B5DnK76ceXfoxxHEMpVfV8h0oQBNBaw3Gc6uPWd7zSjxtA1XOzLAtKKYRhCMuyYFkWgiCA67qHXa8/P/Dhuh6UAqIoMq9B+vWW10JrXXV7/Y/n2UjeA3EcI45jOI6DOI7NMT2W9PGXY6O1RhAE8DzvmNcdbOmfp+S1A2zbQhRFCIIA2Wx2oJs4ZrCR94O83+Ty6Z9pIPW+th1YdvK+VErBcZwBjy8R0Uil9Jk8tUR0lgiCAI6T5PkwCBFGITzPg23Z0NBVBVyxWIRSCplMxhRsYRhCKWWCQv/gAqQKbg1o6MOKG9/3Eccx8vl8VfEnRdexmPuAMmFIa22CjzymKIoQhiEAwHEcU2gNZeEURREsy0IYhrBtG77vmyKw//PuXwwCQLFYhG3bcF0XURQBAFzXPSxcHInWGuVyGZ7nIY5j9Pb2wrIs1NXVmcI7k8mY10JCqhSqw6HolJAXhmHV85H3dDqUHem5pl8TeQ2BSkgfKvKzI2FMgov8HJzqa5f+uZafNXnP2bYNpZT5WbNtG8ViEQCQyWTg+z5s2x7yUEdEVKsYWIiOQIrTMAzNmVcpbICk+CqXy8hkMlWf93T3QAOIokohK2fp0+SMajrQOI6DbCYL10vO4ksxJR/L5bTWxwwscRwjCAIAqLp9+V4YhoiiCJ7nmeJTislyuQyl1JAWTvJcJThI0SsF8LEemxyf9Ody7C0rOZt+PGGvp6cHANDQ0IAoilAsFk1ocl33sOK7lkamToUcKzlulmWhVCqZ98pAzy99fSAJ/hLkjicwDrZ0QLFt2/ycSGAZ6L1xLPJzng7+Qo5nEATmMUiIPh33TUQ03DGwEB1BuVw2hWmpVILv+8jlcmZKkBRzYRhi9+7dCMMQYRhizZo1ePPNN/HBBx8gCAKUSiWUy+WqoGPbNhobG5HP59Hc3IxRo0Zh3LhxmDRpEiZOnIiWlhZ4noexY8cin8+bYtnzvBOYugKY2lADsY6rzoxLmEqfFZai6ngK08HU29uLXC7X93g0wjAp8jzPq3pc/Yvf5PkAQeCb6Uz5fN6c2ZYCdaAwJmfiy+UystksisUi6urqTDEuryVQCYRyf3I2/WwlRbcEQ9u2US6XTRF+pMCR/hOSHllIF+Su65opeUNJ3vMyvU9+jsVAgep4/lzK7ad/lmSkEIA5FvIzHceVqWQD3T8R0UjFwEJ0BKVSyRSfUoAmhayGUsC+fftQLpexbds2/OlPf8JTTz2FjRs3ore310z/kMKvPymQZDQgPW0pn8+jpaUFS5YswU033YRLLrkEuVwOo0ePRiaTQbFYRENDwzEDhY41ojiqGpFJB5M4js3UMJkGk+7XqYWCW0a4AJhiTymFcrlsRjrSBZ6EjOQMt4tcLgkajuPAcRwUi0UTggYixSSQFPC9vb3IZDLo6elBPp83x0eOIQBTcGYymZo4fidLQplMw5Mpg3L8JcTL8+5/PCVUlkolZLNZKKXg+74ZKZNplkMl/fxkStihQ4cQhuFxhdnj4TgOPM9DJpOB67om1GqtUSwWEYYhcrmc+T0hx0hG74iI6HAMLERHINNXpGCTor+7qxvtHe2477778Nhjj+Gdd94BkEwd8n3fFGqlUgkADjtrmh7ZkLOvUmzL1Bk5Yy9nuRctWoS//Mu/xPLlyzFhwgSEYYi6urojPu40uV2gEpKk4TddGCmloKCgoU3/yFCOsMgZeglQmzZtwvvvf4Ag8NHV1YV8Pm/OWvcPLFonix5cc801yOfzZoqOTC8DBj6LDiR9S2Xfx2uvvYqOjg7EcYzu7m6MGjUKhUIBQGU0Qu6jqakJ06dPx6JFiwa49drV29sL13XheR42bdqE9957D4cOHUIURcjlciZcy3tXCm75+KKLLsLUqVPNiJbjOCiVSqbvZ6jJz5mcKNi+fTt+85vfYOvWrWhvbzev7ZHIcz2aTCaD+vp61NfXY+zYsZgwYQImTpyI1nGtaGxqRH19vRlZlRMH/UdWauEYERHVIgYWoiMol33YtoUwjBCGSZHf1taG3/72t/jFL36B9evXA0hGRdLTP6RgltGBNAkp8nG6UJHiRT6X6SIy+tHY2Ijly5fjBz/4ARoaGo5Z2KRHVHp7e3Hw4EH09PSY+wCA+vp6jBs3DrlcriosyfeHsnBK90z4vo9vfetb+NWvfoXe3l4AqHoe/SmlMH/+fPzTP/0TLrnkEljKSnqCNKCsytn+Y5Hjt379elx11VU4ePAgPM8z/T1AJYhK4es4DlpaWnDDDTfg5z//+TFvv5ZJw71SCt/5znfw05/+FBs2bKgK7enCXT6Wf//4j/+Iz3zmM6irqzNTweSY959+NRQk2Np2svLea6+9hm984xtYu3at+Tk+lmP9XEgfivSpWJaFfD6PUaNGoaWlBfPmzcPy5cuxdOlSjBs3Dvl83oxCSegjIqIjG9rxeaIakD7rCiRFSSbjmdGSjo4iHnzwQfzkJz/BK6+8Yi4fRZGZly5FnozIyHSTdAEkIxeWZZkVwNLSZ6qld0Cud+jQIezdu9c0gR8tXCRFZTLlZc+evXj11Vfw2GOP49VXX8WePbvh+wHGjBmDyy+/DDfffDOuu+46TJgwAXFU6cE4XscKN+nwdaKy2awpkD3Pw4EDB1Aulw87I50OZukieu3ateju7oHnJasvhWHf9DfLhn0cU5Lkfurq6tDe3g6gshiBbdtV0/zkNYuiCD09Peju7j7azZ4VHMcx7+ENGzZgx44dpm8q/Z6V497/Pbx+/Xp0dXcnI4BKQSOZ0qdR+TkbSlrrqpMJURRh//79iKIInpcxUw7T4Uzr9HM8+nta+tgk/MdxbN4T27dvx8qVK/Hwww9jwYIFuPPOO3H99ddj5syZyGQyVSOr6feyOJWfJyKi4WDgv95Ew5QUXXIGWJqLpQi1bRtbt27F7373O/zjP/4jDhw4AK31YUUrUF24pYs6Kazlc5lG1D9kyP/lunEcm5GaOI4PW5lKbkuKaLmu1hq+H2D1e6vx69/8Bo888gi2bt1iRmxsy8b+tv146MGH8corr2Hr1m348pe/gjFjxkDrSviQqT8SvIQUU3L/chm5nhR6siy0XD99HI6naJVgByQjLhJU+odAkQ4vjuth85YtiLRGJpsx+/JpAJYa+L7TzzkdiLSuLFcNVKauyeOMouiII2tnG6WUaUiXnwV5DQZS9n1kc1nEWsOy+3q1rGS64fGExcGWnIyoTE+L42Tpanltbds2/TZRFMO2LPh9r6lKbuAYtw1zm/L+SYcPeY++9957WLt2LX7729/ii1/8Iq699lpMmDAB9fX1ZoGN9NLZ8nN9qssuExGdzYb+LwjREJAw4fs+MplMX4ESIZvNoru7G57nYf/+/fi3//bf4o9//KMZFQGOb7rU0YpqIUVuOtTIPykSpfk7jmNkMhm0tLSY60qhLN+XAOU4DtauWYN/+Md/xIoXXsCOnTv7Ag3Q21uA6zjwMh7CIMT+tjb85Cc/haUsfOOb30BzUzMCPwAU4DiVhQN0XCk+00XskZaqVaqy10T/UJYexTpRx3PM0452N1od6xz5qTvZ51eLTua5mPd96iBrDO4xPxXpMGFZCoCFUik5cdHY2AitNepUEnSVUoiPcUziOIJSMAFPFu5wHMdMN5NRU8dx8O677+Jb3/oWbrvtNnzta1/D+eefj4aGBpTLZRP4JSCfzQs5EBGdDgwsNCLJmUspyqUoiOMYuVwObW1t+Pa3v43HHnsMcRxX9T4caeWv/voX2OniLz06kb6sBBd5LLJykFIKuVwOs2bNQhynd+quDjgA0NHRgVdfew3PP/88Dh48CDs1UmHbFqI4RlQswbJtKGjs27cPv3/gAUyaPBl33HEHcrkcLKvyONIrYcnZYjl26alZ6ecio1NybKMo6pty451w8DgZ5vGceL193OTY9//8ZIr8WnaizyeKIkAj2bA0pf/ntUCeW9V7UicjGQsWLMBVV10Jy7LNSl8KOOYIWhSFgEput62tDXv27DFTwvbs2WM2ikwv1hDHMR588EF0d3fjm9/8Ji6//HJkMpmqZY8BmNHfoV5ljYhoqPC3H41YcRxXLXlrWclmhWEY4m//9m/x61//GuVyGQ0NDejp6TEh4ngcKYQARy4Aj1TEy+UkTNXV1WHhwoWIoqiveKpe1UuaiDdu3Iinn34ae/bshmUloSEIAti2Ddf1UtNVNKJIw7aSVbiee+45XHbZZZg9axaiOILjVKZFpUeDjjRK0n8kRZ6vnB2uzM/XUOrYm172d7JBQGsNLYllEE/xH+m5Dxcnc+zjOKoc9z4SVjR0TQSXw8JU32sYRzGgFMaNGYdbb70V/+E//Ae4rlsV3F3n6O9djeT5B34AjWQlPr/s48233sSDDz6Il156Cdu2bUN7e7v52ZJloJ944gkUCgVkMhlcdtll5n7lpEWtrLJGRDRUGFhoxEoXzlKMu66LJ554Ar/+9a/NSIrMKy8Wi6ivrze7oB9Leg77kf6f7uNIF4Xyfwkm0mA/atQoLFy4sFJEInm8/Zv8d+/ejXXr1sG2HYRBANU3dSuKIpRLJdiODaUsRFEShIK+qSrbt2/Hli2bMXPmTDM6kowCJSMm6d6NXbt24cCBA2aUxxR8fVPT0tf3PA+tra1obm42YSebzQ4YWtLFcvrYHE/xbC6jkyJyEPMKgOppRcfz+M4mJ/qcwjDqC6aqElzk4GsN1ELRraqDtfwsKsuCYzsIwtCcmJDlsC3Lgm1ZiI9xKKQ538t4fZ9rZHNZXH755Vi2bBnef/99PPzww3jkkUewfv16syeL/BytWLECjz/+OGbMmIHJkyebKZfp6Z4MLUQ0UjGw0IiklDJFdTabNSMZO3bswL/8y7+YVamkT0SKBSlwjtSjkibFebrYThcbR5pWli6e4jhptJfAMnXqVEydOjUpBLU2o0PScB9FsZkuUij0muvK6AsgzbuAgjbX01ojimPs378fBw4chI5jWI5r6sr+9VFXVxe+//3v46GHHjpsGVgJT7lcDqVSCb29vRg9ejQ+9alP4Z577sG0adOqgs/xOpGCGUiFnUGaE9b/tUx//UQf63CTLEQQJyFFo+o1qI0jUz0iBlT/LoiiGPkogkKyr4qOY1i2lfwcDPAEZAl0z/NMIA+CADLKuHDhQsybNw9LlizB3/3d3+Gll14CgL6f32SK6OOPP44rr7wSU6ZMMdM/ZZEP+ZyIaCRiYKERK46TAlN6MaIowq9+9SusWLHC7Fsiy7lmMhlks1kz2jJQYOk/VUgpZYoPpZSZmiXhI33GV0jgyGazmDFjhmkClgJLxxpQlVWt5D6KhWIyX74vjERmqVW3rwCrTBWTxwIktyOjNo5jm6kzctuWZaGtrQ0ffPABNm7caB730biui97eXqxcuRL79u3D+PHjzdnq4yHhLH1M5Gs0+EzwS7/nBjj2cRwd/TKDPdR1EuR5yceO7cCyZdW9CFEYwYEDy7aSsH+Mx++6Lly3ehQk3XOi4ySYXHH5FSgUCiiVSnjzzTfNlE3HcfDBBx/g6aefxnnnnYfx48ebnzuZVklENFIxsNCIlJ5mISMp27dtx+9+9zsUCoWqQtmyLBNgZPSg/wo+YRhWfS2fzyOXy6GxsRFNTU1obEx2upYGXiAJJMVi0TTmShFTLBbR0dFhwlRTUxPmzp1riispYtI9IkASLKIogmXbcBwbUVQdqqT4LJfLUAAcNxlJCcPYBLIkzPSFLOvwIrVQKKBQKBxxJTB5XOkgI6MudXV1yOfzZi+PgYqvdBGZvo/jpRSO3C8xSEWzPMaBCvrhLh3kFdSAxzs9ynFmVD+g9M95HEfw46S/S0Yvnb6elTgGdBxD2Ud/3+o4Rqwro7LyuyG5fowwqiybfMMNN+DgwYM4cOAANm7cCFkS27IsPPzww1i6dCluu+025HN5hFGIEf62IiJiYKGRKQxDZDIZ00wbRRHu++V92LJliynsgWQPkDRZ6SeTyZiRDc/zoLVGLpeD4ziYPn06Lr74YkycOBGzZ8/GrFmzMHXqVIwZM8ZcRwr73t5e7Nu3D3v37sXevXvR1taGffv2YfXq1di3bx/a2tqwYMECXHHFFaYnREZlgOpRiDiO0dLSglmzZuHNN98y34dOJuYopWDJlBIlq6PBjOBMnTq16rlK0ZW+v3y+Dtls1lwmXaDL5dJFGgB0d3eb5VylmfhkHW8gUMpKAheqS1Q90Gny45AOjkJeg4GC2NnqeI97EKSmOqpkFNNWVtJwryor8h0p4J3K++JEyckAeTxa6743ioJSFhzXTUZX3OS9bFkAlHXM8KVsCxaO/Pqnf5aA5LnedNNNeOedd7Bt2zbTXB/HMfbs2YNVq1Zh2SXLMGXqFK4MRkQEBhYaoXK5HLTWKJVKyOVy2LlzJ/74xz+aueQDKZfLZqM33/fhOA5aW1tx66234uabb8aVV15Z1Y8ixWwyTz4yUzwaGhpQX1+PmTNnwbIU4jiZilIul7F+/XqsXLkS2WwWra2tUKp6GpeEFwldcawxa9YsXHHFFVi5clXSpxLHSeN5HJsRmUzGQxTFfXs9uGhtbcWyZcswe/ZsMx2sP6UUFNQJ1foSWNKNxWeyKD3T5BiNZMlUx8OnNyaqV7UDDu/1GtL3hwIADaX6Mu1pfijp4O95Hpqbm7Fo0SJMmjQJGzduNM89CAK89tpruOWWWzB5yuSqkwBERCMVAwuNSLKaVSaTQRzHePzxx7Fhwwa4rnvYqMqRZDIZdHR0wHVdZDIZzJs3D5/85Cfx9a9/3azuI8WJjKikz8Cng1HlrLOTnMnVyZz1D134ISxevBhxnDTUFwoFWJaFXC7X19ys+wrEuG9RAKC1tRXLly/Hm2++hZUrV6KrsxOu5wLahopChGEEv+xDWclu5rlcDueddx6WLVuGfD7fFywsE0ykmFRK9Z0xP3bfSvo6Ij0aNFykj0tVsT18nuIpSL8/0h8nI3zWEUamau29UfV4ZIjuFB9ielTJtm3kcjlccMEFmDFjBjZv3lwV8lauXIm2traaPDZERENheM5fIBqAFPqymtaf/vQnBEFg+lMGKhJkipPneZg2bRq+853v4Ktf/Wpq7rtjmuxlNEUChpxllmIkvdqXjpPVrTKZDKI4MmdXLctCXV2d2Y/Btm0z2iL/5HJLlizBX/3VX+Hyyy9H6/jxcF0PQRgCOmms7yuvkc/nsWTJEnzpi1/ERRddhFKpeMRVvNKFlu/7A26cmS7g5XmPBCwuAduxYVvJ0tlA6r2Avvdov2mG8q9W3iNKAZalYFmV0cTTtdpc+v2RPF+FmTNnmiWM5WSGUgqdnZ3o6ekx16mlY0RENBQ4wkIjkud5ZtfqAwcOYOvWrQiCAOVy2TSHH4tM0WhqasJ//I//EcuWLUMcx1U7YSske1HICIus9mPbNsrlclVzrhT3ylZAX9+yhBmttVlJSIo9KWIkEMg0M2lw//CHP4yxY8fiwQcewIsvvojde/aYxQQaGhowfvx4nHfeebjttttwxRVXQGsN1/UgG0ZaljKPQYRhhFKpdMzdvoFKfwAA83jl68O5oGdBmfxcSO9QrIGBav10AZ9+3wyl9EmA0616VE6jubkZo0aNqlqIQ45DZ2cnSqUS6uvrzSgsEdFIxcBCI5KMXIRhiJdfftkUB57nwff9AYtPWer4W9/6Fm677TYolexKnc1mq4p1oHqDSjmjLI3rcqY5rf8ZaACwlHVYT4yMygCo6ovRcTJCc9FFF2Hx4sVYuXIlVqxYgba2NmQyGUycOBHnn78Y5547Dy3NzdB9jzEKQ+hYJ6HpiPRhe68cTTqoSBGWHnkZTvoX3SOZjjXkECjzn36X6Xec5H1dS8cu3SR/ut63MkqSDkOO46Curg6u65oTARJYdu/ejc7OTuTz+VO+byKisx0DC41IElgcx8Fzzz2H9vZ2AMkqVoVCYYBrJ0XFzJkz8e/+3b8zjfTZbBZKKdMEny7EjlbU9i+G5PtStMgIi4yoyP9lupn04sjqY0opKNtC3LekcV1dHhdffDGWLFlStfyx3FcQhtBxDDuXg+NWfh1IfZR+fCdy1jkdunzfN6HleK9f6452LGqp6B4KQRggikLEOoZKhWwNbUZbZCRT3see51VNiRpqg/UeTf8MpX+mc7kcMpkMenp6zGXjOMaBAweqllgfrMdFRHQ2YGChESndGL9hwwaUSiVonawalu67kP+nVzOS0Y1vfev/MfuvFAtF2E7SxK91ZSd56QmRANN/WpfcbvpsroSVKIrMWVm5XnLm1zJTzaI4hu04sPv2k4mjvtBiKbgq2ezOshRsO717vQVoQFkKtm31jeRE5vlaVmXePADzXE6kaJLjlp62lg5r8nzlMvIcJYD1L+rSt3k8bNsyfdLyL4o1oDWOeNr/CGSpWSAZJZJQCFQ/liN9HMdJr5LruuZ9JsfheArz/repkLymp0qOqZDFH/qPCp6swPcRhVHy/lJAV1c3du3ahT19UxKLhQKKxWRjUxkVzGazaGhoQD6fx/jx4zFnzpzDRhWUUkgyT+Xxy2OX1+V4jquQ20i/D9PHpv/P/+mQDivpn3mg8vslfRkJdf2le+DSPy8AkMqFVeTbcZy8/62+H4owjJOfFQVEUdz3+yB5v5rVAo//RyYZobUUoqgyhU1WP7SUMreTPA6YqadxnPzeSR/u/m/F/u/d5GvVl016APuONYBY6+Tnv99t675ALapuVi6nkttPNuhVVZdJf9z/Mcjxkq/L79TjpXWyJ1BlmmCc+vlMpuZqHUNBIegb8ZbXSmuNbDZrfl/J/9PHzvd9eJ4HAObvF9HZgO9UGtEOHDiAA75EWsYAAHSmSURBVAcOmF/oYRjC87yq0Qytk43kZCTFsixMmDABN9zwEXM5L+OZPwi2bVdVDf2nvKSLq3SB1P+PsfzBMsW7pRBLJQgFKAuO4yHua9SHTu5r27ZteOP118zj7X8/8rlSSfBqaRmF+fPnYdy4cX33VemLSRdR3d3d2LZtmxmNOhqnLzxJCCkUCnjuueewdetWU1zK40h2B3fR0tKCCy64AJ6XHEcJlEByRl6KvONhKcCxLcRRiCDuK5pcFzqu9OYcqyCV55ss+5z8ipQ//CI9vUf+LyHT933Ytm36jqIo2Txz//79WL9+vRnB07pvOqCGaeyW23FdFzNmzMCcOXOqHpdt28cszNetW4fNmzeb8CoLN6Qfr4zc1dXVYf78+RgzZowpgNPP8WT4ZR/729rQfugQdu7ciTVr1mDVqlVYs2YN9u/fj46ODpRKJYRhaO7TdV3U19ejubkZ55xzDj7ykY/gggsuwJw5czBq1CizCIaGNsdMjnXyfGzzczmw5PVP/6z1fw/Ifch7Lh0mTpX8XMn7RkK6PCcJKPIzIMcofd9y7ACY96jjuIjCGD09vTh06BDa29vR1dWFnt6epB9PJxvFdnd3mb2Q8vk6NDY2YHzreEyaPAme55oiGFrDspJNZOW9P9DTj6IYWgPlYgme6/b9ntJQykG57KOjowPt7Ydw8OAhdHV1wfd9BEFgFvJwHAeu6yKbySCXz6Ourg51+TyyuVzye6PvuEEpWEr1bXKbHBs5udPS0ozm5mZYykLYd9LAcRwoXfkdqxQQ+CGUZcGxbcjcxSjSKBaKaNvfhn1796GrqwvFYhG9hV7zM6o1kMtmkclk4LguRrW0YOLEiRgzdjRy2Sz8vp95x0mm5sZaA1pDqWMfP3kLlkpleJ6LKNKIwgCu52Lfvjb0dHejq7sbPT092Ld3L7r7FmQoFAqIorDv92ZyGxMmTIBt2xg9ejRc10VzczMaGxvR0tICx3Gqfq+lPyaqdXyn0ogVBAHee+89tLe3myJA60qfhimUUsU7kBQTV111Ferr66sKvPSZLCkUAZjCRwqU9Jn65ALoOyN3+CiEXL9yO31/OPvOJCaPuVJAl8oBnnn6afy//+//YwqC/mdppejVWqOurg4LFizAX//1X+PjH/+4KaCiKGmw37lzJ9ra2tDZ0YlNmzfh+eefx+bNm3EscttAEki2b9+O//W//hdKpZJZRrpYLMKyLNTX16O+vh4LFy7E3/3d32HevHnHvO3j1b8wdF237/Wp3nBTLisBU0aupKCX192yLFMk93+N5OM4Tva6KRaLaGxsRDab7QsLydnyJ598Ev/4j/+I/fv3Q4ri9CiavD9c10U+n8cNN9yAr3/961WhZaCi/MEHH8SP/vlHCKMQYVj5J/cjiz5kMhmMGTMGX/jCF/CpT30K48aNO67bH8jOnTvxf//v/8XmzZuxcuVKbNu2Da7rAkiOs7wfLcsyPwelUgnlchk9PT3YunUrnnnmGVx66aVYtmwZPvaxj2HJkiUol8vmsZfLZbiua0KtvKbpEwEnQ37eJOgfK9ScrHSQVerIo4cSKhsbG6s2WpXfUZ7rIYqjvv2fXGzfvg3btm3Hnt17sWv3HmzdsgVbt23Dnj17cOjgQfT2FbXZbBadnZ1obm5Bb28vmpqacO7cuZg8eTIWLlyIc+bOwcyZMzFr1qzkNdMasU5GP46npo2jGFAKpVIJURiirm+fqg/e/wC79+zGSy++hA82bMCWLZvR0dGB7u4edHR0oFwuI4k2GtlsDk2NjWgZNQqjR49GS0sL6uvrkz2n4tiEBsuykMlkzOMs+z7iOMbUqVMxc+ZMzJ07F4sWLer72YoBVH4n2bYFKIVIgp8G9uzZjffXf4CNGzdi1XvvYd26ddi1axc6OjpQKPQiDOU9kWyem8/lkK+rw/Tp03Heeefh4osvwjnnzMHEiRMxatSo5Hey7gsrxzG6EscxLGXB9324jgPPc7Bnzz7s3r0br776KlatWoVdu3Ziz+492LFjBzo6OwAkoy22bfUF9uR+xo4di/r6ekycOBHNzc0YPXo0LrzwQixatAitra2YO3du8h60bDPSQnQ2OI5fQ0TDUxzHePfdd9Hd3Y3K2Tdllu2VwkHOUKd97GMfQ319vSmQ5PthGJppQL7vQymFXC5nzgLKCI6cOdU6GR1RqMxvl0JW7r//GVbd933Z00IrBUslj3P3/t19U9zKkGleVVNG+sjj7enpwcaNG7Fnz56qYm/VqlV4/vnnsW7dOqxfvx5btmxBR0dH1fE5GinI0kWYrLpWKpVMyJPg0tXVZS7T/3GeDCmElVLIZrMIw9AEgvTt9z+uQnpugiCAZVlmapi8Hkd6/nL7ElpkyWl5LD09PXj//fexZs0aE+jS/4RSyZn1zs5O/OlPf8J5552H2bNnmwJ/IB0dHdixcweAw4tseb/Zto2uri60t7fjZz/7Gc477zxMnDjRHKdTeQ0++OAD7Nu3D52dnSZQyPHI5/PmcvJ85OdLfl7kZ+OVV17B66+/jnXr1uHuu+/Gtdde1/f+VFWjXkEQmOucamABYH5OZWQy/fhOBwkd6Z/JUqmEUqlU9TtGa42xY8eirq7O3Ld837KSEbLdu3fjtddew4svvojXXnsdmzdtQXd3j/k5siwLsdaI+55Ld3c3HMeB75dR6O1FobcXB/bvN8916rSpuOyyS3H5ZZdh4cKFuOjii5P3sGWhXPKRyR67uLX7zt63tLRg165dOHDgAN5+5x08+OCD2LFjB1auXIlCby/CSDanVYjjCAoKluMgCgL09vagt7cXe/ftq3qdtdbJCKlt9wWp6pMICpUwmMvn8eUv/yX+7u/+PglCGnAcC4EfJFNo7Uzy+ymO0dHejo2bNuGxxx7H039+Gps2bUJHR4c5KRTFMSylkvCB5Nh3d3ehqysZqdq9exdWvPACHnt0OubNn4frrrsWV1x+BWbNmoVcPgc/CGHb1nG9L/0gQH19PcqlEtas3Yjnn3sOTz/zDD54/31s374dxWIRtuMA0MnU377bTN6jlRMpBw4cwL59+7B161bEcdIn9vLLL2PmzJk499xz8T//5/80v0vSJ9mIah0DC41YjuNg06ZNVWfipYjtXyT0/9pll11m9nBJFzPpAlT2TJECKJPJmOJALnNYGEn9YZQ/cibY9P2h1lr3nW1O5puHfX+wZQpJsVRCEFSKFim25falAJMz34VCAYVCoaqgffaZZ/Hf/vt/M3Pk5T6DIBgwsEjRLWf3AZhjG8dx1ZLO8hw7OzsRBAFkas+p/AG1bRurV6/GE088gaamJth2srhC+tj3/ydfF0opbNmyxVwviiITZI5G62QEobe3F/X19eY5WJaFcrmM3t5eADjsNuRy6ePvOMlGoe3t7WbUJR2CjiX9Xk3/X94PQPKYgiBAJpNBNps1YeGw0b8TpJQyJwBkpLK+vh6FQgHlctkcbxnxAaqPe7lcRmNjIzo7OzFq1Cg89thjWLNmDf7pn/4J1113HcrlMjKZDIBK6JHjMdD78njJz0j6Zyb9GE+FvH7yXgnDEIcOHaoK6/L/1tZWNDY2mtAkz1MezyuvvIJvf/vb2L59O4IgRBTF6BtsSsKgbQNxDOjKtDbHcdDR3gGtk16HUrmMfC6HKI6wc8cO/PK++3Dffffhwx/+ML7+ta/hxptuQhzHCMIQGRw7sJiTNXGM3t5e/PSnP8UTTzyBtWvXAujrven73RDHMaCTolsBiPpeu2QaWmWkq/K+VQjlbalUElpSv3tjraH7fldFYYjent7KSR0rGYWO4jg52RNGUJaFQ4cOYcWLL+L3v/89nnnmWXR1dgFKJZfpC7+2lRpVhYyEJI8n7jsBBa2xZcsWbNq8CS+uWIHrrr8eX/3qV3HhhRcmIyx979djsW0LhUIRvu/jtddew7/8y7/g+eefx8EDB6ABc/92X2ADkv9Zfc1IST9O5e9T+neP1hpbt27F5s2bsWHDBvyP//E/4HmeeV7p9xZRLWNgoRHLcRyzmzRQ+UUvBUJ6ZEW+BiR7uIwZM8YUZVLoyeWASlEqyyTL5WT0BKguLIUUI+mw0v97GkgaSmONMIxg9TXOJ8FFVT0eoPKHX8htygiCnAkHKsegWCyaqTfyWOSP20DiODZTf7LZLLTWZoRFzizLPjjlchnpUJf+Y3uySqUSHnvsMbz++uvIZDLI9c2BlxEEeQ79X+N0YZrJZPqmgxTgeV7V6MOxitc4jqumvkVRpem1WCya25D7608pZY5dPp83x1Jep4HO1Cp15FGjdAEDJO/9/iMVMuXqVGQyGRSLRfO5HG8JofL6pp97OkRFUYRCoWCOfzabxY4dO/Cf//N/RmNjE84/fzGk2HddF5lMBmF4+Ganp0KOYfq1Ol23L0Fe3nPvv/8+tm7dan7m5RjV19dj1KhR5n0kj0eOpdYaBw8eNCHWjFgoDfQV50EYAkh6URzXSXoqohi2YyOKkqJcKYVYx32jiEk/ke/7ePrPf8b27duhtcZNN91kQuKxyGPcvmMHvv/97+P+3/0O7R3tAIAoCpORFMuC1ffzEAYB4jiCpZIpWmnynojj2AQTZVVGN5MG/iS4yHVtx0FzczNaW1sxc9Ys6e83J11s24a2kvvatXMn7v/9/bj/d/fj/Q8+6BvlVUlPi21BhRGiOEIYJ6FA6cr0veR+gUjHfa+bQhglj6ujsxOPPvooGhoaAAAf+tCHzImhY9E6ea7PPPMMfvSjf8Ybr7+B3kIBsdZJuAhD83Oq4yToye8lx7ERRdW/n5KRtEoIzmQy5qRJ/99NA/1OIaoVDCw0IknB1NHRUXVmVn7pS+EAVEY7oihp4GxpaUEcV/oOlErOmsofACAJKp2dnebMeC6Xq7qOZSVLD4dRaAKMFIxaazPiIfcthb5j24jiGGEQwu47+++4DmzL6lsxRsJQcsZN7lOkw4f8cUt/zZz9VJWzc1HfmcQ4jk2he6yz2eliTy4nxyV9DNLHTpa2lSL6VCilsHv3buzatct8LiM36REEOS7pwlQ+l8JNriNfl+CaPqbC6isimpuazXGTr0uBIMf0SPctX5f3gRzz9Mjc0QKJkPuR2xPp62ldOava3t6OoG8qyukoyh3HMT87EoR7e3uhVFIMy7HvHwTSPxdyzC3LSqbB2DY2btyI//k//3/42c9+hoaGBhPilFJ9vRyn570jjyH9mp+O4yLkvSOP/aWXXsK6devMayI/OwsWLEBrayu01iZMyvWVUiaoeJ6HUqnUt69TDM9z0dzUbHo/8nV1yGWzyOXzmDJ5Mrbv2IFCoYBSqYhDBw9h3759poHbsR3Yjg34PqI4woYNG/Cf/8t/wazZs/v6Wo4dZi3LQndXF+77xS/w4x//GOVyCdlsLglKcV8A0Rq5TAZjx45Fc3MzMp6XTG3SGo7rII5iFEsltLe34+DBg+jp6TG9epYtix8gmQLb93Pa3NKC1tZxOPfcc3HeovMwfcZ0LF58PhzXhl8OEEYR7L6wo5RCZ2cHHnjwQfzwh/+MHTt2mPdaFMWmyHcdBw2NDRg9ejRGjxqFfF0eQRCiWCig7Pvo6enBgQMHzHtbIQl+tmUlJ0wefRSu62DSpEmYPm0alHJwrLdRGEZY+e67+Kf/83/w0ksvIZfPIwwCoO/3SBTHyGYyaGhshOs4yGQyaGpuBlBZQbJYLCCKIjO9cO/eveb3rwQV2f8rCALgCAtQENWyU/8NT3QWkj/63d3dKJfLAGDChZzFlOJKigWtk7NdY8eONdNp0r/sy+WyOSsOJKGlUCjggQceQG9vr7m+TAWJ49hMg1JKmaJL6+RsvFKVFZ0cx0mCie0gm81h1qxZOO+8xchkvL7i04LrOn3BKUQYBqZIlSJIngMAUzDJc01/z///t/fmUXpc5Z3/996qd397XyW11JJau7V7kzCSZcvIBoNXDObEE5YECEkGwwwwZ5LMTIZzcs6c+YXJZIAMyZlABhtik8RMDAZjywvCtmzZki1ZlqzVUmtv9b68Wy3398et51a9rV5eWRJuWc/nYNT9dr1Vt27dqnq+91luqWQ8ItFQIfreWMZ6FOoTEnF03kBoANL5U44JvXQvBnROUWOY+mG04IiKByA07F3XRSKRQKlUKjNaqa9GiwLadzKZRH1DvTmGEYCRfY8+XhQy2KPCg4xU+nkiLwgdg4geiwxl13XNmKfE5ahguBAGBwdN30dFViwWM940AOf0Cf0upTRGYyaTMX1RKpXw7LPP4sUXX8SGDRtM+XD6zsUYP3SdoxMHF6NPDKr8/jt8+DBeeuklnDp1qkzIW5aF9evXY3b7bCgVlkanZwGgx9/y5csxa9YseJ6H6dOno6NDV1VraGhAa0sLGpuaUFNdjWxVFTLpNNra2nDs+HGc7eqC63k4c+YM3jl8GKfPnMG2bdvw1ltvYXBw0BzDsiT2vf02vvvd7+J//fVfj3tahOs4ePbZZ/H9H/wA+XzerC0TC55fLS0tuOqqq7BixQrMmjULzU1NqK6pMYnzsVgMjutgeHgEXV1dOHToEN54/XXs2rULp06fhudFwnOhEI/FMH/+fNzyoQ/pvJtlyzB79mwIoZ/tjhPco8Fz1rZ1SOszm5/Bww8/jGOdncE4dc0zOB6PY/r06Vi6dCmWLVuGeR0dqK+vR1V1NaAUhoZ1jk1fXx8OHz6MXbt24e2338aZM2cglYAdi8ErFnHq9Gk88fMn8IEP3ICW5mZUVVdN1HU4ffo0Hv3JT7D37bfhK4WBgQEkgmem73tYvHgxFixYgBUrVpiCHrW1tYjHYvrZKoC+vl74vs6XGxoawhtvvIG+vj4Ui0WcOHECxWIRmUwGAMw4jz6/GGaqw4KFuWIRQoc+kUFABgsZDlFjin73PM+UjQRCMQOgzLBxXRepVAqdnZ34q7/6Kxw4cMCEhVH1LiA03Kg90ePTZ2TESktCSImmpmZ85tOfwdKlS3USpgKoypWvzg3bopcR7Te6bxIU0XAgCtUijwDN0tmBR4faPh6jjWYyIKK/Rw1poNzoHP238yXah1Gx4fs6f2as49DP0e3pekbzcKJjIfp9+o7neSgWi0ilUiYUhAQH9Xf0eKOhbXzfR1VVlZkRrdSgiAodgr5L12F0+2mMjTVuSHyczzWxLMschwRuVLwopUyICnm8SNxGxRkliSulMDQ0hGQyiR/+8Ie49tpr0djYaK4LtbMSot0Yveb6b6MFvgBQPoYqYbz9IrKLkZERPPnkk9i2bZu5N+i406ZNwzXXXIPmlmYopcx9Sf96nod0Wi8I+3u/93sYHh7G3LlzsXr11chms+eMa90/Aq7jYv78eZg7d06Z6C2VSvj1r7fg29/+NjZv3gzP8xCPxZDL52HbFh555BH8/u//PlauXGnWb/FcXz+PBOA6OlfE9Tx872//FsePH4de50RPAsVjMSxbtgx33HEH1t94I1avXo1kMgHX0aWFLYsmTKL3iu6jnTt34Ymf/xxPb96M119/XfdT4M2QlkRDYyM2brwZH/7wR+AH48eO2ZBCV2qMxWMQUsL3PMRsG3v27MG/PPYYdu7cCZ2oTpM3QEN9Pa659hps2rQJN910Ezo6OpBMJOErXUjDtmzYMQu0hkwul8POnTvx9NNP45/+6Z9w+PA7esLL85BMJHCmqwuPPfYYVqxYgSVLlsCyRPDdUATTM/bll1/G888/r0OUETx7hH7mLlu+HJ/+9KexatUqrFixHOlUCn6w3o2JD1YKJadkQvccx8GRI0d0FbZCEQcPHUR/f7/p3+gE0vmOb4Z5r2DBwlyRkJFOBjuF4NDfgNAQMnHTUidPt7a2mgd+9MVPxmV0hrm7uxvvvPOOmV0eHh4um3WPQi+P0Z95XlC1KPDi9/b04ExXF7JVVVDBgmsQ+oVvWzbi8cS4+yOiRjRQLpZs2y4rpzp6xr8SaIaa9uv7fll/k0Ch2fToDPNYRNs6mfE8Vh9Gmew8aHvKxYiKLZqJHb0t9V2pVMLg4KCpDAeEeTuVtD9qsNN1j8fjZcc5X0b3K4kIIMzjESJM5o+Ojei4OB/IG0D7B0IPplJ6Np3C7uh4JGKi7Y2GHhaLRWzZsgUHDhxAfX29ETpExYYXGXmAGXv0MxDm9AgBY5xSmyYLO4u2PdpndI5KKQwODuKFF17AP/3TP+HYsWNlbZZS4sYbb8TixYuNWKPcN0C3kdpg2zbuu+8+jKa8D8Kf7Rh9r9xDl0jEsWnTLUinUxgYGMDLW7cG+S2A47gYGBjAww8/jOXLlwMySJKn+0AKlBwHMQCvvfoqXnzxxeBej6FULCGeiGPR4sX4wz/6I2zatEmHgSVi8H0YsSKg+1kIAdvSoVmer5DNZnHNNdegqakJc+bOxf/667/Gnr17AQBSWiiVtFF+9GhncH4WgEDc2RIWtCiIxSx4UmJgYABbX3oJ27Ztg+eGC/oqpdDc3IyNG2/Gpz71KaxZswbV1TX6uQoVCAiBcJ1JfV2z2Qyuvno12ttnQQiB7//993H69GndL0KXTX7llVew84030N7ejqoqEpOhSPB9LYa2bPk1Tp44EUhket5JrFq1Cg8++CCuv/56NNTXI5VKmfkpobQA95VuXzTPKBZ4n4gPrvsgxiL6XGKYqU5l01IMc4WhVLhORvTFJqUsK886HhR+0N3djaGhIXhemN8yUf5HJXi+TuxWSpka/74fhJPY1qRG1WTYtl59nGa/o+JqLKE1Guq7qFFMn5GxbFnhGgC+75uwpMvpBRptJ53feMLrfA3+yxXqB0CHRAoh0NDQgPnz52P27NmYMWMGstmsERvREMzJvCRK6VCZRx55BMC599FkQrRSXFdXt6NrRmN2sv+I6DiIQh6krVu34tvf/ja2b99+zjbz58/HRz/6UcyapY1gEv40CXIpufrqq/E7v/M7qK2rQ6lYhFKBQLIs/PrXvwZA11fBsm29eryvEAuE6UMPP6zLlku9RorreUjEE7j//vtx66ZNuohAXIsVXWo5OHcBCKm9Kvp3YURMPB7HnDlzsGnTJtx///2oq60NSgzr73Z3d2PXrp0YHhoafTplCADHjh/Htm3b0N3dDQhhvNHxWAzr1q3DAw88gNWrV6OmpgZAuad6rPGplK601tzcgk9+8pO4cYMOVZSWNMK7t6cHL7z4Inp6esw4p/eAUloA9/b24Y033kAulzOLYSrlo7a2FvfcfTc2btyIaa2tSGcyWqB4Pnzfo97DJR4WDDNluDDLhmHep1CIChAapjRLmkwmKzIehBBlhg+9AC/UeFW+DzeYqbakgFKA8sOZO2MIvEuEEKiurkZ9fb1Z4JFmwn0/rAA2HlJKY5yRoUXVnGjmHQj7o7q6GrNmzTIeqqkOCSsg9KxEr/FYgoW+d6HXfqoTj8dRV1eHadOmYe3ataipqUFLSwvq6urgOHpV87Nnz2LHjh144YUXjPeOclwmI5/P45lnngGAspA7AOcYlOeLZVllY5eg603iYSKiAobEN42Vw4cPG8/K1q1bjVFLRRVqampw3333lVWWorZMlLd0sUgmk9i4cSP+/u//HoODAygVS4AQiCcSOH78GEqlIlJJXTzEssMkejumSyXv2LHDXE/X0evjdMybh9tuuw1NzU16e1/BVz4gKNwwPL4K/k9KAWFZWtgE5z5jxgzcvHEjNj/zDLZs2QLX1c/iYrGAQ4cO49Dhw1i1asW5JxUgpS7Esfutt1AsFEw7pZSY1d6OjRs3Ys2aNUilUmYcua6LUqmEWCxW1v/kGaGxEIvZWLRoIe742Mew/bXXcPDgwWB7hZLjYPv27ejr68PMmW1AxL1HQrSzsxNdXV1aRPke9GKQFtra2nDDB29AVVUVYjGbIr+CIgSW7jsBBN3JMO97WLAwzBhEDVIySolKDCN60dJ/FGYymcFTCedIkmCGUvkKnuvBcS7Mg2PbNj74wQ8aoQLA5LQcPHgQzz//PE6ePDnu96MzwkrpcItbbrkFM2fODIWeAlxPC5iamhrU19ejqanJlLS9UC/RpSYqWqKfTSRKLsa1n+pcc801uP3227F48WJcd911qK2tRTqdhhACuVwOqVQKnufhtddew09/+lN85zvfQT6fRzwer0iw+L6Prq4u9PT0oKmpqaxPL9Sop33F4/GytV6UUmWe1sm+T8JmeHgYJ0+exJEjR9DZ2Ylt27bhqaeeMvcOCXkSSh/60Idw5513Ytq0aRAiXGiW1nui9lwqlAJmt7dj1qxZ2LtnDxzHNeFf/f0D6O7uQVtbm+kDz1OA0BMmnceOobOz0wi9YqmEqmwWV199NebPnw8h9PbK19a1FeS/KD/sNxICAMyiiHQsy7Iwbdo0LF60CFu2bNHhcr4PKF3o4fixYxMKluGRHPbv34/jx49r6z54RqVSKVx77bW47rrrkM1mAZAA1ovxKnnumjxShIUx6H53XQ9r1q7F/AULcODgQQgArqf/vn//fvT39UFAAArwfK/sOh49etSEnwohIaDHWnt7O9rbZ2uh4isgyFmxpDThaUrBCC+Geb8zta0ChnmPoJfoWEbmRN4Fgowb8kxEjZmLFboCpeArmBhrJXQIl+ddmGBRvsLVV1+Na66+BhDhOi5SSmzevBmHDh2aULB4nmdmJV3XxfTp0/G7v/u7WL9+vREyQLjQnJQSw8PDSKVSyOVyl4VhP57hOnpWHQiFzJXAbbfdhs9//vNoaGiAUspUwaOqcJ6nS4Nfe+21aG1txauvvhrMmOuxMFm4pBC6cMC2bdtw2223QUppwgnp7xeCENor+uqrr+Jb3/rWOcUxJjMMqR2+72NwcBAnTpzA4cOH0dnZiZ6eHp28bdvmOEop49n44he/iDlz5ph7wjxn1G9nDPm+XlCxpqYGrqeNaiml9uYCOH3qFGbMmBFMRACu6yBmx+C5Lt5++2309/cD0JXnCoUChBBYtmxZkLumIIWAsrRngMSK5/smyVxIQCAMvxNCaA8ytGGeSafRPrsd6XRah+0pvRL90NAQevv6Jjgz4MTx49ixYwf6+/v1ObkupBCoymaxcuVKzJ07F0II42EDFKSlC53Q8w8IroMoL30NAJ7no6WlBfPmzUNVVRUGBwchhJ78GR4extnubi165bmVuQYHB8w7gtaX8TzXhOW6nqdD8AAomu9R0OMC0N9hmCsAFiwMMwZRURF9wSilTCjHRNCLjwQLzdRS4vnFgtohhQgMAW1MXAi+ChfQBPS5OI4DAYGqqiqkUqkJv0/JwvSit20bmUzG5MREE/IBbdxRYjmV3ZzKjBYj9Bn1WVSUAYDA5ZOXc6HMnTvXlPYWQiCZSMLztXeRChHk83mkUik0NzfjG1//Bvbv34+TJ09OOq4Ix3Hw0ksv4ZZbbkEsFjPJ/dExdSEMDQ3h6aefxnPPPYdisXiOl2U86H6JTmhE7yMS/dQ3lmUhk8ng7rvvxpe//GUsWrTICDu6b+hese3JFw3VvNubPxyjtbW1gfcivIcty8LAwIDeVCmtOKA9u76rcOzYMXiByKHzt2wLy5cv1yLVsgJBEqIQ9I8QgAAcR28nrcgzLBA2ytdV8+bO7UB9XR1Onjypr7eU6O/v1yFVE3DixAm8/fbbJixVCp3D0tDYiDmzZ6OqqgpKeaBy8JZlwVcqSM7XwgVKizpdXUwXO6HnrW3bKBZLaG1pQVVVFfr7+wMhZkEIH0feeQfDIyOora0pu45K6TwdWqPIB1V1s+AFgtYORF74JUBBQanguW9d+JhnmMuBSp6ADHNFQsZGdMbP933kcrnJvgoqlWxZVpmxMZnQqQQB/ZInw1hBV4rRBY1U+cvtXUDCzIRnCGFq/ceo7v8kRL87+l/qAxI2AGBZF1fI/TaIXsuoWBktWMhKuxjG9FSnvr4eQHiuFP5CaxZF80Asy8LGWzZixowZkFKasJiJsG29aGlnZ6cRwBdLrPi+b8I2KX+BjgFMHnJGbQHC86fP6PPo2F+9ejUefPBBfPWrX8WSJUvM51KGFdaA8pywibmQZ4uCZUlIqXP0IATiwRpPduApJe+XFlxU/U6fK1U/tKQ0FREty0Z7e7sWCZYIwr9gmilF4BmG9lCMao7+xwgXgUQygcbGRkjLAoRe80QK7cXum8TD0tfXh66uLqhgdXo7pvt5+vTpmNHWFnyuz0sp7aVWvhf87sFzHShQ0ryElAjuaxX5rkB9Q4NZP4WeoUopHDx0CENDg2XvFLqetbW1EVGsJ3SkEDh95gyGhgZ1kQF6vgdaUQgRtE1BTTYsGOZ9AntYmCsSMnCi/5KhSS/mqCeAQrksy8KZM2dQKBSQyWTCGTspzSKL9JIqlUpoaGgwFcPIu6L3FZmFBSADw0gfbwJhE7ywrKCtAoCndOlNFYiVCzXcoiItCvXFZPt3XS/oSwml/MDDZOlZQ698xXbyPgGAUuMbhGO1Z3wEGurrMX3GDNi2bUJsLMtCPp9HMpk0+4uek26zbn8iEUdPTw92795tjFYaI2MZjmSAUPhT9HPqr0rbP7pN9Blw4dd2NGO1Kdre8+v38LrSveN5HqBQtjhlKhUkbls6v2vZsmV47bXXKspjoWvQ1dVl7qfofVwR+mYpO6/R36efo2OUjhP9O303+hnti8YKtRkAstksFi9ejFWrVuHWW2/F+vXrUV1dbZ4LQFgGOypY6OdioRgsIKsrrFH+i0afmOPq3BMryPNwPb0GycT9I+C6+lqNjAybbaPi2/SzlFBKJ9C7rg7psiwrCOlzEIvZ5vlmWRJQ2htg3CuRfwW0KBFCwLbPnT8V0M87FRw7OlEDQIsd10U+nwOVRh59f0ohMJIbwcjIcHCfUj4S0NY2AzNmTA+umXXONRMiXKsKSkAEz7Wy/Ut9/ePxGOrr6xBPxGHb+lnneS6EALq6zqBQyEMpnR9DQ89xHEybNt3kTAmQR7uE/fv349VXX4MQErNmzYJtWYAAvKAiJIWC+UrBCjqV2k5jSYvL8Jk91vjVIonnrpmpDwsW5oqEHuT0YKfYeiDyYhbCeEoovl5KafI3aNYzNBhCaCa4paUF2WwWPT09JrZbJ9GWTKiQAmDbQVUg14WCwkR5KPQSp/IwIggjgApCBMb9ZuWM9YIj478yw1DA8/zAiNcGi1LhrCwR7Tvq//MxkMcik8lg4y0fwj333INMOm3CO5LJpBEsNOutlDJGghUYBMViAYlEArt378af/MmfwPMmL5hAxrjrumXbkmFO21TCWMbwpWS8Y2jj7tzyvBMx2ktijCWh90f3WbRf1qxZgx/84Adj3kej8Ty9Lg3lS5BRWdmYDNEhNWOLNbqnoxMW1BfR40SfE0DYFhLllmUhm82isbER06dPx5IlS7Bo0SLMmzcPS5cuRWtra2CcOmOGfFGlMEDfG6VSCZ7vwYZd1nbXdWEFXhDLsiAQnIOvVUI+l8fJvj709vaiUCggn89jZGQEw8PDyOVyKBQKcBztUcpmstj60lZ4rgs/6AM6HyfwsiST8eDREz4jpJSBF8YzOTq+76O7uwfNzS3wfQVrnNAlfdrlfxulCQJnhoBl20gkEvpecxxACLieB+VrIWJJKxAFGqUUCqUSzp7twvDwkBEMUmqB1dragsbGBkghAaGFhBBh9TKldFhXuD+MAY0PF7ZtQUoRHEeZcT48PGTCg7XIFEBwnWbOnIk5c+bg6NGjKBVL8DwPqVQK3WfP4nvf+x5OnjyJu++6C41NTcik00E7FRSgF+8EUCyWEI+HleVGjyUScXTNfN8viwJgmMsBFizMFU1VVZWZVYvO/kcNgqjR7rouzp49axa5i8fjkFKiVCwhFo8ZQxjQZUKrq6tx3XXX4dChQ2aGXykFx3FhWdpw6+3tQalUgpQWVOR4EzHWNpV873wZS/5UZBwGL1T6Ofwco22Ti45SCqtWrcKdd96pjSulV/OOx+J6NtIk8irTNCmDMxXawyIE0NLSAqC86MCl6OMoUeObxmTUaI4ayFMRx3FAyeR0LgoKAqHHAQi9eFJKLF682CwiORl0D0ZXhwcuXqUkMijb29uxePFi02ba/0TV60iMUcW76upqpFIp1NXVobW1FQsWLEBra6sxEsmoJ0/TZFB/Uqld8txGn1ednZ04cOAAOjs70d3djVwuh+HhYfT09KCnpwf5fB6FQgG5XM6IlUKhYMRGJp1B19kuSBmEwikFOxaD8FzjzQL0bRyztcAfKRaNAQxo0R6Px+F5Hk6fPo3ly5eBFuB81yidoF8sFlEsFCLVxvR6TslU0oy1aF96noeBgQGcOnUKjuOYyQopdbEGU5HwItxTQgiz3yi+7yOfz+sJLyHNdRdCT4TV19dh/fr12L59B/rcPgDBI1MIvPTSSzh79iwOHTqE+fPnY/HiRZgxow21NTXIZLPIZjKIJ2Km+ULoohTRQhSOo4UUTRhEJwtGv+sYZirDgoW5IqGZw9bWVmMskTFlWWHcOj3QadbK8zz09fUhl8shmUwaI4kS1cmoVEq/OGtra/GVr3wFvb295mXiui6Ur8PAent68NTTT+M3v/kN8vl8YBSM22xDufEqzvn8YkDGSdRA1uc7eQPLWlDJCV1EXMdFJpOBbVsoFkpIJOKw7Rh8pWdlZULHmGsPV/g9pXT/UeJtNptFPp83BqbeRhlhe6kwRuEoA+NiXddLiZRBDs8YYzIaykNGG6AXS9RJy5OXNaZ7MCqKLtaYp31UVVVh3bp1+PSnP20qNdH9P9oYjUKhgHV1dWhsbCwrkyuE0J4PFYboRL045L2dSLjQsaNijcbGrl278PLLL+ONN97Anj17cPLkSQwMDCCfz5etoRTtJ2oHQF4SCyPDIxBSIpvNoL+vH75SumS6AlLJJGJ2ZA0lqcO9fM9DU1OTEVCWJeB7HpTvY2BgAEJUOMkxCbSGz+DQECBgwsMS8Tiqq6rNWIhOLEipc2qGh4dNn7uua8Sl4zgoFArIZkOj/90ghEChoNcZivYpQCFe2usqrbAwg1K6mEI8Hse6deuwefMzePnll+G6rl4rJvDE7Nu3D8eOHUNDQwOmT5+O5uZmvU5WXR0aGhqQrcqiuroKNTU1aG1tRU1NDebPn2/CzJTy4brKeL6oHyiHkEILGWaqw4KFuSIRQoduzAjyHMgAGm38RA0k+l6pVMKbb+7GDTd8AKVSCbZlm9wVIYR5EWgjxMLGjRvh+775nFall1Lnw5zp6sKWLVuMAWZbFhx3/NnmiYyzi2G4AaFQExBlXhH9wpvwq1oIIPha8IIU4R8vOUqpwLgT8IwIFfB9HddvGN2WoNGmzaK8UhqFUFxKotdv9Fi81Me+GKRSKd33NF4gTPgVzWxHvSy+76OhocHM3lcyfpUqF40XS7AAMPfvjBkzsGbNGuP9oP1Hjfwo9PfRwoAEHP1uIZzp1iFcdpiPNsn1dRzHhI9ZloXBwUEUi0X84he/wM9//nO88sor6O/vNxMfiUTC9LEOQwpz00Y/60gsJRLJwOtShAKMJ1lKiXgiYcSLRsH3fCSSSaxYscIYyFAKnu/B8zycOH4ctMjjhdz8CsDw8DCOdXaiUCiAPEC+4yCTyaB1WqveTilAhSFQdO2ov8ljCej+fPnll/E//+f/RCqZgj2BGJ0M7WFysHfvXpw6dQpA+O5QSuczuq5bNhEGwDzzlyxZgi984QumZLdlaW87hdWOjAxjZGQExzo7zXdjwXpB8Xgc1dVVyGYzaG5uRm1tLVauXIk5c+Zg+fLlZlFepfQkWlSoCMEhYczlAwsW5orF8zzMmjULtMo2GUz0UqGXiRCi7AUohMCzzz6DD3xgrZ5RS2jXfj6fN+uPKKWCF5ZjZtjou0p5AASk0GFjtmWhEMzkCyEg5OQv9vGMtIttvAGhERA15CtFCCpbWvl3LhTH1YYdgmugw7z8iGgsN52ot/R5apFGIjZqdJDBfamhcUdGJI1LpfSidVOZqJEMBB65yHAUIszxoKT50X09EVHhEL0/z2dMTgQZcp7nmQUbo0b9eAgh4HvlQmV0m4ynpew/AGJ8IRSFnkMkPLq6uvCv//qv+OEPf4j9+/fryRM7zG+hc/F9Pyjbq2fZk8kkUqkUqqqqUF9fj4aGBlRVVaOpqQnxeAJPPfUrvP76GxCgcr1FSBl4TYJ7xwpyJ1zfRyweMzP6UgoMD49ASguu5+K17dsx0N9vqsddCMPDQzh46JAOCTPPOIXqwLNAY476M/osjMfjZSF0gPbYbN26Fa+//jqEkLCsd28OSaHzSfL5fLAGS3gthQjX3AFg3g30s1I6v27Tpk1IJZN49Cc/wW+2bMGZri54wX0BpUNshRQQQt9fpWIxeG8Bvb3dUEqZXMsXXngBdXV1WLJkCRYsWIB77r4H06ZPQ3NzMyzLKpuAY8HCXC68+zuUYS5jyNiZPXu2WQNk9AvF8zwzw0oPeGLbtm0YGBhAOkjqJmOAoHjp0UaIPkYQz690pZd4PA4hpfasBCFjk3GxRMn5UolhpSIuGQHoyjoAtLVzcQzLiaDrqb0rgYELlLd71I8qEGQKCq7nwY7p8AlKEAdCg/FSQ2PRsixT5MAcd2rrFQBh+6m/x/o3On5p20r6lrwFdM/Rdy+WkKRrToIjGgo42T2ngrE22psBoKyNdIwok91TRCKRgO/7OHToEB555BE8/PDDOHXqlGkrha4lEglUV1ejo6MDS5YswcyZM40gicd1aXLKsauvr0cmk0FtTR0UgLNnz2Lnzl1QgE5sD3BcJ7iPdKUqy9K5YI7jIp1OY/bs2di3b5+eGLB0JcQdO3Zg15tvYsOGG8c5o8rwPR9nu87i4MEDWkRCV0qUlo2qbBZ1tXUAyscYjTPq++hEFH1OOT1AZeNvPPTxwrFM1wIIhSqNqeiYoG2EEIjHYrj55psxq70dK1euxAsvvIAXXngBpVIJuVwuCA9VsCzAtoJ1Yoyg1vslYTQ4OIizZ8/i4MGDyGQy2LFjB+666y7ccccdmDZtWllbKOeFYaY6LFiYKxIhtFBoa2szC9rR54A2OmimlWJ/6UXn+z527dqFt99+GytWrEA8Hkcul0M6nTYvEHphkfihF4LruqCKYDq5W4QljYOXKhk+75bJDKsLoVLDSr+4gWi5H6X/UPE+3i2+H3pDBKgEqw/LtiElzIx/tJeoSULIMgFLYWBkdACXtn+Bcz0sAMqOP5WhMR810Mkoi3oeCfIY0ez3ZND3aV8kYC5W35Ch63meCVOLekuiQizK6POKGr+0PYkY/TcBSZ5UNbH3hhBCGE/U448/joceeggnTpwoM8B938fy5ctxxx13oKOjA62trejo6EBNTQ2qqqqMGPP9sDiIlLLs+LqQSGjMSqG9R6WSvj6+AkrFIlIpndPiuLo62bp167Bz505kMmnk8wVYUuLEiRN46qmncN111yKTSY95XpXQ09ODzc88g92734IVGOsQOs+sY14H5s2fZ/p3dPUrKmsOlI8zuta6/3y8+9v63DERvQ+UKg9hJFEZHb+6rToceOnSpWhqbMSNN96I5557DkeOHEFnZydOnDiOo0c7MTg4AF/piRYpBHxfAUKZcQvACBfHcTA4OIinnnoK3d3dGBwcxJ133on58+eb7SoZewwzFWDBwlzRLFy4ENXV1Th9+jRisRgKQbhBdDZurHj5kydP4pe//CWWLVtmXjrFYtG45CmnhaAXlBA6n8MPjBTP18mp5HGBENoIcCbOYSEDSb90Q4MlaiieD1GjJ2qQ07lHZ4crMQ71NlQW14eCrsSl83dCgTDed6NtiCaLViIWPNeBEEHlL0HGpAiPSf+OsSshAFpDgQxEYHxDdSxGG+3U5tGz6pNBBpfjOKb/6WfLChdNpG0rbV+Uia7n6L9V0v/UX/q6l88kR2e56X4hse/7PmKxWEWiBdClq6lP6H49n3EfvTbR2Wbq0/DeKp/ImKiviOhYGWt72i/9rdIJCmrzU089hZ/+9Kc4duwYbNs2SfWZTAZ33303PvGJT+DGG29EXV0disViJPk6bNdokUK4ro+a6mpzPEU3qwpm76F/tWxb39OWQCwwI+684w786OGHUQjClDzfR6FQwBM//zmWLFmMu+66W183oSdrfKUQi9m0ewgB+D5MFTQpBZSv0HX2LH72s5/hoYceQl9fHxQULCmhAExrbcWNN25AbW2t6VMae/TsVkqZqlmWZZWFhtE5CiEhML6HpbIrFPYxjSXbtpFOp4PFUfU96wYCj64noJ9N8XiY+N/U3ITWaa3o6JiLnp4e9AVlqU+cOIFjx47h7NmzGBgYwNDQEHK5HPr7+3DixAmcOXOm7NwJ3/fx9ttv4+/+7u8wODiIr371q6ivr4dS6ryfSwzzXsEjlbkiIWOqsbERq1atwtGjR1EoFMwLffTDfvT3fN/Ho48+ik9/+tNobW1FOp0uS4qlGfGoUUXGka8USiUHyWQcQLCOgDEEdVL+ZIw2iqKG13hG1flA7aHjGONqEoMVAAQELEt7NqSUiMXicB0Hvq9D4CppHp0PGRlAZQaz3lCLFSAUR5Z9bpz2RO0gUUAGEFCZaBFClImHqAE12XcBfVzKQ6CSs9QWIBQCVI2IrvmlptJjUKUvGvdk/JeN/8j95LouhoaGJ81dGQ2VEwfK78/JoPEAjC1CaHxRYjt9Vun1Aybuq7Huz4r3C11l8Je//CX27t1rRDU9az784Q/jwQcfxOpVq01II43F6H00Eb7vI53JgBZhVIg+Cyg0EojFQtNBBJMBK1euxJq1a/GrX/0KSumwJc/3sW//PnznO9/F2bPduPHGG7F82TJdLYvWZ/L1eIYQSCTisKQucHHq1Cns27cPr776Kv7ln/8Zhw8fRiIex0guByWBqmwW16+5HjfeeGPZtaQxRtfNtm3jRY9OwAghsHTpUqxYsQLV1TVIJlOYiImukmVb8Dy9To2AMCI0k8mgoaEBra2tmDFjellO1FjCmLCD51VdXS3q6mpNeLLruhgeHsbg4CBGRkZMaepcLoezZ89i9+7dePXVV7F37150dXWVTQCUSiWcPHkSv/jFL3DfffchkUggmUyafTPMVIcFC3PFol9sCh/72Mfw5JNPYmhoyBhXk5FKpXDgwAH844//EV9+8MsAtJFDFXrGyl/RhgOCbUMj3Pf1ehu6WpDERItG/ragtkdnYZVSgKpAtAQzpvQd8lrpUtAJxOT797EjpTTX3vcVzmPSH0DoLVBKoVgsolAomPAnILwuUYFKXo3RYuC9gKohRUVKGPISGpSAFh3Dw8M4dqwTQOidqYR4PF72+/l4Vy5XhBQ4fPgw9u3bh+Hh4TLDvLW1Fffffz9WrFgBy9aGbXSRVxI1k4kjKcsnWc6HbDaL3/3d38Xbb7+NgwcOwEokYAPI5fPYtXMn+vv78eSTT2LJkiWYN28epk+bhkw2g0Q8ATsWg21ZGMnl0HXmDE6fOYNdu3Zh/759ONPVhSNHjuiHSjyO6qoqjORymD9/Pu688y5MmzYNvueDQuzoPOkeqaqqQnV1tQnzjU4ArFmzBn/8x3+MbLYK8Vj5mIoyWd8JKeD7nilyQAI3lUohldJCKJFIGO+RECLwfiWhlD+pYNAVxrSnOJvJIpvNlk1ieJ6ugrZhwwZ0dnbihRdewOOPP44XX3zRtJu8SkeOHMErr7yCOXPmGBHEMJcD71/LgWEmgF5oSvlYs2YNamtrzQrQk73UAf3wT6fT+P4Pvo+a2hp86UtfQqlUQiKROCdGmYw2vV8Fz/MhpYVi0QkWjJSI2TbcYKZLt+v8ZpwvFaP7Qo0Rrz0aIbRiUQD8oLypZdu6WtiE85SXP0JEE7V9AEHoh9AhOJOJinBcKsTjcZP7FDU8AZQtDBedpZ3s2lxqyPMRFf56PAAQKJspJi8GlfSerG9oX5al1zeKfgaEM9bvV5RS2LlzJ06ePFk2DoQQuOGGG7BkyRIkEomykKPoNahkbAgRhoqdj1cJACAEbr75Znzxi1/EX/7l/4fe3j4AwZiwJA4fPoxDhw7h5ZdfRn19PWpqapBIJJBIxIMKYxaGhoYwNDSEYrGIrq4u5EZGEE/EdbK/pReJLBWLaG+fhXs//nFcd911gCpf3yR67iQaqqqqYFmWGX/kechmsmhvb0cqlZ5YkEzSDZ6nC3zQPugeBsrDJCkkDaBrosPjJvOURr+jRLnXO/r3mpoarFmzBrNnz0ZNTQ16e3uxd+9e/Y4J1huzbRubN2/GZz/7WSOgGOZygAULc8UihPZuNDY24uqrr8Yvf/nLio0eirc/fvw4vv3tb6OpqQn33HNPWcWV6Esl+vJXqnyhOCkl7CD3BUoBFUdMXxqiL8LRL+DJXqwGoUM9hJDIZrMYHh4yldDe74yemRZCBGEzk/cbGfs0U0v/RfuergWNKQpBdF33vEOrLjbUBhIWgBYpjusYMW9ZOn+FSuw+//zzAM4Vx+NhWRZmz55d9hndy+9nlFI4fPgwhoaGymbGY7EYbrrpJrS2tkKI8mIN9Cyr5JkGwCzGWOGlKENKfa9/8pOfxOnTp/HQQw9hYGAgmP33dJK4ZSGfz6OzsxOWlIjF4/B9D67jQkgJz9X/JhJxnefi+3AcVy9g6ftwSiW0trbivk98Ah+/9140NjYG90BYSID6IHruWhglzP1B99PQsBZIyWQqmFAZGzXJI9n3POhQVBlpgwXg3NBWeseQ2Kzk2kTHdnRf9PvIyAiqqqrg+z5KpRKam5vx0Y9+FPv378eePXtMiW4Sa4cPHzbvp0rvO4Z5r5n8TmGY9zH04rrnnnvKKuhMhuM4Jl7/0KFD+G//7b/hv/yX/2LyYEZGRsyLafSMpRACruuY5O7+/n44pVLwok4gZk/dGa9KBIv2LCnYtl6peWhwEHqdAwuFYjGYjXx/olSY7Dpa7JFBNREU3gHAxKZLqWP6KaQj6r0AdBhWNKflvcZ13bIV1qkfSFzRNgAwNDSE/fv3G9FVCbFYDMuWLdO/vLfa/reKlNLkNQF6Vt11XSQSCcyfPx9VVVUAyhdLpOdNNHdiXBQgZHCPRzyhFZuzSsGyJOpqa/H5z38eDzzwAObNmwfXdfVYCNrk+x7isRisoP2UgA8AsXgMMduG7/l63Zdgv/F4HNlsFsuWL8OXH3wQn/nMZzCrvR2xmE5kHxnJBU0Iz5HOXakwjwWAmVSybRt9fX0YGBjQ943AuP9N1geWbUW86PSsD3P4aB0YLcC0d0dKCddxK3qm0nuExChtT5MZ8Xi87DMhBGpra3H11VebRSNpksx1XYyMjBgvJ8NcLvBoZa5ISDyQgbd+/XqsXLkSL730EnK53CTf1lBFMMuycOjQIXz/+9/HwYMHsXbtWtx1112oq6szoQgAzMsTAGxbu+dPnz6F7u5uSMuC5zgoOQ58/72dJY+ilNJJpEG7ySM02XekpMUXPXQeOwbf84IXtjfhTOblzmhDMSpSyTCZyHAkkUsGyNDQEAYGBowxGt2/ZVnGyKdqUaXS+NXlfhvQLC5VdgNCYytasSoWi8H3ffziF79AT08PgHM9U+MRj8exfPlyAIBCGHozmdH3foGEr23bRtzS+ixknAM4Z7yJSczuIGpP92Nk08nGLOF6HuIxG5ZtY2ZbG+69914899xzSKWScBwHSinEYnHjDdQGvaXXn/IDgaJ0m+lcYrEYamtr0dbWhrVr1+Lee+7B0mXLUF9XB8/3USo6sGwbQAxApAiFQln4Ki2S2dXVBZqkUkpXezx27Bjmz5sPMdFzbVLREnqloqKFhCKJSLoXzDYVhNgCYcXA0dBzgDyb0f3bto1rrrkG8XgchULBjBfbtjE4OAgq7lHJ8RlmKsCChbkioVlHMvoaGxtx//33Y8eOHcjn85O+oOllRDNehUIBruvisccewyuvvILNmzejqakJjY2NSKfTiMVixh2vc2XyGBkeRndPN3bu3Anf0yETOil0arxAlAqMwUhzKpkNBKANk2Dl79zICJ544gnMX7AA7bNmRZdmed9B4wIoN/QsyzI5KROJCupfSpo+dOgQtm7diptuuskYeySAAAShNALDw8N49tln8frrr4+7798Gv/rVrzBnzhyzPhFVzSOR6zgOLMtCMqmNWCqz6vuVlzW2LAsdHR1ln10JhpdSypROp+eXbdsoFApleXNKhZMGeiwFVaAm6R6lACHKhZ/WLgKiAsECABC6OljRc/Hyy1tx9OhRHdLlhwUY6urqEIvFMDIygqGhIQBAOpMxIbHpTAYNDfWY2TYTHfPmYfmyZVi6dClmzpqJWbPaYQcGeqFQMFWudBhuGDYZDaMEgBkzZqC9vR179+41z2EhBE6ePInOzk4dcjbRaZGaG+/vYwg8uvepDXT+QFi6ORqqNdH4jY5v3Zfla+jYdgxQMPcaVaycNXNWkNg/gHg8jny+AMAPogOE6avJJqEYZirAgoW5Iom+ABxHx9d/5CMfwUMPPYRXX33VhOLQwx8IExt1GINrXkiO4wShDnrm89ixYzh27JiJm6bkYno5UIiErvyiY7SB8KU3llgiI5X+RoYxzdxVOgsKnDsTHTWAJ/pcKYXGxkbU1taa2bnQWAgXIfN9BdfVBoFlSXieh3/+l3+G67nYtOlDWLduHaqDtR4I19Vr10QNMjpmpaFCBBkG0ba9m5fyRNcBCEMvSPRGvSP0dwo/qa+vx8KFC6GUMqE80XOMGixkjHqeh9dffx0/+MEPYFkW1qxZYzwtADA8PIx9+/bhlVdewfbt2/HGG29g//79qAR9ncI+GcvgjxpdlfLEE0/g1KlTWLVqFa5achUWL1lswpXomAcOHMCLL76I1157Da+++mpZ5SalwoX/oscmMROPxzFnzhxjqAIIjHL3nMphYxE9RTpnGl/R/rdk6L2ibceb5f5tEi3EQOcPwISJCRENadX3YqlUMmFB0cUqqZy67nsJKfSYHRwcCM5Vix/LtuD5XnDP+9BeEED52ooXQosdPa59+FDYvmMH/u8PH0JvXx+oClYsFscH163DbbfdhsWLFiGXz6NYLMC2bHMPCaHXoUql06ipqUFNTQ0aGhpQV1cLpcJ7kkQveW31uYvINZQQIhzT7e3tWLJkCZ5++mnz3FJKobu7G3v27MHZs2cxrbXVLMgIATiOG7RncrFHXk+6Z6KeaHqmRb0/5IEUQue6RO891/WCbfQCmXq/4bGEEBCwAu+i7pNYzIbn+RDBbFA+V0AqncLevXsxODgIQJhQ3EQ8gXgsEYx/iUlPjmGmCCxYmCsSMtaKxaJ5sbS0tOATn/gE3n77bVOKNyoKorPb9OKMGjVRAwJAWbx5JdBLSalygRI13PQLLgwZIjFFITYksiphLCN1IpRSyKQzaG5uNqE9JN6EEGaxTMsKDW5AGyKnTp3Eo48+gtdeexUtLS0mbCidTiOTyaCpsQmf/syn0dbWVtam6PmfT1vJOB5t+FbKRN8ZPQaiSKnj/0nAkqGSzWbR2tpq+krPitpl11BKab5Hx+jv78czzzyDM2fOYMaMGQDCPvE8D729vThy5AhOnz5tEvXPh8kEy/nS09OD559/Hq+99hqampowffp0NDU1wbIsc691d3fj2LFjps2UDE3CBdBlwyk0M1rFyLIsXHfddaYPo+0+r/EcMX6j44v2IeSF98XFxvM8ZDIZ004a4wCwe/durFy5Ck1NzbCkNmZ1NUKJeDyhC2BICd8P+0lKC1AKQmovjBb4NnQ4pwUhAKV8+L4HIQC9tpIfPJ8kaK0RE2omAGFJFEcKePrpp7F37x4oKEhLG9519XX43O99Djdt2ICGhnrQIrIkolRQtlepcIwrP5oDpQ/i6ZOAFYwVLfbLuspsS9TW1mLevHmoq6tDV1eXeYaWSiVs27YNb775JlpbWnU7gv6hSQQSLpZtIXxGB88lpXtBCP0fjUmalKLJKiNWgmZFxa+UWsQ4rged92eZ7XzXh2Xrdgjod0PkbRCed3BNfE8v0ptMJeF5Pn7zmxdQKjmI2TGooL8BIBaPB6I82FOFtw3DvJewYGGuXJQ2AuLxuPaY+Ap33303du3ahYcfftisgREVBeZFegkNGDLGiNFGu1LKGH+e50EKaQw+etFeCoQQpkwHeQ+iM4VClC+ySNvRy7qvrw87duwwRrlt20E5U23Q3/7R2zFr1qzKjc4JuBj7mIjo/un6UNiXHbONxyWaZ5BKpZBOp1EoFOD7/jmzsrQPIYTxvkkpMTw8jB07dmD79u3GmCqVSmV9TJ9XMi6j29B1G4t324eO46C3txd9fX04ePCgCVOhsCUaIyTMqK/ov0QiYe65TCaDfD4PACa0cv369cZqo+9HvXKTMkkX0bWI7q/ifV9SBFasWIHGxkacPHmyzLB++unN+PCHP4KW5hYUCgXEI6vb25ZEvqDzh4TQRq/2EOvy6pYIvQGu6yKXy5mCItS/lU6CSAGUSkX8esuWwGCPQVraS93Y0IgPfOADqKurQz5fRDKVgFDa0+M6LpJB+wDdRikE/ODZQb0vBICgLVFNotTERncsFsPs2bMxZ84cnDlzBkBY4GLPnj144Te/wfJly1FXX6+vtaeFhBQ6mV4BgSjQ+9P3WnR86BLuesLGMhMy+lk+cbiX3gG0+AneSSroc4c8sYKesaEMEwD8QNxRLqUlJRS0cNqzZw+ee+5ZQCn4SpXtc+7cuTo0V9GkW2XXl2HeS3iUMlckltRhDolEAn7gKi+WimhpacGDDz6IG264Ael02hhZ9FKgUIJLiVLh+i1jHcvzPOO5kVJCSDHpdy6EqFiSUmLJkiWYPXu2MazpmJSfAFB1nDB0JSpcCN/3jYHU1dV13t6BiRhtiE9qMJwHowUC9Q95jLLZrDlXGje+76OpqQlLly41/Uh/I6OT9kPGIXmpXFdX3SoUCiiVSigWi2VtoIpH7+baSylhyckLKVSKlLLMWPM8z7TZdV0TPkl9Qh46KaUJWyLBosOItOcwmUwCAFavXo1Vq1bB9cKQzNHiYiIm6x7aD4kp+r3S/V9aFK6//nrMnj3bhFDRfbVt2yvYt28fikHhBc91YQXi0HU9M9mi7X2dkG3bMeOdkELA9zwcOHAAnZ2dAMKwJXq2TIZuD+C4bqTymwfP1c/MfCGP06dOQykd7lQoFFEslcx1jiIEIC0dUgql4Ho+XE97d6TU/wmpt6P/JkIphY6ODlxzzTXIZDKQUpr7aHBwEI/+5Cd45NFHMTAwoO/PQGgUSyW9PpYsFwtKASoQPK7jmOcgCXPX1RW4tId18rGjfEAG14Kuq5DSrGtE51d2vkF7BPS1Ur4P1/MwPDSEXbt24amnnsLuN3fDVwp+8AyOx3XFso/efjtKRUfv5/weGQzznnFx3lIMc7kRvABs24bjOmZ2PBesoPzNb34TS5YsMcYkgLI460tNVIBEDSf6neL16eUYFQiVGBeVMNoApnZs2rQJq1atQiaTQTweh1LllbGiBjd9j34fbaBT9SAhdGhU1HMwFpX0Pe2f2nE+Bm2lRPsmKjRisVgwkx3mtpCgaG9vx8aNG01fUbiYbdvGMCGjnr4fi8VM+N9oYxoI+5T6+nwhwTsWdMzz6TsytmgM0jUY/TmdF/WN74ceu3w+j2QyCcuyMDIyAtu2kc1mIYTAAw88gOnTp59zT1RqVI+2zsYSeb4flpamv59PH1wqlFKor6/H0qVLzaKLUkqUSiUMDAziRz/6MY4ePYpUOo1cLmcWoiVxCIRn7wfjxnUceJ4PXwF//dd/jT/7sz/D5s2bUSwWzeRMIpE4R1CMiwCk0G0SgWDygsqAPd09+MUvfoHDhw/DjtlaNFkWXEcb+7ncCFzXNzuiyyJkWNIXAvB9oFRyg4V3XTiOh8lKpSul0NraiptvvhkLFy6EbesyxySajx49ir//P/8Hf/VXf4W33npLVyALSoVDKThB6WXTJhGKcysI+wLKJ2eklMjn8ygWikG+z/jow+htYrEYYsE97zoOXPNsBVzXR7HooFh04Dq09otAqViEFQjMY8eP48c/+hH+7u/+Dkc7O/Uz2bIQi+ncuba2Ntz+0Y/qUtIKpqQ0w0x1OCSMuSKh2TCadSJD27Z1cu/Klavwne98B9/4xjfwwgsvoK6uDgMDA1BKlcXXXyqiBlLUUAVCMVMsFo1goO3Gmq18twgRxvRHaW5uxsqVK7FlyxZ0d3fDsnSCO4U/kaGjlApmcsPZdjJaKfTJ930zE0nbk/fh3ULGwlheg0tpfJLAJAFH/RKPx+F5Hqqrq7F+/Xr87Gc/w/79+414I2Md0OVpycik/wCM2R9RY5vCUKLfqYTzFSSTEY/HoXwFX4WiKioASJxE20gGnhB65r9QKCCRSCCXyyGZTMJ1XQwPD+O6667D7bffjlgsZr5P3yVP6LthLMFCQpr+TmPyYvbV+WLb2uC8+eab8ctf/hI7d+401zxm23j22Wfw4IMP4s4778Tdd92FbFUVCoWCCZeTQa4K3XO2lDh48CCefPJJ/PrXv8Zbb+3G8ePHUCwWkUqlMDIyYvqgUkEshTa4W1ta8XbfXgBBsRKlUCgU8ON//DF27tqJJUuWYNGiReiYOxdSSjQ3tyCVTCAei8O2dFiTyR0JJjdKxSLiiQSkFLAtK8gd0ddjsstCkwmrVq3Chz/8YRw7dgy9vb1mzDilEt7etw/dPT04ePAgNm3ahGuuuQbz581DJpMJ+kHo/wVeCR/BPe/7OH3mNDo7j+Lo0aPYvXs3Dh48iOHhYSxatAhf+tKXMH/+/Imahz/50z/FW2/t0cU5FizA3I4OtDQ3o7GpCfPmdQBKJ/5bUkbOORDsAI4cPYqenh5s3boVO3e+gS1bfoMTJ04gmUxACqHDwawYPOVj1apVmDt3bvB88rUXi2EuA1iwMFcsZJBblmVCVRLxBHylZ9cWL16M//E//gf++3//7/jXf/1XJJNJsyDeb4uo0UcGXXV1NRoaGuA4jgmjITEghDAJ8ReDsQw0IQTuvPNO7Nq1C48//jhyuZwxnqPbk5FHxjj9ffS/UU+MbZc/kqIGdaXGojbOImsdRAzSi2l00r5IdEQNcwDn/A0Ali9fjk996lP43ve+h+PHj5s+IoEDwISqkDFO4o6uMRBWJaJziYrByRjrWgGh8R/lfPuK+iC6f+p/OoexxBe1mwxUKi1eU1ODnp4eNDY24gtf+AKamprKPEpKqUAoV5ZnoVS5cTteW6iAAY3T8frst43v+1i5ciU2btyIY8eOoaenB0opuJ4Wda+88gr279+Pf/mXf8HChQvQ1jYT9fX1qK+rg+t5cEolDA4N4fTp0zh65AgOv/MOOjs7cebMaT1TXyoZrw0AIwYrESy6v7THcO3aNTh0+JB5riqlF5M9euQIOo8exa+f/zXqG+pRV1cHz/VQV1eHZCKB1tYW1NfXI5POIFuVRW1tHWpqqtHc3IIlS5YY4WHKEAvA9xUAvVDteNB1a2howB0fuwP79+/HE088Yc7Nh762vb29eDIQgzOmT8fMmTPRNnMm6mprYUU8gcViEQUK03QcHD16BKdOnTTrJtGir6dPn8a9996Ljo6OCcfnrl278Owzz0IIveBjVXU1EokE0uk05syZg8bGBsTjCdAClELoxYdLpRIcx8WOHTvgOA46OzsxNDSEXC6nBYnxDCkkkklcddVVuP322yGlgJSA64XFCxhmqsOChbmiEUIgn8+bEJWR3AjS6bSpeLVw4UJ885vfRFtbG374wx/CsiyzdsClZCzjSEqJRCKBOXPmYMOGDUgkEqZkJhm1wPkbmeeLUgpz587FPffcgz179uDNN9803gQy7AgyREmIRA1W3/dNpR4KB6IywFGihnmlRLcfLVguFG18hcIgapiPNtRJhJCR0dDQgLVr1+LJJ59Eb28v8vm8McJc1zUhcZZlGW8EiZPovsmYJi/hWGJjLGg/wLn9MvranW+fA+eGxNBnQtBCom7ZfqNCBdBJ36lUCoVCAel0Gn19fYjH4/jCF76Aj3z4IyBPHgk96pN30dRziPYt5SSM11/vBXS9q6qq8MUvfhFnzpzB448/jqGhIdO2keFhDA0OorOzE9u3b0dVkE+VCCY2fF9PxuRyOYwMD4dJ3VAolVzz3KP70LL0GlOVjC3L1ouXxhNx3Hbbbdjym9/g5ImTyOVGQFXFdIK9FoPdPd16YoG+Ly1kMhl9rwCIJxJIJpNBmGUcdXX1aGhoQEtLC9raZmDBgoVYsmQJZs6ciXQ6NVHTTFhcKpXC4iWL8bnPfQ5DQ0N47rnngmcSYFnaEzQ8MoJ33nkHR48ehb1tG1KplPbCSwFAAErBC+5LEs/FYgGeF3pDKWSXBOBk99LAwABKQSjo6TNncOr0afNM3bVrJxKJpL7+kWehAqB87dUdHhkx9xl5H5PJJHK5nAl9a2pqwmc/+xl85CMfgRASrutN7ppimCkECxbmiiT6AonH48awTCaTkFLnEpCROXv2bHzlK1/BjTfeiMcffxz/+I//GNS2L98XGQ2UP0GGZNTQoRd/dGad9jHaMI/OasbjcSxevBj33nsvNm3ahI65HcbI9TydVOt5nglVi4awRNtC+5dSGoM4+jMw/qrKBH3nAx/4AD772c/i4YcfxptvvmnaMvo86DzJMHccx4TcREOZqKytEMJUQaNYcyllWb7LRHieh9bWVjiOUxYyR7kRk6GUQqkUeoWozWS8Rg0Q6meCzp3GThTb1onxq1atwr//9/8e3/3ud7F582azn6hngsYNGZnRPqXj0bUd/XtraytWr16N6dOn4ze/+Q3eeustY4jSWKGfKYQsel4kHmnMUMgkxfTTtjQOPv/5zwMAfvrTn5oZ/2i7CRobxOh+I5FDFaqKxSIaGhrwuc99Dr//+7+Pmtqac/oiej9VghDQhnPknOm86R6yLL3GBxl/dC0rPcalIir2Z8+ejT/8wz9EJpPB448/ju7ubriup41QpaAADA4MYHBgoGxRRMuydG6Jp2feKcRIBQs71tXVob29HX/6p3+Kr3/96zh06BCk1AURamtr4fs+CoUCspls2Ti1bRsyaGMiEceGDRvwB1/8A/yn//xnSKfTyOXziNsxs/aL63qwgjEfXBT4no9cLqfHWjAGYvE4tJjSYzKTycD3fWSCdVqmTZuGZcuXY8WK5Vi37oOYN2+eGZdKAb4fLu7reZ4JN1y7dq0+j2wWW7Zswdmz3SYxncaW7/soOA5yQZU6QDdVQAS5QGFOiy4HHYYmknCvq6srexaPRzTPiDxF9J1isYRisaQLiQXb0z0GFboMVXA9aexSaf54PI7rg3DKu+68C/X1tXAdzyT5R3bBMFMaFizMFU/UQCdPABkxUurEydraWnzolg9h4cKF+NjHPoa//du/xcGDB4OVnB0ze0yhJPRCIYOIDDz6LypUCPMSihy/pqYGq1evxi233IJ169Zh4cKFqKurMx4V2i8dK5vNor6+3ngulApFUdQ48309iyylRE1NDbLZqvMSLEopNDQ04FOf+hQWLVqERx55BD//+c/R3d1ttqH2kZFL5w7AlJKmameNjY1IpVKwLL1eh1LKxK6TYKFznIxYLIZMJlMWSkUJ7pUghEA8rrevqqrCyMiIMWijuRNAuVeFKvDQPsZCKYVkMon169ejqakJCxYswGOPPYbu7m6T60LfpbFA/UB9Ev2dDCPL0rPTH/rQh/Dxj38cixcvRjqdRqlUKhuj0fGSTqfR1NRkjquUXmuDxmdNTQ2SyST6+/vLDCVA93HJ0etMLF++HBtuugn3fvzj+OZ//a84fPgw+vr6kM/nTdtIZEQ9F9HzpPHieXqtkaGhISxduhRf+9rXsHHjRiM0R19D2sdExmA52hsTFTqZTAa9vb1GECeTSZPkb1u22bbyY1wa6F4qlUooFApYsmQJHnzwQTQ0NOAHP/gBTpw4CUBfGxlMAniuCymF7j8FFEsl+K4LLWn0miZCacHx4U234Atf+ALmzp2LefPm4dZbb8WPfvQj9PX1wfM8XQpXBPsSQKlYMuO9GOSXJBMJDA4M4s3du7H15a1IJJIYGhpCPBaH4+pJACsQ7tHnTSIeR6lYhFMqAUKYRHAKJxVC/zc8NATf1/l7A4MD6DzWidffeAOtrS3Ytm0b7rvv47j++uuN+EylUmYixbIs45UGgJtuugktLS2YO3cuHnvspzh8+B3YETEvpYQdi8FzXb32i24JCBVxuHmeW3Z/ZTIZzJo1C2vWrEFDQ8OkY6exsRHV1dUYGhrSohMAoAAFLTCjBwsQQkDI0EOF4P7RfQjYdgxXXXUVVq1ahY999KNYuWoVGpsa4Xv0zNJ96vssWJjLAxYsDDMGNLNKs4uANhjmzp2LWbNmYf78+Th58iS2b9+OLVu2YPv27Th16pTZTsfVhwnoUW8JzfhFjU4yxuPxOFKpFObNm4cNGzZg3bp1mDNnDlpaWlBbWwfbLq9URkYMoMVWbW0trrrqKtxyyy0YHh5GPp8vm5ml4yilZ5mrqqowf/58zJkzu2JBQG33fR/pdBpr167FggULcOutt+JnP/sZnn/+eXR1dZn4dTJOSbiQwQro9tTX12P58uVIp9NQSpmQMDLOVixfgb6+PvT39yOfz0/68p87dy6mT59u2kkig5KPJ4MWfIvFYrjllltw8uRJI/5KpZLxVkRFGRm+CxYsmHDfQugcjVQqhfnz5+MrX/kKNm7ciB/96Ed4/vnnzRoYvjGQyg1lEiiAPp+GhgbMmzcPa9euxQ033IDFixdj2rRpSKfTKBaLWLlyJU6cOIH+/n7zHbp2TU1NuP7669Ha2qq9PwgMQ0/CVz6WLluKGzdsQGdnJ/KFPOKxONLpNAYGBoywmDevA9ddfz06Ojowc2Yb/vf3/jd2vrETmzdvxksvvYTOzk4UCgXTT1GhEh0TdE84joPa2lr8wR/8AT7xiU9g9uzZqKmpgVIKuVwO6XQaF4JSOs/CsiwzflevXo3a2loT+tTe3o6ZM2eW3StEJePnUkH9RV5H27Yxd+5c/OEf/iHuuOMOPPLIo9i69WW8vXcvBgYHtVi0dbnbYlHnpPieBzsWQyxmw7JstLW14dZbb8Xtt9+O9vaZaGtrMyFEn//853H0yFEcOXoEM2fORGNjownZi0546NAxG6WSgyNHjuAf/uH/4slfPYmuM10YGR5GzI6hVCqaUvJSSjQ3NaF12jTYloXunh4MDgwgm8mir68PrusGxRt8OMG9a1sWLGnpRHwAnuvCdYNCBI6DY8eO4Sc/eRSHDx/Cl770JWzatAkxO2ZCLqMTUZT3J6XEsmXLMK11GtatW4+f//wJPPHEEzh9+jTS6bSegCqVzCKMpWIxyJsRoUhQWvrZdgy1tTWorq7G9OnTsX79emzcuBEdHR2oqakxwn08vvzlL2PNmrXYuXMnDh86hBMnT6K3t9fkEunvKvieH4oXpaCXggnHpGVZaG5qwvz583HV0qVYv349rr/+ejTU1yOZSmkNpBTsmM1ihbnsECr6NGYYBkA466uUMi87yjHwPA/ZbBbFYhFDQ0MYHBxET08Pjhw5gr179+Lo0aM4fPgwRkZG0NfXh4GBAeRyuTLjnYyluro6NDU1YebMmZgzZw7a29sxffp0LFy4EA0NDaitrTUhKWQskaEc/Sw6S03Jno7jGGOdhEhULNCsYyqVQkNDA6qqqsq2nQjyjJBniQzp3t5e9Pb24tSpU3jzzTexc+dOHDp0CP39/eb84/E4Zs2ahcWLF+Pqq69GR0cHqqurMXu2Fk0UguR5Ol/h7NmzGBwYhK98jIyMIB6PT9jGkZERrFy5EkopM6NK4Vh0LSeCBJ7v+3jnnXdQCtaKIHE5WjACMEKrqqoKbW1tE+1ez4IGM8fxeBzFYhEnTpxAb28vjh8/jm3btuH48eN45513cPLkSQwPD5sZ32w2i5ltM7Fs+TJcffXVWLBgAZqamlBbW4u6ujqzPxJGPT09pu/pekupw+ssy0JtbS0aGhqM98ii/hFAT3cPevt6zUKX8ZgOnSwFM7gCAkIKzJo1K1xDJaZLg/f29qK/vx9nzpzBnj17sGPHDhw4cADHjx/HyMiIGT/ZbBbTp09He3s7mpubceutt2LWrFmYOXMmampqTEgfeYgquX6TQTP0JEDfeecdMz4AfU3r6urQ2tpqtiMv33sJjT0SyEAYSuR5Hvr6+jE0NIy+vj50dnZi165dePPNN3H69Gm4rotkMolUMonZc+bg2muvwaJFi1FXV4e6ujo0NzdBSolSqWiqYrmui0OHDpnxvnjxYhO2SfdmqVRCKpVCvlDAs88+h+/+zd9g27Zt6Ovt1aJQKXPfNTU24fo112P9+vVYetVVaG5ugWVbcAKPUV9vH44ePYquM2cwMDiAU6dO48SJEzq0bWgIp06ehK98OI5rvIKu6wbi04MQenHRdevW4Wtf+xrWr19v7puxnp006aCFsoue7h6c6erC0SNHsHPXLhw8eABnznTh1KlT5p4iL1wqlUJjQwNap01DY2Mjpk1rxbx5HWhvb0dDQwPq6+tNOBhQPrE0FoVCEUNDwxgYGEB/fz9OHD+OA4EHv6+vF11dXRgY0O+ZgYF+OI4WjjXV1chks5gze7ZuU1MTll51FVauWoXW1lZUVWVRla3SYYFmoiDwrASeFst+b8c1w1QKCxaGmQAyEsjQpxcQJbuTmPA8nT+Sz+dRLBaRy+Xhex5KTumcfQBBvLGlE6vp31QqhWw2i1QqhWQyCd/zIWR4TKVC7wQZLgT9jf4DYNobFTYAjMAgDxIAE8pGIUcTGWfRsB7X9SBluOaIUjqMwXEd5PN5jIyMIJ/Pm+/QeVO1m6amJmQymbI20TZkUFAOCXkHJjMcyQsyMjISKUkKk4cyOql/NEopUw2OZvej1yDa90KUL6w30SwqoMNIlAoTzalPaCY/l8thYGBAVyEqFMx1iYrnVCqFqqoqVFdXI5VKmf3Q9aa8FNu2YUldDtXzPJRKDqQURhDScaOJwSoIFnIcB/FYHNKSgAI8XwuemB2Dr4IVs0vaeLVsC0oBUujcA+oful4jIzn09/djZHgYI7kR01e0TSwWQyqVQiKRQCaTQU1NjTEOKd+GSu1eCL7vl+U10flT39K4IXEqpQyqLIUC9WIIpncLXSe6N0hI6zGn73Ep9PoluXwe/f39GBoaioRV6fGRzWZRW1uLTCYTGrHQ11iI0Limezafz5vFUJVSxrNiWZbxBj755K/wl9/6Fnbs2IFYLAZaKNSybMyfPx933303Nm3ahNZprWhoaEAqmQr6WgT3hILruMiNjOiwNd9HsVBAoViE57pwXB0+OjAwgGc2b8ZLW7fi8OHDGBwcNEKLxnYqlcJnPvMZPPjgg5g2bZoRdTSWos8BIbQX13VcCBmGWw4NDSGfy6HkOMjlcrrvhYC0JKSQkJaFeEwXarFsG8lkAqlU0owfIQRcxzWLE0/2zHLdICRT6pLOxWLRvEv0syCvvSu+H+QB+XrCILh+tXW1sKQu9ZzJpFFTU2veEzHbQqFYQjKhw/f0I1rn3+gxMX67GGYqwYKFYcaAZqDJoCF83w+NwcA4zQdJmWRQua4L27L1LHREKNAsN4WHRWeMoyIDCMOSaDaTxER0po4MZaUAKSMJ2AomSoAMU/JuEGS80LlFxUS0HWNBBgC1hV7Go8O/osY8nZ+UsizPhxZZjBqo9K8QAqViCbF4DLlcrqIXPwBjlPo+5UX4iMVs0w+TGZ3kYaFKVWQsk7FG50x9RoYBEBZcmAz6LhAm7pOBGA3bigoR6icag2RUk4EEhNeArg8Zl9F20r7oZxpbVCdWSAHHcWHbFpSvtGgBjSM9oy1FkGBsSQgIuJ4+joi8TegY1M6xxlT079QWLa5KiAUGIW0nhYxGv7wr6Hj0L415us9obJAnlcJBqe0T3ReXGqWU8ZqSl1EpZbxA8XgCMVs/d7TIDCuoKWUuLwQAvY4hVUHTORhCCNh2KELo3PP5vHm2FYtFc2x6Ru3fvx//9t9+GS++9BKKxSKqqqsxODCAWDyOmzZswFe++lUsXrwYLS0tiMdipn30L907Ugho4aXP1/eV/ixov+/7GB4extDQIHp7evHrLVvw8MMP4Y3X3wAELeyr1z264YYb8PWvfx3r1q2LjHe6l8LnTThxo0W3eRaV9Ar3iURCrwsTjGsFncjvezqWSo9bEZxK0N9BJytfy//Kngf6XyF0mJa+JyWEADxXr3ovqL/Mc4PeA+EEmhBBJTEJeJ5+piQSMXieMuJQC10bdrD+igqOyzBTnfduuohhpjA0008hEFFDngxxis2PhiiREaiChEnzMg72IWUYT037IsigBmCSxKNG7ehjEEKUG1Se78F13LLZfjJ66Wc6HoWMkaeIjjeRYWZZlhFRNJsK6PAmCpmgc422G4Dpr9ECho4f/dl1XVNKlKq3keE9Ufuk1AZ8dAbYtumziR95dM2TySTS6TS0ERdcr2BGkwRCVLCM7tvx8P1zq7WRAU37oDCW0d4a+p6UofeC+oIM/eg4iB6H2hxtO+1LG3oqmGX3YQkLlhWuoWMpy4gUYdsQEMgXtEiPIQbb0uJdCxcHAuFxSAjQORWLRViWZca3nhVWZX3p+77xHFEOwsVYW8j3feNlovuQrgcQ3g+WZZnJAim1iCKhOpnYvZTQs4gW06T+pb5RRqTAGN9RWzkqAKBoPAe/SgtS6v62bZ2/VSqVMDIygtraWjOOSFzStSqVSnjyySexdetLepHKeBxDQ0NIpVK459578R//439Ea0sramqqtehQOg9DG9VSrwAvAs+QHyaCRwWCUIFI8BWy2QyqqqrQ2joNbTNnoqOjA3/zN3+Dp576FZTyzbXat28f9u7di5tvvtmMLX3dLXieCxLptq1zDbWwp2eWrk5m+1oo+L4uxwxoD4iUOp8GACBCY18g7CPP9cz4iU5+jYduo7k0pgOUHzwPELwDBAm7QMR5utpbIq7LLrvBuiuxuA1LCqhRE1C+5wMQeu0VelTpjxhmyvPePX0ZZoozeuaXyromEgn4vm8MhehMHRlgYxmu9OIkg54+I6PTGOJKz9ZFjST6HhAao9Q+MkBJ7AgRhjsQ9HN0Zj5qgJERQu2ZCKXCxHg6b2oT/Uxtiu6PDELbto1Qov3Qd4Hw/Mh4VMo3s8rUBxNh25YJnyHjHghnhyd6OwshTHx8VExRWA21fbToJNFBRuR40N/ofMlYinraomMDCI9B14jaRv1E24z21kXbQW0EwrFDQkVKASeo+KVDUoLxAQEVCwxUX8EXPnzfgxWMcysov+r52iNlW7b2LCIc6wBMWBoJz2h/RQU9jRPdLm1Q0j1G216IYJBSIh6PlR2fwufS6TSkHFsk0ncnuq6/DaIhTNQXSmkPSyKRGDVBERr+dC2o/UFEIhSgBQMELEt7IunZpvsqbjx0w8PDSKfTSCQSUEphcHAI1dVVOHr0KH784x+biQon8LosWXIV/viP/ghzZs82kxqpVBIqmM63Aq+F5wfe5pgNJWkRWQtSag9CMGRhSf2ZUlpYW1KiuroK1157LW666SZs3/4a+vv7TM5aLpdDT0+PEfE0pnSuiyi7x7RwEQD08fwgEV1agVGvBGIyHHckKpRSgNLPa30PhM8/2rdSlXldzbkCkAB8oftHCiAWpyIkgY4JthMCsGwLFgDP82EL7SHTC2nStvQsCPZtScQDz43v6fBPy2K1wlwevPunP8O8j4m+1Oh3iv0Hyo1BCluhv9FM22jI8Bz92Tm/C4Bm880+R313rO+FhuH4RD1FoxmrfWMx2hCOvqAnayP9RyJCiLHXLJEynDmO9v1og3I8ovsnotdvIqLnR0Zi9DqM1d7zaVvU+CVjxuwvMNCA8fsvihZ0E/f76M+VCr1BZKwkEglAnDtybUsv4qeCU5NCQEAgHvRLKB9VoEnCfhoLIco9UaP/BULv5ujzreTaTQb1uxACUICMS3ONo2IoOlanCtSW0WObvI9jf4fOVYTPhsiP0Z8s69xrQ1XZyNtIf0sE+RBPP/00du7cafYUj8Vg2xbuv/8TWLJ4MRKJOAQEkokEBIL2WNL8HCvrc/IEhr/Tz+R1oDAoABBKoKamGsuWXoX6+jqcPdtlwjmHh4exb98+HD58GPPnzy8TbFHOvXfO2WRUf5mPyr5nCQtAecVGs62oTOhGjy2jbRq9zRhtDK9dKECEpHaFlB3DEojcwAwz5ansTmIYptywjHCpDJvz3mcFm1/stp6vQRk1hsYyVkdvO9k24zHWeZ7vPoDza++7pWx/72LX59ue8fpmrL2IyL8COKcPzOfvpuEYfzxW+tkFIfQ+xzf2L/LxLhKj+2yy2XsA5zWuxrqnjXfGzNhrb9+BAwciHh8LjqMLVSy96ipkMmkIAMVioVxohIeCEPq/6O9jQdsp5cPzXLiuA8vSHrPaulo0NTUBCD1x5GUhATOeZ/ZiXWMhLt6+3g0T9duETPZ3hplCVPCkYxiGYRiG0ZBg2b9/PyxL57SRh7GpqQkLFy68qAI/mkckRODlDKztaOhglEQigWy26pzPGYa5PGHBwjAMwzDMhEQ9OyROOjs7TQifrkiVQCKRQFtbW1lREsoFerdQDiEQenm8oFpXqVTCYLBQJoV4JZNJNDY2ora2RodgVhiWxTDM1IXvYoZhGIZhzhvyegDhQrT9/f2gKmuU9E4FQd4tlmXptakCT4sp2CCAvr4+nD17FkAoZjKZDFpaWsK1ey7cycMwzHsMCxaGYRiGYSYkmgtCHpPW1lZT8Y+ESU9PD86cOWOq+vm+P+lirZNBoqhYDKrZWbrU9pkzXXj55Zdx6tRpk2Po+z6qqqrQ3Nxsjj9eDgvDMJcPLFgYhmEYhqkYKuG9cOFC41mx7RhKRQeFQhFP/vJXAAQsaesKZRcFASFo/RyF06fP4IknnsCTv/wVisWCCVmTUqK5uRnt7e0TJtwzDHN5wYKFYRiGYZhJIU8HiYCZM2cGJYMtuK4Hz9eLcz7205+iq+sshAQgANe9sBwWfTi9BpbjeBgcHMKunbvw/376//DWnj1IJJKgNVVSqRSmTZuGmTNnmgVKGYa5/OE7mWEYhmGYCaGk91KpZNYPuvXWW7FgwQK4jgPl+0gmk3AdB8899xy+8Y1vYPfuPYACbEsCSgsXx/HCxSsV4HkKnqcXWXRdH67r67+rcBvX0Qvelkol7N69G9/61rfwjf/wH/D8r59HsVg0C7sCQEdHB+69914sXLjQhIRdjEplDMO8t1h//ud//ueTbcQwDMMwzJWLbdtwXdd4LVzXRTqdxsjICLZs2YJstgr5fB5CCjiOgwMHDqCzsxMQArV1dUhnMpBSavEi9OrsnusG4kdA+QpCSrPwoef5UEqvAl8slnDw4EE8/9xz+Mu//Ev85NFH0dPTAykteK6LeNCmxsZG3H333bjjjjtQX18Pz/PKFmplGObyRSgO8GQYhmEYZhIcx0EsFkOpVEIsFjNrsfzO7zyAN3e9Cdd1kUqn4LqeKTFcXV2NWTNnYsOGDZi/YAGuufpqLFy0CFXZDHxfoRR4Z+KJBCxLwHE8nDhxHLvf3I09e/fi2LFjOHnyJPa89RaOHz8Oz9eVx/I5LY4AAcuSqK2twR133IEvf/nLWLRoUbCYpW1KMLOXhWEub1iwMAzDMAwzIVGxUigUUF1dDcdx4Ps+Hn74Yfy7f/c1FIsF2LaNXC5vyhArpWBbFjzfh2VJJJMpZLNZJJNJxGwblm1DCoFSENbl+z5GRkYwODgIx3HMIpW+78OyLOTzeQBAMlgsciSXw7RprbjnnrvxwAMP4LrrrjPb0xoxANjLwjCXOSxYGIZhGIaZENd1Yds2isUiPM9DOp1GsViEUgrFYgmPP/44/tN/+s/o7OxELGZDSgvFYhGWZcHzPCTicZRKJfiB50UIoRNUBAAIyqwHgr+Z3BOl4Ad/EwAs29a5MsF6LPM6OvDJ+z+JBx74HbS1tcFxHFiWhVgsZkLCbNse77QYhrlMYMHCMAzDMMykFAoFJJNJAMDg4CCqq6tRKpUQj8dRyBex+6238N3vfhf/9x/+AfFEAtlMBj29vRBlekTACrwmgM6NsYN1WoqFAtxgkUkhhBE+MihXXAo8LsViEa2trbjvvo/j3/yb38XSpVchkYjDcRyTW1MsFuG6LjKZzLknwjDMZQcLFoZhGIZhJiWXyyGdTgMABgYGUFNTA8/z4DgOhLAwMNCPbLYKr7zyCv7iL/4C27dvR7FQQKFYNF4TQIsRARjPCaFFihYv5EEhbNtGY0MDli9fjjvuvBP33XcfqrJZKACWJVEo6DC0RCIBz/NMNTPLsnRYGntZGOayhgULwzAMwzAT4jguYjHbLMYohDDlhOPxOICwBLFt23BcF729vXjssX/B9u3bcejQIZw4cQInTpzQ1cSENNXBFPRaLkqFq9KnUinMbp+NBQsWYFb7LCxYsACrV6/G6tWrjfjwXA/xhBY4vu+bMDJakyWa+8JJ9wxzecOChWEYhmGYS4Lvq0DkaG+J7/kYGBzA6dOn0dXVhaGhIZRKJSgFNDc3oW1GG5pbmpFOZyKhZAqWZQe5LxMejmGY9yksWBiGYRiGuaRQxS+q1kUVxKSUJlyMfmYYhhkNCxaGYRiGYX4rREPKouIkmq9CZokQAlLIoJIYwzBXMixYGIZhGIa5pFB+yWiRQp4WyjWJ5pv4vg8vqBpGyfgMw1yZsGBhGIZhGOaSoZRCoVBALBabtFrXeB4YhmGubFiwMAzDMAxzSYl6WHzPh+M6RphIKY2nBdCr0luWxTktDMMYWLAwDMMwDPNbIZqfMhm+75vSyYlEYpKtGYZ5P8OChWEYhmGYS87ocC+llFkgkhZ8VL4CBHjtFIZhymDBwjAMwzAMwzDMlEVOtgHDMAzDMAzDMMx7BQsWhmEYhmEYhmGmLCxYGIZhGIZhGIaZsrBgYRiGYRiGYRhmysKChWEYhmEYhmGYKQsLFoZhGIZhGIZhpiwsWBiGYRiGYRiGmbKwYGEYhmEYhmEYZsrCgoVhGIZhGIZhmCkLCxaGYRiGYRiGYaYsLFgYhmEYhmEYhpmysGBhGIZhGIZhGGbKwoKFYRiGYRiGYZgpCwsWhmEYhmEYhmGmLCxYGIZhGIZhGIaZsrBgYRiGYRiGYRhmysKChWEYhmEYhmGYKQsLFoZhGIZhGIZhpiwsWBiGYRiGYRiGmbKwYGEYhmEYhmEYZsrCgoVhGIZhGIZhmCkLCxaGYRiGYRiGYaYsLFgYhmEYhmEYhpmysGBhGIZhGIZhGGbKwoKFYRiGYRiGYZgpCwsWhmEYhmEYhmGmLCxYGIZhGIZhGIaZsrBgYRiGYRiGYRhmysKChWEYhmEYhmGYKQsLFoZhGIZhGIZhpiwsWBiGYRiGYRiGmbKwYGEYhmEYhmEYZsrCgoVhGIZhGIZhmCkLCxaGYRiGYRiGYaYsLFgYhmEYhmEYhpmysGBhGIZhGIZhGGbKwoKFYRiGYRiGYZgpCwsWhmEYhmEYhmGmLCxYGIZhGIZhGIaZsrBgYRiGYRiGYRhmysKChWEYhmEYhmGYKQsLFoZhGIZhGIZhpiwsWBiGYRiGYRiGmbKwYGEYhmEYhmEYZsrCgoVhGIZhGIZhmCkLCxaGYRiGYRiGYaYsLFgYhmEYhmEYhpmysGBhGIZhGIZhGGbKwoKFYRiGYRiGYZgpCwsWhmEYhmEYhmGmLCxYGIZhGIZhGIaZsrBgYRiGYRiGYRhmysKChWEYhmEYhmGYKQsLFoZhGIZhGIZhpiwsWBiGYRiGYRiGmbKwYGEYhmEYhmEYZsrCgoVhGIZhGIZhmCkLCxaGYRiGYRiGYaYsLFgYhmEYhmEYhpmysGBhGIZhGIZhGGbKwoKFYRiGYRiGYZgpCwsWhmEYhmEYhmGmLP8/pu1eYMudS+kAAAAldEVYdGRhdGU6Y3JlYXRlADIwMjQtMDItMjdUMDM6NTA6NDIrMDA6MDDSBETuAAAAJXRFWHRkYXRlOm1vZGlmeQAyMDI0LTAyLTI3VDAzOjUwOjQyKzAwOjAwo1n8UgAAACh0RVh0ZGF0ZTp0aW1lc3RhbXAAMjAyNC0wMi0yN1QwMzo1MDo0MiswMDowMPRM3Y0AAAASdEVYdGV4aWY6RXhpZk9mZnNldAA3OMnUeycAAAAYdEVYdGV4aWY6UGl4ZWxYRGltZW5zaW9uADgxMr72K48AAAAYdEVYdGV4aWY6UGl4ZWxZRGltZW5zaW9uADQ2NmLPYUMAAAAjdEVYdGV4aWY6VXNlckNvbW1lbnQAQVNDSUkuLi5TY3JlZW5zaG90K8iaSQAAACh0RVh0aWNjOmNvcHlyaWdodABDb3B5cmlnaHQgQXBwbGUgSW5jLiwgMjAyNA3XGqkAAAAXdEVYdGljYzpkZXNjcmlwdGlvbgBEaXNwbGF5FxuVuAAAACB0RVh0c29mdHdhcmUAaHR0cHM6Ly9pbWFnZW1hZ2ljay5vcme8zx2dAAAAGHRFWHRUaHVtYjo6RG9jdW1lbnQ6OlBhZ2VzADGn/7svAAAAGHRFWHRUaHVtYjo6SW1hZ2U6OkhlaWdodAA0NjbGY2toAAAAF3RFWHRUaHVtYjo6SW1hZ2U6OldpZHRoADgxMhSkkI8AAAAZdEVYdFRodW1iOjpNaW1ldHlwZQBpbWFnZS9wbmc/slZOAAAAF3RFWHRUaHVtYjo6TVRpbWUAMTcwOTAwNTg0MjNDK1EAAAAOdEVYdFRodW1iOjpTaXplADBCyW8Y7QAAAIp0RVh0VGh1bWI6OlVSSQBmaWxlOi8vL2V4cG9ydC9jb250ZW50L2xpZC9hcHBzL3ZlY3Rvci1wcm9jZXNzb3ItcnVubmVyLzUwYTFlNzM4ZWFhNWFmODhjMGZiNzIwMmVmYmVjNDAwODNlMjQwZWMvdG1wL2lucHV0LTE2ODQ0ODQ4NTYyNTE3OTI3MjA4jG8EygAAAABJRU5ErkJggg==;" vertex="1" parent="1">
          <mxGeometry x="790" y="200" width="296.22" height="170" as="geometry" />
        </mxCell>
        <mxCell id="BnPgklOCdzFr4PZ2rw3d-20" value="&lt;font style=&quot;font-size: 14px;&quot;&gt;CI Pipeline&lt;/font&gt;" style="text;html=1;align=center;verticalAlign=middle;whiteSpace=wrap;rounded=0;" vertex="1" parent="1">
          <mxGeometry x="260" y="240" width="110" height="30" as="geometry" />
        </mxCell>
        <mxCell id="BnPgklOCdzFr4PZ2rw3d-21" value="&lt;font style=&quot;font-size: 14px;&quot;&gt;CD Pipeline&lt;/font&gt;" style="text;html=1;align=center;verticalAlign=middle;whiteSpace=wrap;rounded=0;" vertex="1" parent="1">
          <mxGeometry x="590" y="240" width="110" height="30" as="geometry" />
        </mxCell>
        <mxCell id="BnPgklOCdzFr4PZ2rw3d-22" value="&lt;font style=&quot;font-size: 14px;&quot;&gt;Github Pipelines&lt;/font&gt;" style="text;html=1;align=center;verticalAlign=middle;whiteSpace=wrap;rounded=0;" vertex="1" parent="1">
          <mxGeometry x="430" y="380" width="120" height="30" as="geometry" />
        </mxCell>
        <mxCell id="BnPgklOCdzFr4PZ2rw3d-25" value="&lt;font style=&quot;font-size: 14px;&quot;&gt;Github Site pages to publish the code flow diagrams (can be linked within Readme file of the repository)&lt;/font&gt;" style="text;html=1;align=center;verticalAlign=middle;whiteSpace=wrap;rounded=0;" vertex="1" parent="1">
          <mxGeometry x="760" y="335" width="340" height="120" as="geometry" />
        </mxCell>
        <mxCell id="BnPgklOCdzFr4PZ2rw3d-26" value="&lt;font style=&quot;font-size: 14px;&quot;&gt;Deploy newly generated code flow images to Github Pages.&lt;/font&gt;" style="text;html=1;align=center;verticalAlign=middle;whiteSpace=wrap;rounded=0;" vertex="1" parent="1">
          <mxGeometry x="560" y="280" width="190" height="60" as="geometry" />
        </mxCell>
        <mxCell id="BnPgklOCdzFr4PZ2rw3d-27" value="&lt;font style=&quot;font-size: 14px;&quot;&gt;Generate InMemory traces, plantuml file and code flow images.&lt;/font&gt;" style="text;html=1;align=center;verticalAlign=middle;whiteSpace=wrap;rounded=0;" vertex="1" parent="1">
          <mxGeometry x="215" y="295" width="205" height="35" as="geometry" />
        </mxCell>
      </root>
    </mxGraphModel>
  </diagram>
</mxfile>
